<svg width="37" height="350" viewBox="0 0 37 350" fill="none" xmlns="http://www.w3.org/2000/svg">
<path fill-rule="evenodd" clip-rule="evenodd" d="M3.66342 0.521116C2.11222 1.03305 2.14495 49.3966 3.69614 50.6343C5.28878 51.9044 8.45663 50.4313 9.17004 48.0876C9.50603 46.9881 10.2696 44.921 10.8652 43.4953C11.4609 42.0697 12.8375 38.7648 13.9218 36.1511C17.4322 27.701 24.4856 13.8465 25.847 12.7276C28.3036 10.7079 28.7596 13.7082 28.7727 32.0168C28.7858 49.524 28.8272 49.9366 30.6904 50.9238C35.2305 53.33 35.7672 50.5652 35.7672 24.8022V1.54715L33.4023 0.657207C28.0724 -1.34948 23.8529 3.41127 15.0345 21.3721C9.49513 32.654 8.71407 31.7187 8.71407 13.799C8.71407 0.104232 8.29081 -1.00604 3.66342 0.521116ZM3.04166 75.719C0.129079 76.3476 0.0134211 77.2829 0.000330843 100.361C-0.0127594 123.322 0.349403 126.009 3.45615 126.009C6.08292 126.009 6.50399 124.515 6.9687 113.533L7.40507 103.216L10.3962 102.452C12.4884 101.918 14.0222 102.024 15.5035 102.81C17.6416 103.942 27.9131 118.527 27.9131 120.428C27.9131 124.391 35.0604 127.845 36.1621 124.413C37.061 121.609 28.6178 106.852 23.2071 101.767C20.1484 98.892 20.2815 98.3304 25.3801 92.5782C32.2896 84.7869 35.3483 78.0605 32.8961 76.0473C31.0831 74.5569 27.8978 76.7256 25.3736 81.1731C21.1432 88.6231 19.8975 90.1503 16.0642 92.5868C13.6382 94.1291 11.3474 94.9218 9.818 94.7469L7.40507 94.4725L7.15632 85.6984C6.89888 76.5398 6.27058 75.0191 3.04166 75.719ZM2.82347 150.228C-2.66352 152.412 1.89626 156.25 9.9773 156.25C15.9137 156.25 15.6694 155.222 15.6846 180.281L15.6955 200.425L18.5317 200.153L21.368 199.883L21.8436 178.283C22.3977 153.077 21.5927 156.25 27.42 156.25C35.5076 156.25 39.8143 152.809 34.9513 150.232C32.8743 149.133 5.58769 149.128 2.82347 150.228ZM3.69614 225.08C2.26276 225.652 2.09914 274.208 3.52816 275.083C6.07421 276.643 8.48937 274.597 10.4333 269.234C14.753 257.321 25.0114 236.604 26.5888 236.604C28.548 236.604 28.7857 238.85 28.7857 257.412V275.485H32.2765H35.7672V250.467V225.449L32.5274 224.849C28.0593 224.017 23.6566 229.068 16.4155 243.317C9.43185 257.06 8.71407 256.58 8.71407 238.168C8.71407 230.973 8.3628 225.372 7.91337 225.372C7.47267 225.372 6.58909 225.207 5.94985 225.009C5.31061 224.808 4.29611 224.84 3.69614 225.08ZM3.65253 300.714C1.95516 302.395 2.17986 347.501 3.89468 348.909C6.54109 351.087 26.4906 349.739 29.2352 347.199C40.6957 336.595 33.0226 320.438 17.0024 321.438C9.51693 321.904 10.3656 326.678 18.0648 327.408C31.6765 328.698 30.6293 342.982 16.83 344.246C9.04787 344.959 9.52566 346.371 9.80928 323.438L10.0231 306.158L19.8255 305.913C30.3042 305.652 33.2823 304.257 30.4853 300.917C29.113 299.282 5.28226 299.101 3.65253 300.714Z" fill="#E0AB4D"/>
</svg>
