<svg width="129" height="129" viewBox="0 0 129 129" fill="none" xmlns="http://www.w3.org/2000/svg">
<path d="M48.0986 82.3616L47.1807 91.0311C47.1066 91.7308 47.3328 92.4287 47.8036 92.9517C48.2739 93.4746 48.9444 93.773 49.648 93.773H75.8796C76.5829 93.773 77.2534 93.4743 77.7241 92.9517C78.1945 92.4287 78.4207 91.7308 78.3469 91.0311L77.429 82.3616H110.103C115.188 82.3616 119.326 78.2244 119.326 73.139V9.22263C119.325 4.13713 115.188 0 110.103 0H13.4399C8.35442 0 4.21729 4.13713 4.21729 9.22263V73.139C4.21729 78.2244 8.35442 82.3616 13.4399 82.3616H48.0986ZM73.1219 88.8116H52.4051L53.0878 82.3616H72.4388L73.1219 88.8116ZM13.4399 4.96178H110.103C112.452 4.96178 114.364 6.87306 114.364 9.22263V65.4922H9.17907V9.22263C9.17907 6.87306 11.0903 4.96178 13.4399 4.96178ZM9.17907 73.139V70.454H114.363V73.139C114.363 75.4885 112.452 77.3998 110.102 77.3998H13.4399C11.0903 77.3998 9.17907 75.4885 9.17907 73.139Z" fill="#E0AB4D"/>
<path d="M110.034 110.442C110.484 109.701 110.515 108.779 110.115 108.01L105.215 98.5828C104.788 97.7615 103.939 97.2461 103.013 97.2461H20.5288C19.6033 97.2461 18.7545 97.7615 18.3274 98.5828L13.4275 108.01C13.0279 108.779 13.0583 109.701 13.5082 110.442C13.9581 111.183 14.7622 111.635 15.6289 111.635H107.913C108.78 111.635 109.584 111.183 110.034 110.442ZM19.7144 106.673L22.0352 102.208H101.507L103.828 106.673H19.7144Z" fill="#E0AB4D"/>
<path d="M114.363 116.1H110.394C104.649 116.1 99.9746 120.774 99.9746 126.519C99.9746 127.889 101.085 129 102.455 129H122.302C123.672 129 124.783 127.889 124.783 126.519C124.783 120.774 120.109 116.1 114.363 116.1ZM105.534 124.038C106.438 122.273 108.278 121.061 110.394 121.061H114.363C116.48 121.061 118.319 122.273 119.224 124.038H105.534Z" fill="#E0AB4D"/>
</svg>
