<svg width="230" height="350" viewBox="0 0 230 350" fill="none" xmlns="http://www.w3.org/2000/svg">
<path fill-rule="evenodd" clip-rule="evenodd" d="M1.23731 0.587689C-0.618515 1.07297 1.04902 6.07966 4.9442 11.7112C10.1146 19.1871 13.0225 20.7826 22.2795 21.2298C36.2718 21.9038 43.0211 26.4648 44.4244 36.1896C44.7741 38.6081 45.043 60.3112 45.0494 86.6609C45.0636 135.929 45.4449 142.207 48.5854 144.819C49.0838 145.235 49.492 146.012 49.492 146.546C49.492 147.834 58.0939 156.168 62.1268 158.788C63.8797 159.925 65.3132 161.067 65.3132 161.324C65.3132 161.581 66.5235 162.527 68.0028 163.426C75.3216 167.875 75.0685 169.012 65.1644 176.185C44.0985 191.445 45.0778 187.369 45.0509 259.921C45.0383 294.495 44.7946 316.141 44.3959 317.87C42.8819 324.456 36.7686 328.002 24.5973 329.352C21.1736 329.732 17.5553 330.465 16.5601 330.982C15.5634 331.499 14.2708 331.921 13.6854 331.921C12.6349 331.921 5.19261 338.916 5.19261 339.904C5.19261 340.375 3.65635 342.875 0.637668 347.313C-1.15013 349.943 -0.678635 350 22.5959 350C43.0796 349.998 43.5289 349.971 46.0018 348.573C47.3893 347.788 48.9888 347.145 49.5552 347.145C50.1232 347.145 51.3114 346.574 52.1958 345.877C53.0818 345.179 54.0453 344.608 54.3396 344.608C56.2508 344.608 64.799 335.002 67.5424 329.77C72.3204 320.661 72.2697 321.432 72.2713 258.93C72.2745 198.418 72.0672 201.347 76.6206 197.785C77.5334 197.07 81.1391 193.63 84.634 190.141C88.1273 186.652 91.8295 183.065 92.8626 182.17C97.8653 177.838 104.55 170.216 104.55 168.846C104.55 167.781 100.223 163.103 88.4912 151.486C73.113 136.258 72.4169 135.465 72.0403 132.731C71.8252 131.161 71.6796 107.896 71.7192 81.031C71.7666 48.1949 71.5673 31.3542 71.1132 29.6477C69.7732 24.6125 67.7148 19.4726 66.5266 18.188C65.859 17.468 65.3132 16.5926 65.3132 16.2421C65.3132 15.5047 59.3058 9.23559 57.0402 7.61163C52.9568 4.68088 50.6074 3.32178 49.6217 3.31861C49.0284 3.31703 46.5492 2.60969 44.1127 1.74696C39.8964 0.253044 6.01215 -0.663588 1.23731 0.587689ZM170.562 2.55896C169.282 2.74927 166.986 5.04566 163.634 9.48777C160.976 13.0101 156.443 19.8358 156.443 20.3179C156.443 20.5891 155.434 22.37 154.201 24.2763C152.967 26.1841 149.68 32.3755 146.894 38.034C144.107 43.6925 141.557 48.4914 141.225 48.6976C140.894 48.9022 140.622 49.6618 140.622 50.385C140.622 51.1082 140.087 52.591 139.434 53.6789C138.779 54.7668 137.888 56.7984 137.451 58.194C137.016 59.5896 136.425 61.0312 136.137 61.3991C135.173 62.6266 136.335 65.1355 139.939 69.6125C141.904 72.0548 144.215 75.1949 145.073 76.5905L146.634 79.1279L146.951 213.795C147.229 332.576 147.379 348.531 148.216 349.061C149.83 350.084 169.907 349.841 171.353 348.782C172.636 347.842 173.699 5.10751 172.426 3.10293C172.163 2.68901 171.325 2.44477 170.562 2.55896Z" fill="#E0AB4D"/>
<path fill-rule="evenodd" clip-rule="evenodd" d="M196.663 0.521116C195.112 1.03305 195.145 49.3966 196.696 50.6343C198.289 51.9044 201.457 50.4313 202.17 48.0876C202.506 46.9881 203.27 44.921 203.865 43.4953C204.461 42.0697 205.838 38.7648 206.922 36.1512C210.432 27.701 217.486 13.8465 218.847 12.7276C221.304 10.7079 221.76 13.7082 221.773 32.0168C221.786 49.524 221.827 49.9366 223.69 50.9238C228.231 53.33 228.767 50.5652 228.767 24.8022V1.54715L226.402 0.657207C221.072 -1.34948 216.853 3.41127 208.034 21.3721C202.495 32.654 201.714 31.7187 201.714 13.799C201.714 0.104232 201.291 -1.00604 196.663 0.521116ZM196.042 75.719C193.129 76.3476 193.013 77.2829 193 100.361C192.987 123.322 193.349 126.009 196.456 126.009C199.083 126.009 199.504 124.515 199.969 113.533L200.405 103.216L203.396 102.452C205.488 101.918 207.022 102.024 208.504 102.81C210.642 103.942 220.913 118.527 220.913 120.428C220.913 124.391 228.06 127.845 229.162 124.413C230.061 121.609 221.618 106.852 216.207 101.767C213.148 98.892 213.281 98.3304 218.38 92.5782C225.29 84.7869 228.348 78.0605 225.896 76.0473C224.083 74.5569 220.898 76.7256 218.374 81.1731C214.143 88.6231 212.897 90.1503 209.064 92.5868C206.638 94.1291 204.347 94.9218 202.818 94.7469L200.405 94.4725L200.156 85.6984C199.899 76.5398 199.271 75.0191 196.042 75.719ZM195.823 150.228C190.336 152.412 194.896 156.25 202.977 156.25C208.914 156.25 208.669 155.222 208.685 180.281L208.696 200.425L211.532 200.153L214.368 199.883L214.844 178.283C215.398 153.077 214.593 156.25 220.42 156.25C228.508 156.25 232.814 152.809 227.951 150.232C225.874 149.133 198.588 149.128 195.823 150.228ZM196.696 225.08C195.263 225.652 195.099 274.208 196.528 275.083C199.074 276.643 201.489 274.597 203.433 269.234C207.753 257.321 218.011 236.604 219.589 236.604C221.548 236.604 221.786 238.85 221.786 257.412V275.485H225.276H228.767V250.467V225.449L225.527 224.849C221.059 224.017 216.657 229.068 209.415 243.317C202.432 257.06 201.714 256.58 201.714 238.168C201.714 230.973 201.363 225.372 200.913 225.372C200.473 225.372 199.589 225.207 198.95 225.009C198.311 224.808 197.296 224.84 196.696 225.08ZM196.653 300.714C194.955 302.395 195.18 347.501 196.895 348.909C199.541 351.087 219.491 349.739 222.235 347.199C233.696 336.595 226.023 320.438 210.002 321.438C202.517 321.904 203.366 326.678 211.065 327.408C224.677 328.698 223.629 342.982 209.83 344.246C202.048 344.959 202.526 346.371 202.809 323.438L203.023 306.158L212.825 305.913C223.304 305.652 226.282 304.257 223.485 300.917C222.113 299.282 198.282 299.101 196.653 300.714Z" fill="#E0AB4D"/>
</svg>
