<svg width="246" height="350" viewBox="0 0 246 350" fill="none" xmlns="http://www.w3.org/2000/svg">
<path d="M162 349.585L162 16" stroke="#E0AB4D" stroke-width="12"/>
<path d="M0 24.9871C0 24.9871 16.7883 24.9854 51.414 24.9871C86.0398 24.9887 79.7442 160.719 79.7442 160.719L125.912 178.374L79.7442 202.651C79.7442 202.651 88.2714 340.584 51.414 340.584C23.0839 340.584 0 340.584 0 340.584" stroke="#E0AB4D" stroke-width="10"/>
<path d="M203.22 58V16H212.88V43.36L232.92 16H242.04V58H232.44V30.7L212.4 58H203.22ZM230.4 131L217.32 110.78L225.18 106.04L241.44 131H230.4ZM203.1 131V89H212.76V131H203.1ZM209.94 114.08V105.98H224.58V114.08H209.94ZM226.08 111.08L217.14 110L230.76 89H241.02L226.08 111.08ZM212.28 204V167.7L214.5 169.92H198.9V162H235.32V169.92H219.72L221.88 167.7V204H212.28ZM203.22 277V235H212.88V262.36L232.92 235H242.04V277H232.44V249.7L212.4 277H203.22ZM203.22 350V308H237.12V315.74H212.88V324.38H224.52C229.6 324.38 233.46 325.44 236.1 327.56C238.78 329.68 240.12 332.76 240.12 336.8C240.12 340.96 238.64 344.2 235.68 346.52C232.72 348.84 228.54 350 223.14 350H203.22ZM212.88 342.8H222.6C225.08 342.8 226.98 342.32 228.3 341.36C229.62 340.36 230.28 338.92 230.28 337.04C230.28 333.36 227.72 331.52 222.6 331.52H212.88V342.8Z" fill="#E0AB4D"/>
</svg>
