<svg width="878" height="887" viewBox="0 0 878 887" fill="none" xmlns="http://www.w3.org/2000/svg">
<path d="M125.737 729.638C50.0942 738.463 10.872 701.797 0.716266 682.361C-21.5563 526.873 481.088 272.105 743.21 250.043C743.21 250.043 660.3 267.64 546.309 315.705C432.318 363.77 360.354 408.683 360.354 408.683C217.474 481.174 153.578 537.905 125.737 574.15C97.8963 610.396 86.865 657.147 125.737 682.361C156.835 702.533 325.7 659.248 406.246 635.085C344.261 662.925 201.38 720.813 125.737 729.638Z" fill="#006590"/>
<path d="M528.497 315.931C550.793 518.993 452.037 844.152 441.531 869.531C431.026 894.909 423.437 884.6 423.437 884.6L441.531 831.02C457.29 781.117 503.987 630.356 493.827 338.518C478.302 222.726 441.531 68.8139 360.505 129.387C345.972 142.87 306.192 206.984 274.253 363.732C274.252 308.349 270.392 281.786 332.138 80.5347C363.386 -21.3106 518.832 -98.0028 528.497 315.931Z" fill="#006590"/>
<path d="M710.819 645.453C739.328 641.919 746.394 584.811 546.584 384.653C550.606 380.589 620.668 417.518 800.019 624.779C842.096 706.942 806.943 804.477 443.843 617.888C283.805 535.649 1.50758 308.852 38.6628 253.193C53.9794 288.179 196.985 461.211 459.583 594.565C541.58 625.104 668.422 679.802 710.819 645.453Z" fill="#006590" stroke="#006590"/>
<path d="M811.551 487.193V468.784H815.812C818.312 468.784 820.287 468.585 821.736 468.188C823.213 467.761 824.349 467.023 825.145 465.972C825.969 464.892 826.665 463.386 827.233 461.455L828.085 458.898L795.358 398.727H819.562L837.801 434.182L851.778 398.727H875.642L845.642 466.909C843.994 470.489 842.034 473.827 839.761 476.923C837.489 479.991 834.662 482.477 831.281 484.381C827.901 486.256 823.71 487.193 818.71 487.193H811.551Z" fill="#B4234A"/>
<path d="M811.551 487.193V468.784H815.812C818.312 468.784 820.287 468.585 821.736 468.188C823.213 467.761 824.349 467.023 825.145 465.972C825.969 464.892 826.665 463.386 827.233 461.455L828.085 458.898L795.358 398.727H819.562L837.801 434.182L851.778 398.727H875.642L845.642 466.909C843.994 470.489 842.034 473.827 839.761 476.923C837.489 479.991 834.662 482.477 831.281 484.381C827.901 486.256 823.71 487.193 818.71 487.193H811.551Z" fill="#B4234A"/>
<path d="M604.398 544.42H627.751C635.08 544.42 641.572 545.912 647.225 548.895C652.907 551.878 657.353 556.111 660.563 561.594C663.802 567.077 665.421 573.568 665.421 581.068C665.421 588.17 663.802 594.321 660.563 599.52C657.353 604.719 652.907 608.739 647.225 611.58C641.572 614.42 635.08 615.841 627.751 615.841H604.398C597.012 615.841 590.464 614.435 584.754 611.622C579.072 608.81 574.612 604.79 571.373 599.562C568.163 594.335 566.558 588.114 566.558 580.898C566.558 573.398 568.191 566.92 571.458 561.466C574.754 556.011 579.242 551.807 584.924 548.852C590.634 545.898 597.126 544.42 604.398 544.42ZM604.398 563.852C601.444 563.852 598.717 564.406 596.217 565.514C593.745 566.622 591.756 568.426 590.251 570.926C588.773 573.426 588.035 576.75 588.035 580.898C588.035 584.705 588.802 587.744 590.336 590.017C591.898 592.29 593.915 593.923 596.387 594.918C598.887 595.912 601.558 596.409 604.398 596.409H627.921C630.819 596.409 633.461 595.898 635.847 594.875C638.262 593.824 640.18 592.176 641.6 589.932C643.049 587.659 643.773 584.705 643.773 581.068C643.773 576.92 643.049 573.582 641.6 571.054C640.18 568.526 638.262 566.693 635.847 565.557C633.461 564.42 630.819 563.852 627.921 563.852H604.398ZM627.069 534.193V626.58H604.91V534.193H627.069Z" fill="#B4234A"/>
<path d="M604.398 544.42H627.751C635.08 544.42 641.572 545.912 647.225 548.895C652.907 551.878 657.353 556.111 660.563 561.594C663.802 567.077 665.421 573.568 665.421 581.068C665.421 588.17 663.802 594.321 660.563 599.52C657.353 604.719 652.907 608.739 647.225 611.58C641.572 614.42 635.08 615.841 627.751 615.841H604.398C597.012 615.841 590.464 614.435 584.754 611.622C579.072 608.81 574.612 604.79 571.373 599.562C568.163 594.335 566.558 588.114 566.558 580.898C566.558 573.398 568.191 566.92 571.458 561.466C574.754 556.011 579.242 551.807 584.924 548.852C590.634 545.898 597.126 544.42 604.398 544.42ZM604.398 563.852C601.444 563.852 598.717 564.406 596.217 565.514C593.745 566.622 591.756 568.426 590.251 570.926C588.773 573.426 588.035 576.75 588.035 580.898C588.035 584.705 588.802 587.744 590.336 590.017C591.898 592.29 593.915 593.923 596.387 594.918C598.887 595.912 601.558 596.409 604.398 596.409H627.921C630.819 596.409 633.461 595.898 635.847 594.875C638.262 593.824 640.18 592.176 641.6 589.932C643.049 587.659 643.773 584.705 643.773 581.068C643.773 576.92 643.049 573.582 641.6 571.054C640.18 568.526 638.262 566.693 635.847 565.557C633.461 564.42 630.819 563.852 627.921 563.852H604.398ZM627.069 534.193V626.58H604.91V534.193H627.069Z" fill="#B4234A"/>
<path d="M357.603 699.727V787H333.91V699.727H357.603ZM376.183 736.545V754.273H347.547V736.545H376.183ZM453.399 743.364C453.399 753.08 451.51 761.276 447.731 767.952C443.953 774.599 438.853 779.642 432.433 783.08C426.012 786.489 418.853 788.193 410.956 788.193C403.001 788.193 395.814 786.474 389.393 783.037C383.001 779.571 377.916 774.514 374.137 767.866C370.387 761.19 368.512 753.023 368.512 743.364C368.512 733.648 370.387 725.466 374.137 718.818C377.916 712.142 383.001 707.099 389.393 703.69C395.814 700.253 403.001 698.534 410.956 698.534C418.853 698.534 426.012 700.253 432.433 703.69C438.853 707.099 443.953 712.142 447.731 718.818C451.51 725.466 453.399 733.648 453.399 743.364ZM429.024 743.364C429.024 738.136 428.328 733.733 426.936 730.153C425.572 726.545 423.541 723.818 420.842 721.972C418.172 720.097 414.876 719.159 410.956 719.159C407.035 719.159 403.726 720.097 401.027 721.972C398.356 723.818 396.325 726.545 394.933 730.153C393.569 733.733 392.887 738.136 392.887 743.364C392.887 748.591 393.569 753.009 394.933 756.616C396.325 760.196 398.356 762.923 401.027 764.798C403.726 766.645 407.035 767.568 410.956 767.568C414.876 767.568 418.172 766.645 420.842 764.798C423.541 762.923 425.572 760.196 426.936 756.616C428.328 753.009 429.024 748.591 429.024 743.364Z" fill="#B4234A"/>
<path d="M357.603 699.727V787H333.91V699.727H357.603ZM376.183 736.545V754.273H347.547V736.545H376.183ZM453.399 743.364C453.399 753.08 451.51 761.276 447.731 767.952C443.953 774.599 438.853 779.642 432.433 783.08C426.012 786.489 418.853 788.193 410.956 788.193C403.001 788.193 395.814 786.474 389.393 783.037C383.001 779.571 377.916 774.514 374.137 767.866C370.387 761.19 368.512 753.023 368.512 743.364C368.512 733.648 370.387 725.466 374.137 718.818C377.916 712.142 383.001 707.099 389.393 703.69C395.814 700.253 403.001 698.534 410.956 698.534C418.853 698.534 426.012 700.253 432.433 703.69C438.853 707.099 443.953 712.142 447.731 718.818C451.51 725.466 453.399 733.648 453.399 743.364ZM429.024 743.364C429.024 738.136 428.328 733.733 426.936 730.153C425.572 726.545 423.541 723.818 420.842 721.972C418.172 720.097 414.876 719.159 410.956 719.159C407.035 719.159 403.726 720.097 401.027 721.972C398.356 723.818 396.325 726.545 394.933 730.153C393.569 733.733 392.887 738.136 392.887 743.364C392.887 748.591 393.569 753.009 394.933 756.616C396.325 760.196 398.356 762.923 401.027 764.798C403.726 766.645 407.035 767.568 410.956 767.568C414.876 767.568 418.172 766.645 420.842 764.798C423.541 762.923 425.572 760.196 426.936 756.616C428.328 753.009 429.024 748.591 429.024 743.364Z" fill="#B4234A"/>
<path d="M631.102 158.727V246H607.75V177.477H578.261V246H554.909V158.727H631.102Z" fill="#B4234A"/>
<path d="M631.102 158.727V246H607.75V177.477H578.261V246H554.909V158.727H631.102Z" fill="#B4234A"/>
<path d="M445.953 244.011V262.42H407.26V244.011H445.953ZM377.771 266.511H401.123C401.01 270.773 402.217 273.912 404.745 275.929C407.302 277.946 410.811 278.955 415.271 278.955C419.419 278.955 422.572 278.145 424.731 276.526C426.919 274.878 428.41 272.307 429.206 268.812C430.029 265.29 430.441 260.716 430.441 255.091V249.807C430.441 244.295 429.973 239.793 429.035 236.298C428.098 232.804 426.564 230.233 424.433 228.585C422.302 226.937 419.419 226.114 415.782 226.114C411.805 226.114 408.751 226.639 406.62 227.69C404.49 228.741 403.027 230.247 402.231 232.207C401.436 234.168 401.01 236.511 400.953 239.239H377.6C378.169 233.386 379.916 228.06 382.842 223.259C385.768 218.457 389.958 214.636 395.413 211.795C400.868 208.955 407.657 207.534 415.782 207.534C423.396 207.534 430.015 209.253 435.64 212.69C441.294 216.099 445.669 220.986 448.765 227.349C451.89 233.685 453.453 241.227 453.453 249.977V255.091C453.453 263.841 451.947 271.369 448.936 277.676C445.924 283.955 441.578 288.784 435.896 292.165C430.214 295.517 423.339 297.193 415.271 297.193C407.941 297.193 401.507 295.943 395.967 293.443C390.456 290.915 386.109 287.364 382.927 282.79C379.774 278.187 378.055 272.761 377.771 266.511Z" fill="#B4234A"/>
<path d="M445.953 244.011V262.42H407.26V244.011H445.953ZM377.771 266.511H401.123C401.01 270.773 402.217 273.912 404.745 275.929C407.302 277.946 410.811 278.955 415.271 278.955C419.419 278.955 422.572 278.145 424.731 276.526C426.919 274.878 428.41 272.307 429.206 268.812C430.029 265.29 430.441 260.716 430.441 255.091V249.807C430.441 244.295 429.973 239.793 429.035 236.298C428.098 232.804 426.564 230.233 424.433 228.585C422.302 226.937 419.419 226.114 415.782 226.114C411.805 226.114 408.751 226.639 406.62 227.69C404.49 228.741 403.027 230.247 402.231 232.207C401.436 234.168 401.01 236.511 400.953 239.239H377.6C378.169 233.386 379.916 228.06 382.842 223.259C385.768 218.457 389.958 214.636 395.413 211.795C400.868 208.955 407.657 207.534 415.782 207.534C423.396 207.534 430.015 209.253 435.64 212.69C441.294 216.099 445.669 220.986 448.765 227.349C451.89 233.685 453.453 241.227 453.453 249.977V255.091C453.453 263.841 451.947 271.369 448.936 277.676C445.924 283.955 441.578 288.784 435.896 292.165C430.214 295.517 423.339 297.193 415.271 297.193C407.941 297.193 401.507 295.943 395.967 293.443C390.456 290.915 386.109 287.364 382.927 282.79C379.774 278.187 378.055 272.761 377.771 266.511Z" fill="#B4234A"/>
<path d="M176.625 391V303.727H200.318V337.818H231.682V303.727H255.375V391H231.682V356.909H200.318V391H176.625Z" fill="#B4234A"/>
<path d="M176.625 391V303.727H200.318V337.818H231.682V303.727H255.375V391H231.682V356.909H200.318V391H176.625Z" fill="#B4234A"/>
<path d="M22.7656 419.727H46.4588V465.409H47.1406L78.1634 419.727H98.277V507H74.5838V461.148H74.0724L42.5384 507H22.7656V419.727Z" fill="#B4234A"/>
<path d="M22.7656 419.727H46.4588V465.409H47.1406L78.1634 419.727H98.277V507H74.5838V461.148H74.0724L42.5384 507H22.7656V419.727Z" fill="#B4234A"/>
</svg>
