<svg width="512" height="128" viewBox="0 0 512 128" fill="none" xmlns="http://www.w3.org/2000/svg">
<path d="M265.501 13.4996L265.812 12.5494L265.501 13.4996ZM512 118.001L502.773 111.06L501.375 122.522L512 118.001ZM2.00017 72.0022C2.61532 72.7906 2.61531 72.7906 2.6153 72.7906C2.6153 72.7906 2.61529 72.7906 2.61528 72.7906C2.61528 72.7906 2.61527 72.7906 2.61527 72.7906C2.61527 72.7906 2.61528 72.7906 2.61531 72.7906C2.61537 72.7905 2.61548 72.7904 2.61565 72.7903C2.616 72.79 2.61658 72.7896 2.61739 72.789C2.61902 72.7877 2.62158 72.7857 2.62507 72.783C2.63206 72.7775 2.64278 72.7692 2.65721 72.7581C2.68607 72.7357 2.72977 72.702 2.78816 72.6571C2.90493 72.5674 3.08043 72.4334 3.3134 72.2573L2.10767 70.6616C1.87045 70.8409 1.69077 70.9781 1.5699 71.071C1.50947 71.1174 1.46374 71.1527 1.43288 71.1766C1.41744 71.1885 1.40573 71.1976 1.39774 71.2038C1.39375 71.2069 1.39069 71.2093 1.38857 71.211C1.38751 71.2118 1.38669 71.2124 1.38609 71.2129C1.3858 71.2131 1.38556 71.2133 1.38538 71.2135C1.38529 71.2135 1.38522 71.2136 1.38516 71.2136C1.38513 71.2137 1.3851 71.2137 1.38508 71.2137C1.38507 71.2137 1.38505 71.2137 1.38505 71.2137C1.38503 71.2137 1.38502 71.2137 2.00017 72.0022ZM4.90508 71.0727C5.37809 70.7252 5.92241 70.3287 6.53617 69.8869L5.3678 68.2637C4.74863 68.7094 4.19904 69.1096 3.72087 69.461L4.90508 71.0727ZM8.19442 68.7041C8.68993 68.3537 9.217 67.9836 9.77503 67.5949L8.63196 65.9538C8.06997 66.3452 7.53901 66.718 7.03967 67.0711L8.19442 68.7041ZM11.4766 66.4188C11.9862 66.0692 12.5165 65.7076 13.0672 65.3348L11.946 63.6786C11.3919 64.0538 10.8581 64.4177 10.3452 64.7696L11.4766 66.4188ZM14.7479 64.2047C15.2839 63.8467 15.8364 63.48 16.4052 63.1049L15.3041 61.4352C14.732 61.8125 14.1763 62.1814 13.6371 62.5416L14.7479 64.2047ZM18.052 62.0255C18.6152 61.6587 19.1926 61.2849 19.784 60.9045L18.7021 59.2224C18.1074 59.6049 17.5268 59.9808 16.9604 60.3497L18.052 62.0255ZM21.4176 59.86C21.9666 59.511 22.5265 59.157 23.0972 58.7985L22.0332 57.105C21.4595 57.4654 20.8966 57.8213 20.3446 58.1721L21.4176 59.86ZM24.8416 57.7092C25.3847 57.3721 25.9367 57.0313 26.4976 56.6871L25.4515 54.9825C24.8877 55.3285 24.3328 55.6711 23.7868 56.0099L24.8416 57.7092ZM28.1879 55.6557C28.7599 55.3087 29.3405 54.9585 29.9295 54.6053L28.901 52.89C28.309 53.245 27.7255 53.597 27.1505 53.9458L28.1879 55.6557ZM31.6379 53.5867C32.1948 53.2566 32.7587 52.9242 33.3295 52.5896L32.3182 50.8641C31.7444 51.2004 31.1777 51.5345 30.6181 51.8663L31.6379 53.5867ZM35.063 51.5793C35.6477 51.2405 36.2393 50.8997 36.8378 50.557L35.8439 48.8214C35.2425 49.1658 34.6479 49.5083 34.0603 49.8488L35.063 51.5793ZM38.5298 49.5935C39.0988 49.2713 39.6736 48.9476 40.2542 48.6226L39.2772 46.8774C38.6938 47.204 38.1161 47.5293 37.5443 47.8531L38.5298 49.5935ZM42.0132 47.6436C42.6013 47.3182 43.1949 46.9916 43.7942 46.6639L42.8346 44.9091C42.2325 45.2384 41.6359 45.5666 41.0449 45.8936L42.0132 47.6436ZM45.5106 45.7307C46.0877 45.4187 46.6697 45.1059 47.2565 44.7924L46.314 43.0284C45.7243 43.3435 45.1394 43.6578 44.5595 43.9713L45.5106 45.7307ZM49.0316 43.8496C49.6282 43.5346 50.2295 43.2191 50.8356 42.903L49.9107 41.1297C49.3016 41.4473 48.6973 41.7645 48.0979 42.0809L49.0316 43.8496ZM52.5716 42.0029C53.1544 41.7024 53.7415 41.4016 54.3328 41.1005L53.4252 39.3183C52.831 39.6209 52.241 39.9232 51.6552 40.2251L52.5716 42.0029ZM56.1191 40.1964C56.7187 39.8948 57.3223 39.593 57.9301 39.2911L57.0403 37.4999C56.4295 37.8033 55.8229 38.1066 55.2203 38.4097L56.1191 40.1964ZM59.7097 38.4125C60.2971 38.1243 60.8883 37.8361 61.483 37.548L60.6109 35.7481C60.0132 36.0377 59.4192 36.3273 58.8288 36.617L59.7097 38.4125ZM63.278 36.6838C63.8799 36.3959 64.4855 36.1081 65.0945 35.8205L64.2406 34.0119C63.6285 34.301 63.0199 34.5902 62.415 34.8796L63.278 36.6838ZM66.9239 34.9625C67.5153 34.6869 68.1099 34.4117 68.7076 34.1368L67.872 32.3197C67.2712 32.596 66.6736 32.8726 66.0792 33.1496L66.9239 34.9625ZM70.5105 33.3132C71.1146 33.0391 71.7218 32.7654 72.3322 32.4922L71.5151 30.6668C70.9016 30.9414 70.2912 31.2165 69.684 31.492L70.5105 33.3132ZM74.1726 31.6742C74.781 31.4057 75.3924 31.1377 76.0068 30.8703L75.2087 29.0365C74.5911 29.3052 73.9765 29.5746 73.365 29.8445L74.1726 31.6742ZM77.8173 30.0879C78.4236 29.8277 79.0327 29.5682 79.6446 29.3094L78.8655 27.4674C78.2504 27.7276 77.6381 27.9884 77.0286 28.25L77.8173 30.0879ZM81.4884 28.5352C82.1058 28.278 82.7259 28.0214 83.3486 27.7658L82.5891 25.9156C81.963 26.1726 81.3397 26.4305 80.719 26.6892L81.4884 28.5352ZM85.198 27.0123C85.8067 26.7662 86.4179 26.521 87.0315 26.2766L86.2917 24.4185C85.6748 24.6642 85.0603 24.9107 84.4483 25.1581L85.198 27.0123ZM88.8799 25.5464C89.4985 25.304 90.1195 25.0625 90.7429 24.822L90.0232 22.956C89.3964 23.1978 88.772 23.4406 88.1501 23.6844L88.8799 25.5464ZM92.6204 24.1038C93.2418 23.8681 93.8655 23.6334 94.4916 23.3998L93.7925 21.526C93.1629 21.7608 92.5358 21.9968 91.9109 22.2339L92.6204 24.1038ZM96.3455 22.7138C96.9657 22.4863 97.5881 22.2599 98.2126 22.0347L97.5342 20.1533C96.9062 20.3798 96.2803 20.6074 95.6567 20.8362L96.3455 22.7138ZM100.093 21.3627C100.722 21.14 101.353 20.9184 101.986 20.6982L101.329 18.8092C100.692 19.0307 100.057 19.2535 99.425 19.4775L100.093 21.3627ZM103.883 20.0444C104.505 19.832 105.129 19.6209 105.755 19.411L105.12 17.5147C104.49 17.7257 103.862 17.9381 103.236 18.1517L103.883 20.0444ZM107.639 18.7856C108.269 18.5786 108.901 18.3728 109.535 18.1686L108.922 16.265C108.284 16.4705 107.648 16.6774 107.015 16.8857L107.639 18.7856ZM111.442 17.5601C112.08 17.3588 112.719 17.1589 113.361 16.9606L112.77 15.0498C112.125 15.2493 111.481 15.4504 110.84 15.6529L111.442 17.5601ZM115.256 16.3807C115.887 16.1895 116.521 15.9998 117.156 15.8117L116.588 13.894C115.949 14.0833 115.312 14.2741 114.676 14.4665L115.256 16.3807ZM119.066 15.252C119.705 15.0671 120.345 14.8837 120.987 14.7021L120.442 12.7777C119.796 12.9605 119.152 13.1449 118.51 13.331L119.066 15.252ZM122.917 14.1621C123.558 13.9851 124.2 13.8098 124.843 13.6362L124.322 11.7052C123.675 11.8799 123.029 12.0563 122.385 12.2343L122.917 14.1621ZM126.758 13.1263C127.397 12.958 128.039 12.7915 128.681 12.6267L128.185 10.6894C127.538 10.8552 126.893 11.0227 126.249 11.1921L126.758 13.1263ZM130.614 12.1378C131.26 11.9767 131.907 11.8173 132.556 11.6598L132.085 9.71626C131.432 9.87476 130.78 10.0351 130.13 10.1973L130.614 12.1378ZM134.507 11.193C135.15 11.0415 135.794 10.8918 136.439 10.744L135.993 8.79442C135.343 8.9432 134.695 9.09388 134.048 9.24642L134.507 11.193ZM138.375 10.3072C139.022 10.1636 139.67 10.0219 140.319 9.8821L139.899 7.92686C139.245 8.06755 138.592 8.21022 137.941 8.35483L138.375 10.3072ZM142.272 9.46879C142.924 9.33302 143.577 9.19927 144.232 9.06757L143.837 7.10685C143.178 7.23944 142.52 7.3741 141.864 7.51078L142.272 9.46879ZM146.193 8.67992C146.841 8.55421 147.49 8.43054 148.14 8.30895L147.773 6.34303C147.118 6.46546 146.464 6.58999 145.812 6.71655L146.193 8.67992ZM150.094 7.95044C150.747 7.83304 151.401 7.71776 152.056 7.60463L151.715 5.63381C151.056 5.74773 150.397 5.86382 149.74 5.98204L150.094 7.95044ZM154.024 7.27176C154.682 7.16299 155.34 7.05641 156 6.95207L155.687 4.97663C155.023 5.08172 154.36 5.18905 153.698 5.29859L154.024 7.27176ZM157.969 6.64779C158.622 6.54926 159.276 6.45294 159.931 6.35888L159.647 4.37917C158.987 4.47392 158.328 4.57093 157.67 4.67017L157.969 6.64779ZM161.9 6.0835C162.557 5.99399 163.216 5.90677 163.875 5.82188L163.62 3.83825C162.955 3.92376 162.292 4.01162 161.63 4.10179L161.9 6.0835ZM165.856 5.57425C166.518 5.49407 167.18 5.41626 167.844 5.34085L167.618 3.35365C166.949 3.42962 166.282 3.50801 165.616 3.58879L165.856 5.57425ZM169.82 5.12374C170.477 5.05402 171.135 4.98669 171.794 4.92178L171.598 2.93141C170.934 2.99681 170.271 3.06466 169.609 3.1349L169.82 5.12374ZM173.774 4.73437C174.434 4.67435 175.096 4.61679 175.759 4.56173L175.593 2.5686C174.925 2.62408 174.259 2.68209 173.593 2.74257L173.774 4.73437ZM177.749 4.40407C178.414 4.35404 179.079 4.30654 179.745 4.26162L179.61 2.26616C178.939 2.31143 178.268 2.3593 177.599 2.40972L177.749 4.40407ZM181.726 4.13578C182.386 4.09647 183.046 4.05969 183.707 4.0255L183.604 2.02817C182.938 2.06263 182.272 2.0997 181.607 2.13933L181.726 4.13578ZM185.694 3.93072C186.357 3.90173 187.02 3.87536 187.685 3.85165L187.614 1.85292C186.944 1.87683 186.275 1.90341 185.607 1.93263L185.694 3.93072ZM189.68 3.7885C190.346 3.77013 191.013 3.75445 191.68 3.74149L191.642 1.74187C190.969 1.75493 190.297 1.77074 189.625 1.78926L189.68 3.7885ZM193.664 3.71107C194.324 3.70363 194.986 3.69889 195.648 3.69688L195.642 1.69689C194.974 1.69892 194.307 1.7037 193.641 1.7112L193.664 3.71107ZM197.636 3.69907C198.3 3.70255 198.964 3.7088 199.629 3.71785L199.656 1.71803C198.986 1.70891 198.316 1.70261 197.647 1.6991L197.636 3.69907ZM201.625 3.75342C202.291 3.7681 202.957 3.78561 203.624 3.80599L203.685 1.80692C203.013 1.78637 202.34 1.76871 201.669 1.7539L201.625 3.75342ZM205.606 3.87493C206.266 3.9007 206.927 3.9293 207.588 3.96076L207.683 1.96302C207.016 1.93129 206.35 1.90244 205.684 1.87645L205.606 3.87493ZM209.573 4.06378C210.235 4.101 210.898 4.14113 211.561 4.18418L211.691 2.18838C211.022 2.14495 210.353 2.10448 209.685 2.06693L209.573 4.06378ZM213.552 4.32216C214.217 4.37111 214.881 4.42302 215.547 4.47793L215.711 2.48471C215.04 2.42932 214.37 2.37695 213.699 2.32757L213.552 4.32216ZM217.523 4.6498C218.18 4.70987 218.838 4.77289 219.496 4.8389L219.696 2.84888C219.032 2.78229 218.368 2.7187 217.705 2.6581L217.523 4.6498ZM221.472 5.04589C222.131 5.11789 222.791 5.19291 223.451 5.27097L223.686 3.28482C223.02 3.20606 222.354 3.13037 221.69 3.05772L221.472 5.04589ZM225.431 5.51433C226.092 5.59851 226.753 5.68578 227.414 5.77615L227.685 3.79457C227.018 3.70338 226.351 3.61532 225.684 3.53037L225.431 5.51433ZM229.382 6.05407C230.034 6.14925 230.687 6.24747 231.34 6.34877L231.647 4.37241C230.988 4.27018 230.329 4.17106 229.671 4.07502L229.382 6.05407ZM233.3 6.66196C233.954 6.76946 234.608 6.88007 235.262 6.99383L235.605 5.02339C234.945 4.90858 234.285 4.79695 233.625 4.68847L233.3 6.66196ZM237.226 7.34455C237.881 7.46462 238.536 7.58787 239.191 7.71431L239.57 5.75053C238.909 5.62291 238.248 5.49853 237.587 5.37735L237.226 7.34455ZM241.147 8.10104C241.792 8.23173 242.438 8.36555 243.083 8.50253L243.499 6.54608C242.847 6.40782 242.195 6.27276 241.544 6.14085L241.147 8.10104ZM245.021 8.92298C245.667 9.06631 246.313 9.21283 246.96 9.36256L247.411 7.41414C246.759 7.26301 246.106 7.11512 245.454 6.97045L245.021 8.92298ZM248.9 9.82145C249.547 9.97764 250.194 10.1371 250.841 10.2998L251.328 8.36019C250.675 8.19594 250.022 8.03499 249.369 7.87733L248.9 9.82145ZM252.783 10.7978C253.418 10.9641 254.054 11.1335 254.69 11.3061L255.214 9.37597C254.572 9.20171 253.93 9.03069 253.289 8.86289L252.783 10.7978ZM256.598 11.8335C257.234 12.0126 257.87 12.1948 258.506 12.3804L259.066 10.4604C258.424 10.2731 257.782 10.0891 257.14 9.90836L256.598 11.8335ZM260.415 12.9468C261.051 13.1389 261.688 13.3344 262.324 13.5331L262.92 11.624C262.278 11.4233 261.635 11.2261 260.993 11.0322L260.415 12.9468ZM264.234 14.1392C264.552 14.2419 264.871 14.3455 265.189 14.4498L265.812 12.5494C265.491 12.444 265.169 12.3395 264.848 12.2358L264.234 14.1392ZM265.189 14.4498C265.509 14.5549 265.829 14.6603 266.148 14.7661L266.778 12.8676C266.456 12.7611 266.134 12.6551 265.812 12.5494L265.189 14.4498ZM268.059 15.4056C268.693 15.6203 269.326 15.8365 269.957 16.0542L270.609 14.1637C269.975 13.9446 269.338 13.727 268.699 13.511L268.059 15.4056ZM271.844 16.7119C272.472 16.9328 273.097 17.1552 273.721 17.3791L274.397 15.4966C273.769 15.2714 273.139 15.0476 272.508 14.8254L271.844 16.7119ZM275.617 18.0659C276.248 18.2963 276.876 18.5282 277.502 18.7615L278.2 16.8872C277.57 16.6525 276.938 16.4193 276.304 16.1875L275.617 18.0659ZM279.376 19.4657C279.999 19.7019 280.62 19.9395 281.24 20.1785L281.96 18.3125C281.337 18.0722 280.712 17.8332 280.086 17.5957L279.376 19.4657ZM283.111 20.9069C283.736 21.1524 284.36 21.3992 284.982 21.6473L285.723 19.7899C285.098 19.5403 284.471 19.2921 283.842 19.0453L283.111 20.9069ZM286.841 22.3959C287.459 22.6468 288.076 22.899 288.691 23.1525L289.453 21.3035C288.835 21.0486 288.215 20.795 287.593 20.5427L286.841 22.3959ZM290.539 23.9207C291.159 24.1803 291.777 24.4412 292.394 24.7034L293.176 22.8629C292.557 22.5993 291.935 22.337 291.312 22.076L290.539 23.9207ZM294.238 25.4937C294.852 25.7584 295.463 26.0243 296.073 26.2914L296.875 24.4594C296.262 24.1909 295.647 23.9235 295.031 23.6574L294.238 25.4937ZM297.901 27.0976C298.516 27.3704 299.128 27.6444 299.739 27.9196L300.561 26.0959C299.946 25.8193 299.33 25.5439 298.713 25.2697L297.901 27.0976ZM301.569 28.7486C302.177 29.0261 302.783 29.3047 303.389 29.5845L304.228 27.769C303.62 27.4879 303.01 27.2079 302.399 26.9291L301.569 28.7486ZM305.2 30.427C305.808 30.7117 306.415 30.9975 307.02 31.2843L307.877 29.4769C307.269 29.1888 306.659 28.9016 306.048 28.6156L305.2 30.427ZM308.834 32.1488C309.437 32.438 310.039 32.7282 310.64 33.0194L311.512 31.2199C310.909 30.9274 310.305 30.6359 309.699 30.3454L308.834 32.1488ZM312.437 33.8961C313.039 34.1913 313.64 34.4875 314.24 34.7847L315.128 32.9927C314.526 32.6943 313.922 32.3969 313.318 32.1003L312.437 33.8961ZM316.039 35.681C316.637 35.9807 317.234 36.2813 317.83 36.5828L318.733 34.7981C318.135 34.4955 317.535 34.1937 316.934 33.8928L316.039 35.681ZM319.615 37.4898C320.211 37.7945 320.807 38.1002 321.401 38.4066L322.318 36.6288C321.721 36.3213 321.123 36.0146 320.524 35.7086L319.615 37.4898ZM323.187 39.3309C323.781 39.6398 324.373 39.9495 324.965 40.2599L325.894 38.4887C325.3 38.1773 324.705 37.8665 324.109 37.5565L323.187 39.3309ZM326.738 41.1934C327.33 41.5064 327.921 41.8202 328.511 42.1347L329.452 40.3697C328.86 40.0542 328.267 39.7394 327.673 39.4253L326.738 41.1934ZM330.284 43.083C330.874 43.3998 331.463 43.7171 332.051 44.0352L333.002 42.2758C332.413 41.9569 331.822 41.6386 331.23 41.3209L330.284 43.083ZM333.813 44.9909C334.402 45.3111 334.989 45.6317 335.576 45.953L336.536 44.1988C335.948 43.8767 335.359 43.5552 334.769 43.2342L333.813 44.9909ZM337.338 46.921C337.925 47.2442 338.511 47.5679 339.096 47.8921L340.065 46.1425C339.478 45.8177 338.891 45.4932 338.303 45.1692L337.338 46.921ZM340.849 48.8659C341.435 49.1917 342.019 49.5179 342.603 49.8445L343.579 48.099C342.994 47.7718 342.409 47.445 341.822 47.1185L340.849 48.8659ZM344.357 50.828C344.941 51.1561 345.525 51.4847 346.108 51.8135L347.09 50.0716C346.506 49.7422 345.922 49.4131 345.337 49.0843L344.357 50.828ZM347.855 52.801C348.438 53.131 349.02 53.4613 349.602 53.7918L350.59 52.0528C350.007 51.7218 349.424 51.3911 348.84 51.0606L347.855 52.801ZM351.35 54.7862C351.933 55.1179 352.514 55.4497 353.096 55.7818L354.088 54.045C353.506 53.7126 352.923 53.3804 352.34 53.0483L351.35 54.7862ZM354.839 56.7783C355.421 57.1111 356.002 57.444 356.583 57.7769L357.578 56.0417C356.996 55.7086 356.415 55.3754 355.833 55.0424L354.839 56.7783ZM358.328 58.7776C358.909 59.1112 359.49 59.4449 360.071 59.7786L361.067 58.0444C360.486 57.7106 359.905 57.3768 359.323 57.043L358.328 58.7776ZM361.813 60.7796C362.394 61.1136 362.975 61.4475 363.556 61.7814L364.553 60.0474C363.972 59.7136 363.391 59.3796 362.81 59.0456L361.813 60.7796ZM365.3 62.7837C365.881 63.1178 366.462 63.4517 367.043 63.7854L368.039 62.0511C367.458 61.7174 366.877 61.3836 366.296 61.0497L365.3 62.7837ZM368.787 64.7862C369.368 65.1198 369.95 65.4532 370.531 65.7864L371.526 64.051C370.944 63.718 370.363 63.3848 369.782 63.0514L368.787 64.7862ZM372.277 66.7857C372.859 67.1186 373.442 67.4511 374.024 67.7834L375.015 66.0463C374.433 65.7143 373.852 65.3821 373.27 65.0495L372.277 66.7857ZM375.772 68.7792C376.354 69.1109 376.937 69.4421 377.521 69.773L378.508 68.0335C377.925 67.703 377.343 67.3722 376.761 67.041L375.772 68.7792ZM379.271 70.7645C379.855 71.0946 380.439 71.4243 381.024 71.7534L382.005 70.0108C381.422 69.6822 380.839 69.3531 380.256 69.0235L379.271 70.7645ZM382.778 72.7395C383.363 73.0676 383.948 73.3951 384.534 73.7221L385.509 71.9758C384.925 71.6494 384.34 71.3226 383.757 70.9951L382.778 72.7395ZM386.292 74.701C386.879 75.0267 387.465 75.3518 388.053 75.6763L389.02 73.9257C388.434 73.6019 387.848 73.2776 387.263 72.9526L386.292 74.701ZM389.817 76.6479C390.405 76.9708 390.993 77.2929 391.582 77.6144L392.54 75.8588C391.953 75.5382 391.366 75.2169 390.78 74.8949L389.817 76.6479ZM393.35 78.5759C393.94 78.8957 394.53 79.2147 395.122 79.5329L396.07 77.7718C395.48 77.4545 394.891 77.1365 394.303 76.8176L393.35 78.5759ZM396.898 80.4852C397.489 80.8013 398.082 81.1165 398.675 81.4309L399.611 79.6637C399.02 79.3504 398.43 79.0362 397.84 78.7212L396.898 80.4852ZM400.455 82.3702C401.049 82.6825 401.643 82.9938 402.239 83.3042L403.163 81.5304C402.57 81.2212 401.977 80.911 401.385 80.5999L400.455 82.3702ZM404.029 84.2325C404.625 84.5402 405.222 84.8469 405.82 85.1526L406.731 83.3719C406.135 83.0674 405.54 82.7618 404.947 82.4553L404.029 84.2325ZM407.614 86.0651C408.213 86.3682 408.813 86.6703 409.414 86.9713L410.309 85.1831C409.711 84.8834 409.113 84.5826 408.517 84.2807L407.614 86.0651ZM411.219 87.871C411.821 88.1689 412.423 88.4656 413.026 88.7611L413.906 86.965C413.305 86.6708 412.706 86.3754 412.107 86.0789L411.219 87.871ZM414.835 89.6422C415.44 89.9347 416.045 90.2261 416.651 90.5162L417.514 88.7119C416.911 88.4232 416.308 88.1332 415.707 87.8421L414.835 89.6422ZM418.475 91.3828C419.082 91.6693 419.69 91.9546 420.299 92.2385L421.144 90.4258C420.538 90.1432 419.933 89.8594 419.329 89.5743L418.475 91.3828ZM422.125 93.0838C422.735 93.3643 423.346 93.6434 423.958 93.9212L424.784 92.0997C424.175 91.8234 423.567 91.5457 422.96 91.2667L422.125 93.0838ZM425.8 94.7504C426.413 95.0243 427.027 95.2968 427.643 95.5679L428.449 93.7375C427.837 93.4679 427.226 93.1969 426.616 92.9245L425.8 94.7504ZM429.486 96.3732C430.102 96.6403 430.719 96.9058 431.338 97.1699L432.123 95.3304C431.508 95.0679 430.894 94.8038 430.282 94.5383L429.486 96.3732ZM433.199 97.9577C433.818 98.2178 434.439 98.4764 435.062 98.7334L435.825 96.8847C435.206 96.6292 434.589 96.3722 433.973 96.1136L433.199 97.9577ZM436.922 99.4949C437.544 99.7473 438.167 99.998 438.792 100.247L439.533 98.3893C438.912 98.1417 438.292 97.8925 437.674 97.6417L436.922 99.4949ZM440.672 100.99C441.299 101.235 441.927 101.479 442.557 101.721L443.274 99.8536C442.648 99.6132 442.024 99.3711 441.401 99.1274L440.672 100.99ZM444.434 102.435C445.061 102.671 445.691 102.906 446.322 103.139L447.015 101.263C446.388 101.032 445.763 100.798 445.139 100.563L444.434 102.435ZM448.22 103.833C448.854 104.063 449.49 104.291 450.128 104.517L450.796 102.632C450.162 102.407 449.53 102.181 448.901 101.953L448.22 103.833ZM452.021 105.181C452.654 105.4 453.289 105.618 453.925 105.834L454.568 103.94C453.936 103.726 453.305 103.509 452.676 103.291L452.021 105.181ZM455.84 106.477C456.481 106.69 457.123 106.9 457.767 107.109L458.384 105.206C457.744 104.999 457.106 104.79 456.47 104.579L455.84 106.477ZM459.681 107.722C460.319 107.924 460.958 108.124 461.6 108.322L462.19 106.411C461.553 106.215 460.918 106.016 460.285 105.815L459.681 107.722ZM463.531 108.911C464.176 109.106 464.824 109.299 465.473 109.489L466.037 107.57C465.392 107.381 464.749 107.19 464.108 106.997L463.531 108.911ZM467.411 110.051C468.053 110.234 468.697 110.416 469.343 110.596L469.879 108.669C469.238 108.491 468.599 108.31 467.961 108.128L467.411 110.051ZM471.287 111.13C471.937 111.305 472.589 111.479 473.243 111.652L473.752 109.717C473.102 109.546 472.455 109.374 471.809 109.199L471.287 111.13ZM475.208 112.161C475.853 112.326 476.501 112.489 477.15 112.649L477.631 110.708C476.986 110.548 476.344 110.387 475.703 110.223L475.208 112.161ZM479.104 113.126C479.758 113.283 480.413 113.438 481.071 113.591L481.524 111.643C480.871 111.491 480.22 111.337 479.571 111.182L479.104 113.126ZM483.05 114.044C483.703 114.191 484.359 114.336 485.016 114.479L485.442 112.525C484.789 112.383 484.138 112.239 483.489 112.093L483.05 114.044ZM486.978 114.899C487.634 115.037 488.292 115.173 488.952 115.306L489.349 113.346C488.694 113.213 488.04 113.079 487.389 112.942L486.978 114.899ZM490.939 115.702C491.603 115.832 492.269 115.959 492.938 116.085L493.307 114.119C492.643 113.994 491.982 113.868 491.322 113.739L490.939 115.702ZM494.903 116.447C495.56 116.566 496.22 116.682 496.881 116.797L497.223 114.826C496.566 114.712 495.911 114.597 495.259 114.479L494.903 116.447ZM498.872 117.135C499.538 117.245 500.206 117.354 500.876 117.46L501.19 115.485C500.524 115.379 499.861 115.272 499.2 115.162L498.872 117.135ZM502.877 117.771C503.534 117.871 504.193 117.968 504.855 118.064L505.141 116.085C504.484 115.99 503.829 115.893 503.177 115.794L502.877 117.771ZM506.846 118.345C507.512 118.437 508.18 118.527 508.85 118.614L509.109 116.631C508.443 116.544 507.78 116.455 507.119 116.364L506.846 118.345ZM265.501 13.4996L266.124 11.5992L265.501 13.4996ZM512 118.001L493.545 104.119L490.75 127.043L512 118.001ZM2.00017 72.0022C3.23047 73.579 3.23045 73.579 3.23043 73.579C3.23042 73.579 3.2304 73.579 3.23039 73.579C3.23036 73.5791 3.23034 73.5791 3.23033 73.5791C3.2303 73.5791 3.23028 73.5791 3.23028 73.5791C3.23027 73.5791 3.23032 73.5791 3.23043 73.579C3.23066 73.5788 3.23111 73.5785 3.2318 73.5779C3.23318 73.5769 3.23549 73.5751 3.23874 73.5725C3.24523 73.5675 3.25545 73.5596 3.26938 73.5488C3.29723 73.5272 3.33992 73.4943 3.39728 73.4502C3.51201 73.3621 3.68542 73.2296 3.91626 73.0552L1.50481 69.8638C1.26545 70.0446 1.08369 70.1835 0.960776 70.2779C0.899321 70.3251 0.852579 70.3612 0.820709 70.3859C0.804775 70.3982 0.792558 70.4077 0.784078 70.4143C0.779838 70.4176 0.776533 70.4201 0.774165 70.422C0.77298 70.4229 0.77203 70.4237 0.771315 70.4242C0.770957 70.4245 0.770658 70.4247 0.770418 70.4249C0.770298 70.425 0.770192 70.4251 0.770101 70.4252C0.770056 70.4252 0.770014 70.4252 0.769976 70.4253C0.769957 70.4253 0.769931 70.4253 0.769921 70.4253C0.769896 70.4253 0.769872 70.4253 2.00017 72.0022ZM5.49718 71.8786C5.96762 71.5329 6.50929 71.1384 7.12036 70.6986L4.78362 67.4521C4.16175 67.8997 3.60951 68.3019 3.12876 68.6551L5.49718 71.8786ZM8.77179 69.5206C9.26539 69.1715 9.79051 68.8028 10.3466 68.4155L8.06042 65.1332C7.49646 65.526 6.96355 65.9002 6.4623 66.2547L8.77179 69.5206ZM12.0423 67.2434C12.5502 66.8949 13.0789 66.5345 13.6278 66.1629L11.3854 62.8505C10.8295 63.2269 10.2941 63.5919 9.77945 63.945L12.0423 67.2434ZM15.3034 65.0363C15.8377 64.6794 16.3885 64.3137 16.9557 63.9397L14.7536 60.6004C14.1798 60.9788 13.6224 61.3488 13.0816 61.71L15.3034 65.0363ZM18.5978 62.8635C19.1594 62.4977 19.7352 62.1249 20.3249 61.7456L18.1611 58.3814C17.5649 58.7649 16.9826 59.1418 16.4146 59.5118L18.5978 62.8635ZM21.9541 60.7039C22.5016 60.3558 23.06 60.0028 23.6292 59.6452L21.5013 56.2582C20.926 56.6196 20.3616 56.9764 19.8081 57.3282L21.9541 60.7039ZM25.369 58.5588C25.9106 58.2226 26.4612 57.8827 27.0207 57.5394L24.9285 54.1302C24.3632 54.4771 23.8068 54.8205 23.2595 55.1603L25.369 58.5588ZM28.7066 56.5107C29.2772 56.1645 29.8562 55.8152 30.4437 55.4629L28.3867 52.0324C27.7932 52.3882 27.2082 52.7411 26.6318 53.0908L28.7066 56.5107ZM32.1479 54.4469C32.7033 54.1177 33.2658 53.7861 33.8352 53.4523L31.8125 50.0014C31.2373 50.3385 30.6692 50.6735 30.1081 51.0061L32.1479 54.4469ZM35.5643 52.4446C36.1476 52.1066 36.7378 51.7666 37.3347 51.4248L35.347 47.9536C34.7441 48.2989 34.148 48.6422 33.5589 48.9836L35.5643 52.4446ZM39.0225 50.4636C39.5901 50.1422 40.1635 49.8194 40.7427 49.4951L38.7887 46.0048C38.2038 46.3323 37.6248 46.6584 37.0515 46.9829L39.0225 50.4636ZM42.4973 48.5185C43.084 48.1939 43.6762 47.8682 44.2739 47.5413L42.3549 44.0317C41.7512 44.3618 41.1531 44.6908 40.5607 45.0186L42.4973 48.5185ZM45.9861 46.6104C46.5618 46.2992 47.1424 45.9872 47.7278 45.6744L45.8428 42.1464C45.2516 42.4622 44.6653 42.7774 44.084 43.0916L45.9861 46.6104ZM49.4985 44.7339C50.0936 44.4197 50.6934 44.1049 51.298 43.7896L49.4483 40.243C48.8377 40.5614 48.2319 40.8794 47.631 41.1966L49.4985 44.7339ZM53.0297 42.8917C53.6112 42.5921 54.1968 42.292 54.7866 41.9916L52.9714 38.4272C52.3757 38.7305 51.7843 39.0336 51.1971 39.3363L53.0297 42.8917ZM56.5685 41.0897C57.1665 40.7889 57.7687 40.4878 58.375 40.1867L56.5954 36.6043C55.9831 36.9085 55.375 37.2125 54.771 37.5164L56.5685 41.0897ZM60.1502 39.3103C60.7361 39.0228 61.3258 38.7353 61.919 38.4479L60.1749 34.8482C59.5757 35.1385 58.9802 35.4289 58.3883 35.7192L60.1502 39.3103ZM63.7095 37.5859C64.31 37.2987 64.9139 37.0116 65.5215 36.7248L63.8137 33.1077C63.2 33.3974 62.5899 33.6874 61.9834 33.9775L63.7095 37.5859ZM67.3462 35.8689C67.9361 35.5941 68.5292 35.3195 69.1254 35.0453L67.4542 31.4112C66.8519 31.6882 66.2528 31.9655 65.6569 32.2431L67.3462 35.8689ZM70.9237 34.2239C71.5262 33.9505 72.1319 33.6775 72.7407 33.405L71.1066 29.754C70.4915 30.0293 69.8796 30.3051 69.2708 30.5813L70.9237 34.2239ZM74.5764 32.5891C75.1832 32.3212 75.793 32.0539 76.4058 31.7873L74.8096 28.1195C74.1905 28.389 73.5743 28.6591 72.9612 28.9297L74.5764 32.5891ZM78.2116 31.0069C78.8163 30.7474 79.4239 30.4885 80.0341 30.2304L78.4759 26.5464C77.8592 26.8072 77.2453 27.0688 76.6343 27.331L78.2116 31.0069ZM81.8731 29.4583C82.4888 29.2017 83.1073 28.9458 83.7284 28.6909L82.2094 24.9905C81.5816 25.2482 80.9566 25.5068 80.3343 25.7661L81.8731 29.4583ZM85.5728 27.9394C86.1799 27.694 86.7894 27.4494 87.4015 27.2057L85.9218 23.4894C85.3032 23.7357 84.6871 23.983 84.0735 24.231L85.5728 27.9394ZM89.2448 26.4775C89.8617 26.2357 90.4811 25.9948 91.1028 25.755L89.6633 22.023C89.0348 22.2654 88.4087 22.5089 87.7851 22.7533L89.2448 26.4775ZM92.9751 25.0388C93.5948 24.8037 94.2168 24.5696 94.8411 24.3367L93.4429 20.589C92.8116 20.8246 92.1827 21.0612 91.5562 21.2989L92.9751 25.0388ZM96.6899 23.6527C97.3084 23.4258 97.9291 23.2 98.5519 22.9754L97.195 19.2126C96.5652 19.4397 95.9376 19.668 95.3123 19.8974L96.6899 23.6527ZM100.427 22.3053C101.054 22.0832 101.683 21.8623 102.314 21.6427L101 17.8647C100.362 18.0869 99.7252 18.3103 99.091 18.5349L100.427 22.3053ZM104.206 20.9908C104.826 20.779 105.449 20.5684 106.073 20.3592L104.802 16.5665C104.17 16.7781 103.541 16.9911 102.913 17.2054L104.206 20.9908ZM107.952 19.7356C108.58 19.5292 109.21 19.324 109.842 19.1204L108.615 15.3132C107.975 15.5193 107.338 15.7268 106.702 15.9357L107.952 19.7356ZM111.743 18.5137C112.379 18.3129 113.017 18.1137 113.656 17.9159L112.475 14.0945C111.827 14.2946 111.182 14.4962 110.539 14.6994L111.743 18.5137ZM115.546 17.3378C116.175 17.1472 116.807 16.958 117.44 16.7705L116.304 12.9352C115.663 13.1251 115.024 13.3165 114.387 13.5094L115.546 17.3378ZM119.344 16.2126C119.981 16.0282 120.619 15.8454 121.259 15.6643L120.17 11.8155C119.522 11.9988 118.876 12.1839 118.231 12.3705L119.344 16.2126ZM123.184 15.1259C123.822 14.9495 124.462 14.7748 125.104 14.6017L124.062 10.7397C123.412 10.9149 122.764 11.0918 122.118 11.2705L123.184 15.1259ZM127.012 14.0934C127.65 13.9257 128.289 13.7596 128.93 13.5954L127.937 9.72067C127.288 9.887 126.64 10.0551 125.995 10.225L127.012 14.0934ZM130.856 13.1081C131.5 12.9474 132.145 12.7886 132.792 12.6316L131.849 8.74448C131.194 8.90349 130.54 9.06437 129.888 9.22708L130.856 13.1081ZM134.737 12.1663C135.377 12.0153 136.019 11.866 136.662 11.7187L135.769 7.81966C135.118 7.96892 134.467 8.12009 133.818 8.27313L134.737 12.1663ZM138.592 11.2834C139.237 11.1403 139.882 10.999 140.53 10.8597L139.688 6.94925C139.032 7.0904 138.378 7.23354 137.725 7.37862L138.592 11.2834ZM142.475 10.4478C143.125 10.3125 143.777 10.1792 144.429 10.0479L143.64 6.12648C142.979 6.25953 142.319 6.39464 141.66 6.53178L142.475 10.4478ZM146.384 9.6616C147.029 9.53633 147.676 9.41308 148.324 9.29191L147.589 5.36007C146.932 5.48293 146.276 5.60787 145.622 5.73487L146.384 9.6616ZM150.271 8.93464C150.922 8.81765 151.573 8.70277 152.226 8.59004L151.545 4.6484C150.883 4.76272 150.223 4.87921 149.563 4.99784L150.271 8.93464ZM154.188 8.25834C154.842 8.14995 155.499 8.04376 156.156 7.93979L155.531 3.98891C154.864 4.09437 154.199 4.20208 153.534 4.31201L154.188 8.25834ZM158.118 7.6366C158.769 7.53842 159.42 7.44245 160.073 7.34873L159.505 3.38932C158.842 3.48441 158.181 3.58177 157.521 3.68136L158.118 7.6366ZM162.035 7.07435C162.69 6.98517 163.346 6.89827 164.003 6.8137L163.492 2.84643C162.825 2.93226 162.16 3.02044 161.495 3.11093L162.035 7.07435ZM165.977 6.56699C166.636 6.4871 167.296 6.40958 167.957 6.33446L167.505 2.36005C166.834 2.4363 166.164 2.51498 165.495 2.59606L165.977 6.56699ZM169.925 6.11816C170.58 6.0487 171.235 5.98163 171.892 5.91697L171.5 1.93623C170.833 2.00188 170.168 2.06997 169.503 2.14048L169.925 6.11816ZM173.864 5.73027C174.522 5.67048 175.181 5.61314 175.842 5.55829L175.51 1.57203C174.84 1.62773 174.171 1.68596 173.502 1.74667L173.864 5.73027ZM177.824 5.40125C178.486 5.35141 179.149 5.3041 179.812 5.25936L179.543 1.26842C178.869 1.31387 178.196 1.36192 177.524 1.41254L177.824 5.40125ZM181.785 5.13401C182.442 5.09485 183.1 5.05822 183.759 5.02417L183.553 1.0295C182.883 1.0641 182.215 1.10131 181.547 1.1411L181.785 5.13401ZM185.738 4.92977C186.398 4.90089 187.059 4.87463 187.721 4.85101L187.578 0.853557C186.905 0.877559 186.234 0.904248 185.563 0.933585L185.738 4.92977ZM189.708 4.78812C190.371 4.76982 191.035 4.75421 191.7 4.7413L191.622 0.742057C190.947 0.755171 190.272 0.771045 189.598 0.789641L189.708 4.78812ZM193.675 4.71101C194.333 4.7036 194.992 4.69888 195.651 4.69688L195.639 0.696895C194.968 0.698931 194.299 0.703733 193.63 0.711262L193.675 4.71101ZM197.631 4.69906C198.292 4.70253 198.953 4.70875 199.615 4.71775L199.669 0.718125C198.996 0.708965 198.324 0.702639 197.652 0.699112L197.631 4.69906ZM201.603 4.75318C202.266 4.76779 202.929 4.78523 203.594 4.80552L203.716 0.807389C203.04 0.786749 202.365 0.769012 201.691 0.754147L201.603 4.75318ZM205.567 4.87417C206.224 4.89983 206.882 4.9283 207.54 4.95963L207.73 0.964154C207.061 0.932284 206.392 0.903316 205.723 0.877216L205.567 4.87417ZM209.517 5.0622C210.176 5.09927 210.836 5.13921 211.496 5.18208L211.756 1.19048C211.084 1.14686 210.412 1.10622 209.741 1.06851L209.517 5.0622ZM213.479 5.31946C214.14 5.36819 214.802 5.41987 215.464 5.47454L215.793 1.4881C215.119 1.43246 214.446 1.37987 213.773 1.33028L213.479 5.31946ZM217.432 5.64565C218.087 5.70546 218.741 5.7682 219.397 5.83391L219.796 1.85387C219.129 1.78698 218.462 1.72312 217.796 1.66225L217.432 5.64565ZM221.364 6.03998C222.02 6.11165 222.676 6.18634 223.333 6.26405L223.803 2.29175C223.134 2.21263 222.466 2.13661 221.798 2.06364L221.364 6.03998ZM225.305 6.5063C225.963 6.59011 226.621 6.67698 227.279 6.76695L227.82 2.80378C227.15 2.71217 226.48 2.62372 225.811 2.53839L225.305 6.5063ZM229.237 7.0436C229.887 7.13834 230.537 7.23611 231.187 7.33696L231.8 3.38423C231.138 3.28153 230.476 3.18196 229.815 3.08549L229.237 7.0436ZM233.138 7.64871C233.789 7.75571 234.44 7.86582 235.091 7.97905L235.776 4.03816C235.113 3.92284 234.45 3.8107 233.787 3.70172L233.138 7.64871ZM237.046 8.32816C237.698 8.44767 238.35 8.57034 239.002 8.6962L239.76 4.76864C239.095 4.64043 238.431 4.51548 237.767 4.39374L237.046 8.32816ZM240.949 9.08114C241.591 9.21122 242.233 9.34442 242.876 9.48076L243.706 5.56785C243.051 5.42896 242.397 5.29327 241.743 5.16075L240.949 9.08114ZM244.804 9.89924C245.447 10.0419 246.091 10.1877 246.734 10.3368L247.637 6.43994C246.981 6.2881 246.326 6.13952 245.671 5.99419L244.804 9.89924ZM248.665 10.7935C249.309 10.949 249.953 11.1077 250.597 11.2696L251.572 7.39038C250.916 7.22536 250.26 7.06367 249.604 6.90527L248.665 10.7935ZM252.53 11.7653C253.162 11.9308 253.795 12.0994 254.428 12.2712L255.476 8.4109C254.831 8.23582 254.186 8.06401 253.541 7.89543L252.53 11.7653ZM256.327 12.7961C256.96 12.9743 257.593 13.1557 258.226 13.3404L259.346 9.50037C258.701 9.31219 258.056 9.12734 257.411 8.94577L256.327 12.7961ZM260.126 13.9042C260.759 14.0954 261.393 14.2899 262.026 14.4876L263.218 10.6694C262.573 10.4678 261.927 10.2697 261.282 10.0748L260.126 13.9042ZM263.927 15.0909C264.244 15.1931 264.561 15.2962 264.877 15.4001L266.124 11.5992C265.801 11.4933 265.478 11.3883 265.155 11.2842L263.927 15.0909ZM264.877 15.4001C265.197 15.5048 265.516 15.6099 265.834 15.7153L267.092 11.9183C266.77 11.8115 266.447 11.7052 266.124 11.5992L264.877 15.4001ZM267.738 16.3528C268.371 16.5669 269.002 16.7824 269.631 16.9995L270.936 13.2184C270.299 12.9986 269.66 12.7804 269.02 12.5637L267.738 16.3528ZM271.512 17.6552C272.138 17.8755 272.761 18.0972 273.384 18.3203L274.734 14.5553C274.105 14.3294 273.473 14.105 272.84 13.8821L271.512 17.6552ZM275.274 19.0051C275.902 19.2348 276.529 19.466 277.153 19.6986L278.549 15.9501C277.917 15.7147 277.283 15.4808 276.648 15.2483L275.274 19.0051ZM279.022 20.4008C279.643 20.6363 280.262 20.8731 280.88 21.1114L282.32 17.3796C281.695 17.1385 281.068 16.8989 280.44 16.6606L279.022 20.4008ZM282.746 21.8378C283.369 22.0825 283.991 22.3286 284.611 22.5761L286.094 18.8612C285.467 18.6109 284.838 18.3619 284.208 18.1144L282.746 21.8378ZM286.465 23.3225C287.082 23.5727 287.696 23.8242 288.309 24.077L289.834 20.379C289.214 20.1234 288.593 19.8691 287.969 19.6161L286.465 23.3225ZM290.153 24.8431C290.771 25.102 291.388 25.3622 292.002 25.6236L293.568 21.9427C292.946 21.6784 292.323 21.4153 291.698 21.1536L290.153 24.8431ZM293.842 26.4118C294.454 26.6758 295.064 26.941 295.672 27.2075L297.277 23.5434C296.662 23.2741 296.045 23.0061 295.427 22.7393L293.842 26.4118ZM297.495 28.0115C298.108 28.2836 298.719 28.5569 299.329 28.8314L300.971 25.184C300.355 24.9068 299.738 24.6307 299.119 24.3558L297.495 28.0115ZM301.153 29.6584C301.76 29.9352 302.365 30.2132 302.969 30.4922L304.647 26.8613C304.038 26.5795 303.427 26.2988 302.814 26.0193L301.153 29.6584ZM304.776 31.3327C305.383 31.6167 305.988 31.9018 306.592 32.188L308.305 28.5732C307.695 28.2844 307.084 27.9966 306.472 27.7099L304.776 31.3327ZM308.402 33.0505C309.004 33.3391 309.604 33.6286 310.203 33.9192L311.949 30.3201C311.344 30.027 310.738 29.7348 310.131 29.4436L308.402 33.0505ZM311.997 34.7939C312.598 35.0885 313.197 35.3841 313.796 35.6807L315.572 32.0968C314.969 31.7977 314.364 31.4996 313.758 31.2025L311.997 34.7939ZM315.591 36.5752C316.188 36.8742 316.784 37.1742 317.379 37.4751L319.184 33.9058C318.585 33.6025 317.984 33.3001 317.382 32.9986L315.591 36.5752ZM319.16 38.3804C319.755 38.6845 320.35 38.9896 320.943 39.2954L322.776 35.74C322.178 35.4319 321.579 35.1246 320.979 34.8181L319.16 38.3804ZM322.725 40.2181C323.318 40.5264 323.91 40.8356 324.501 41.1455L326.359 37.6032C325.764 37.2912 325.168 36.9799 324.571 36.6693L322.725 40.2181ZM326.27 42.0774C326.861 42.3899 327.452 42.7032 328.041 43.0172L329.922 39.4871C329.329 39.1712 328.735 38.8559 328.14 38.5413L326.27 42.0774ZM329.811 43.9641C330.4 44.2803 330.988 44.5973 331.576 44.9148L333.478 41.3961C332.887 41.0768 332.296 40.758 331.703 40.4398L329.811 43.9641ZM333.335 45.8693C333.923 46.189 334.509 46.5092 335.095 46.8301L337.016 43.3217C336.428 42.9992 335.838 42.6773 335.247 42.3559L333.335 45.8693ZM336.855 47.7969C337.442 48.1197 338.027 48.4431 338.611 48.7668L340.55 45.2678C339.962 44.9425 339.374 44.6177 338.785 44.2933L336.855 47.7969ZM340.363 49.7396C340.948 50.0651 341.531 50.391 342.115 50.7172L344.068 47.2263C343.482 46.8988 342.896 46.5716 342.309 46.2448L340.363 49.7396ZM343.867 51.6998C344.451 52.0277 345.034 52.3559 345.616 52.6845L347.582 49.2006C346.997 48.871 346.412 48.5416 345.827 48.2125L343.867 51.6998ZM347.362 53.6712C347.945 54.001 348.527 54.331 349.108 54.6614L351.084 51.1832C350.501 50.8521 349.917 50.5211 349.333 50.1903L347.362 53.6712ZM350.855 55.6551C351.437 55.9866 352.019 56.3183 352.6 56.6502L354.583 53.1766C354.001 52.844 353.418 52.5117 352.835 52.1794L350.855 55.6551ZM354.343 57.6463C354.924 57.9789 355.505 58.3117 356.086 58.6445L358.075 55.1741C357.493 54.8409 356.911 54.5076 356.329 54.1744L354.343 57.6463ZM357.83 59.6449C358.411 59.9785 358.992 60.3121 359.573 60.6457L361.565 57.1772C360.984 56.8434 360.403 56.5095 359.821 56.1757L357.83 59.6449ZM361.315 61.6466C361.896 61.9806 362.477 62.3145 363.057 62.6483L365.051 59.1804C364.47 58.8466 363.889 58.5126 363.308 58.1786L361.315 61.6466ZM364.802 63.6508C365.383 63.9848 365.964 64.3188 366.545 64.6526L368.537 61.1839C367.957 60.8503 367.376 60.5166 366.795 60.1826L364.802 63.6508ZM368.289 65.6536C368.871 65.9873 369.453 66.3208 370.034 66.6541L372.023 63.1833C371.442 62.8505 370.861 62.5174 370.28 62.184L368.289 65.6536ZM371.781 67.6538C372.363 67.9868 372.946 68.3195 373.528 68.652L375.511 65.1777C374.929 64.8459 374.348 64.5138 373.767 64.1814L371.781 67.6538ZM375.277 69.6484C375.86 69.9802 376.444 70.3117 377.027 70.6428L379.001 67.1637C378.419 66.8335 377.837 66.5029 377.255 66.1718L375.277 69.6484ZM378.779 71.635C379.363 71.9654 379.948 72.2953 380.533 72.6247L382.496 69.1395C381.913 68.8112 381.33 68.4823 380.748 68.153L378.779 71.635ZM382.289 73.6117C382.875 73.9401 383.46 74.2679 384.047 74.5953L385.996 71.1026C385.413 70.7766 384.829 70.45 384.246 70.1229L382.289 73.6117ZM385.807 75.5752C386.394 75.9013 386.981 76.2268 387.569 76.5517L389.504 73.0503C388.918 72.727 388.333 72.403 387.749 72.0784L385.807 75.5752ZM389.336 77.5244C389.924 77.8477 390.513 78.1703 391.103 78.4922L393.019 74.981C392.433 74.6609 391.847 74.3399 391.261 74.0183L389.336 77.5244ZM392.873 79.4551C393.464 79.7753 394.056 80.0948 394.648 80.4135L396.544 76.8913C395.955 76.5745 395.367 76.2569 394.78 75.9385L392.873 79.4551ZM396.426 81.3673C397.019 81.6838 397.612 81.9996 398.207 82.3145L400.08 78.7802C399.489 78.4674 398.9 78.1537 398.311 77.8391L396.426 81.3673ZM399.989 83.2554C400.584 83.5682 401.18 83.8801 401.777 84.191L403.625 80.6436C403.033 80.3349 402.441 80.0253 401.85 79.7147L399.989 83.2554ZM403.571 85.1211C404.168 85.4294 404.766 85.7367 405.365 86.043L407.186 82.4815C406.591 82.1776 405.998 81.8727 405.405 81.5667L403.571 85.1211ZM407.162 86.9573C407.762 87.2611 408.363 87.5638 408.966 87.8654L410.757 84.289C410.16 83.9899 409.564 83.6897 408.969 83.3885L407.162 86.9573ZM410.776 88.7671C411.378 89.0656 411.982 89.3629 412.586 89.6592L414.346 86.067C413.747 85.7735 413.149 85.4787 412.551 85.1829L410.776 88.7671ZM414.4 90.5423C415.005 90.8355 415.612 91.1275 416.22 91.4183L417.946 87.8098C417.344 87.5217 416.743 87.2325 416.143 86.942L414.4 90.5423ZM418.048 92.287C418.656 92.5742 419.266 92.8602 419.876 93.1449L421.566 89.5194C420.962 89.2376 420.358 88.9544 419.756 88.67L418.048 92.287ZM421.707 93.9924C422.318 94.2736 422.931 94.5534 423.545 94.8319L425.197 91.189C424.59 90.9134 423.983 90.6365 423.378 90.3582L421.707 93.9924ZM425.392 95.6634C426.007 95.938 426.623 96.2113 427.24 96.4831L428.852 92.8223C428.241 92.5534 427.632 92.2832 427.024 92.0115L425.392 95.6634ZM429.088 97.2907C429.706 97.5585 430.325 97.8248 430.945 98.0897L432.516 94.4107C431.902 94.1489 431.29 93.8856 430.68 93.6209L429.088 97.2907ZM432.812 98.8797C433.433 99.1406 434.056 99.3999 434.68 99.6577L436.207 95.9604C435.59 95.7057 434.974 95.4494 434.36 95.1916L432.812 98.8797ZM436.546 100.422C437.17 100.675 437.795 100.926 438.422 101.176L439.903 97.4604C439.284 97.2136 438.666 96.9651 438.05 96.7151L436.546 100.422ZM440.308 101.921C440.936 102.167 441.566 102.411 442.198 102.654L443.632 98.9201C443.008 98.6804 442.386 98.4391 441.766 98.1962L440.308 101.921ZM444.081 103.371C444.711 103.608 445.342 103.843 445.975 104.077L447.361 100.325C446.736 100.094 446.113 99.8617 445.492 99.6276L444.081 103.371ZM447.879 104.774C448.516 105.004 449.154 105.232 449.793 105.459L451.13 101.689C450.498 101.465 449.869 101.24 449.241 101.012L447.879 104.774ZM451.693 106.125C452.328 106.346 452.965 106.564 453.604 106.781L454.889 102.993C454.259 102.78 453.631 102.564 453.004 102.346L451.693 106.125ZM455.525 107.426C456.168 107.639 456.812 107.851 457.459 108.06L458.692 104.255C458.055 104.049 457.419 103.84 456.785 103.63L455.525 107.426ZM459.379 108.676C460.019 108.878 460.661 109.079 461.305 109.278L462.486 105.456C461.851 105.26 461.218 105.062 460.586 104.862L459.379 108.676ZM463.242 109.869C463.89 110.064 464.54 110.257 465.192 110.449L466.318 106.611C465.676 106.422 465.035 106.232 464.396 106.039L463.242 109.869ZM467.136 111.012C467.781 111.197 468.427 111.379 469.075 111.559L470.148 107.706C469.508 107.528 468.871 107.348 468.236 107.167L467.136 111.012ZM471.026 112.095C471.678 112.271 472.332 112.446 472.989 112.619L474.006 108.75C473.359 108.58 472.714 108.408 472.071 108.234L471.026 112.095ZM474.961 113.13C475.608 113.295 476.258 113.459 476.91 113.62L477.872 109.738C477.229 109.578 476.589 109.417 475.95 109.254L474.961 113.13ZM478.871 114.099C479.526 114.256 480.184 114.412 480.844 114.565L481.751 110.669C481.1 110.518 480.451 110.365 479.805 110.209L478.871 114.099ZM482.831 115.02C483.486 115.167 484.144 115.313 484.804 115.457L485.654 111.548C485.004 111.407 484.355 111.263 483.709 111.118L482.831 115.02ZM486.772 115.878C487.43 116.016 488.091 116.152 488.753 116.287L489.548 112.366C488.895 112.234 488.244 112.099 487.595 111.963L486.772 115.878ZM490.747 116.683C491.414 116.813 492.082 116.942 492.753 117.068L493.492 113.136C492.83 113.012 492.171 112.886 491.514 112.757L490.747 116.683ZM494.726 117.431C495.385 117.55 496.047 117.667 496.71 117.782L497.394 113.841C496.739 113.728 496.087 113.612 495.436 113.495L494.726 117.431ZM498.708 118.121C499.376 118.232 500.047 118.341 500.719 118.448L501.347 114.498C500.683 114.392 500.022 114.285 499.364 114.175L498.708 118.121ZM502.727 118.76C503.386 118.86 504.048 118.958 504.712 119.054L505.284 115.095C504.63 115 503.977 114.904 503.327 114.805L502.727 118.76ZM506.709 119.336C507.378 119.428 508.048 119.518 508.72 119.606L509.238 115.639C508.575 115.553 507.914 115.464 507.255 115.373L506.709 119.336Z" fill="black"/>
</svg>
