<svg width="199" height="211" viewBox="0 0 199 211" fill="none" xmlns="http://www.w3.org/2000/svg">
<g clip-path="url(#clip0_2121_23)">
<path d="M116.974 0.916016C113.14 0.916016 110.032 4.21166 110.032 8.2773C110.032 12.3429 113.14 15.6386 116.974 15.6386C118.333 15.6371 119.661 15.2124 120.795 14.4181L127.431 17.936V34.0403H26.729C24.8117 34.041 23.2581 35.69 23.2588 37.7224C23.2588 38.0228 23.2935 38.3224 23.3622 38.6139L37.2459 97.5041C37.7138 99.4755 39.6005 100.671 41.4596 100.175C43 99.7633 44.0808 98.2955 44.0829 96.6112V56.1241H155.152V96.6112C155.152 98.6444 156.706 100.292 158.624 100.292C160.216 100.292 161.605 99.142 161.991 97.5041L175.875 38.6139C176.34 36.6418 175.208 34.6432 173.349 34.15C173.073 34.0771 172.791 34.0403 172.507 34.0403H134.371V15.9316C134.474 14.4218 133.695 12.9996 132.408 12.3459L123.9 7.83415C123.681 3.94886 120.645 0.917488 116.974 0.916016ZM31.1752 41.4016H168.063L162.095 66.7163V52.4435C162.095 50.4111 160.54 48.7629 158.624 48.7629H40.6127C38.696 48.7629 37.1418 50.4111 37.1418 52.4435V66.7104L31.1752 41.4016ZM54.4963 63.4854C52.5797 63.4854 51.0254 65.1336 51.0254 67.1661V167.949L39.0605 174.294C37.3465 175.205 36.6537 177.417 37.5131 179.234C38.1011 180.478 39.3007 181.264 40.6127 181.265H158.624C160.541 181.263 162.093 179.614 162.092 177.581C162.09 176.189 161.35 174.918 160.177 174.293L148.212 167.949V67.1661C148.212 65.1336 146.657 63.4854 144.741 63.4854H54.4963ZM57.9672 70.8467H141.269V170.224C141.269 171.618 142.012 172.892 143.188 173.517L143.92 173.905H55.3168L56.0492 173.517C57.2252 172.893 57.9679 171.618 57.9679 170.224C57.9672 170.224 57.9672 70.8467 57.9672 70.8467ZM33.6708 188.627C31.7542 188.627 30.1999 190.275 30.1999 192.308V207.03C30.1999 209.063 31.7542 210.711 33.6708 210.711H165.566C167.482 210.711 169.036 209.063 169.036 207.03V192.308C169.036 190.275 167.482 188.627 165.566 188.627H33.6708ZM37.1418 195.988H162.095V203.35H37.1418V195.988Z" fill="#D1A954"/>
</g>
<defs>
<clipPath id="clip0_2121_23">
<rect width="197.841" height="209.795" fill="white" transform="translate(0.699219 0.916016)"/>
</clipPath>
</defs>
</svg>
