<svg width="125" height="125" viewBox="0 0 125 125" fill="none" xmlns="http://www.w3.org/2000/svg">
<path d="M103.629 55.1852H95.9901C94.858 55.1852 93.9408 56.1026 93.9408 57.2345V61.5033H90.4567V57.2345C90.4567 56.1026 89.5394 55.1852 88.4074 55.1852H79.9252V50.9491H88.4074C89.5394 50.9491 90.4567 50.0316 90.4567 48.8998V16.1429C90.4567 11.1905 86.4279 7.16163 81.4755 7.16163H64.5494V2.04932C64.5494 0.917482 63.6322 0 62.5001 0C61.368 0 60.4508 0.917482 60.4508 2.04932V7.16139H43.5245C38.5721 7.16139 34.5432 11.1905 34.5432 16.1426V48.8998C34.5432 50.0316 35.4605 50.9491 36.5926 50.9491H45.075V55.1852H36.5926C35.4605 55.1852 34.5432 56.1026 34.5432 57.2345V61.5033H31.0591V57.2345C31.0591 56.1026 30.1419 55.1852 29.0098 55.1852H21.3706C20.2385 55.1852 19.3213 56.1026 19.3213 57.2345V98.5178C19.3213 99.6496 20.2385 100.567 21.3706 100.567H29.0095C30.1416 100.567 31.0589 99.6496 31.0589 98.5178V74.0272H34.543V90.6784C34.543 91.8102 35.4602 92.7277 36.5923 92.7277H40.23V111.212H37.6455C36.5135 111.212 35.5962 112.13 35.5962 113.262V122.951C35.5962 124.083 36.5135 125 37.6455 125H54.9171C56.0491 125 56.9664 124.083 56.9664 122.951V113.262C56.9664 112.13 56.0491 111.212 54.9171 111.212H52.3328V92.7277H72.6671V111.212H70.0826C68.9505 111.212 68.0333 112.13 68.0333 113.262V122.951C68.0333 124.083 68.9505 125 70.0826 125H87.3541C88.4862 125 89.4035 124.083 89.4035 122.951V113.262C89.4035 112.13 88.4862 111.212 87.3541 111.212H84.7699V92.7277H88.4076C89.5397 92.7277 90.4569 91.8102 90.4569 90.6784V74.0272H93.9411V98.5175C93.9411 99.6494 94.8583 100.567 95.9904 100.567H103.629C104.761 100.567 105.679 99.6494 105.679 98.5175V57.2342C105.678 56.1026 104.761 55.1852 103.629 55.1852ZM26.9605 96.4685H23.4202V59.2838H26.9605V96.4685ZM34.5432 69.9288H31.0591V65.6019H34.5432V69.9288ZM38.6416 46.8507V16.1429C38.6416 13.4505 40.8321 11.26 43.5245 11.26H81.4755C84.1678 11.26 86.3583 13.4505 86.3583 16.1429V46.8507H38.6416ZM75.8268 50.9488V55.1849H49.1734V50.9488H75.8268ZM52.868 115.311V120.902H39.6949V115.311H52.868ZM44.3289 111.213V92.728H48.2347V111.213H44.3289ZM85.3051 115.311V120.902H72.1319V115.311H85.3051ZM76.766 111.213V92.728H80.6717V111.213H76.766ZM86.3583 88.6291H38.6416V59.2838H86.358V88.6291H86.3583ZM93.9408 69.9288H90.4567V65.6019H93.9408V69.9288ZM101.58 96.4685H98.0395V59.2838H101.58V96.4685Z" fill="#E0AB4D"/>
<path d="M49.8626 20.6895C44.7837 20.6895 40.6519 24.8213 40.6519 29.8999C40.6519 34.9785 44.7837 39.1104 49.8626 39.1104C54.9412 39.1106 59.073 34.9788 59.073 29.8999C59.0733 24.8213 54.9414 20.6895 49.8626 20.6895ZM49.8626 35.012C47.044 35.012 44.7503 32.719 44.7503 29.8999C44.7503 27.0813 47.0437 24.7878 49.8626 24.7878C52.6812 24.7878 54.9746 27.0811 54.9746 29.8999C54.9746 32.7188 52.6814 35.012 49.8626 35.012Z" fill="#E0AB4D"/>
<path d="M75.138 20.6895C70.0591 20.6895 65.9272 24.8213 65.9272 29.8999C65.9272 34.9785 70.0591 39.1106 75.138 39.1106C80.2166 39.1106 84.3484 34.9788 84.3484 29.9002C84.3484 24.8215 80.2166 20.6895 75.138 20.6895ZM75.138 35.012C72.3194 35.012 70.0256 32.7188 70.0256 29.8999C70.0256 27.0813 72.3189 24.7878 75.138 24.7878C77.9566 24.7878 80.25 27.0811 80.25 29.8999C80.2498 32.7188 77.9566 35.012 75.138 35.012Z" fill="#E0AB4D"/>
<path d="M62.5005 66.1377C55.0989 66.1377 49.0771 72.1592 49.0771 79.5611C49.0771 80.6929 49.9944 81.6104 51.1265 81.6104H73.8746C75.0066 81.6104 75.9239 80.6929 75.9239 79.5611C75.9236 72.1594 69.9021 66.1377 62.5005 66.1377ZM53.4024 77.5117C54.3386 73.3526 58.0628 70.2363 62.5003 70.2363C66.938 70.2363 70.6619 73.3526 71.5982 77.5117H53.4024Z" fill="#E0AB4D"/>
<path d="M79.7715 67.2871C80.9033 67.2871 81.8208 66.3696 81.8208 65.2378C81.8208 64.106 80.9033 63.1885 79.7715 63.1885C78.6397 63.1885 77.7222 64.106 77.7222 65.2378C77.7222 66.3696 78.6397 67.2871 79.7715 67.2871Z" fill="#E0AB4D"/>
<path d="M45.229 67.2871C46.3608 67.2871 47.2783 66.3696 47.2783 65.2378C47.2783 64.106 46.3608 63.1885 45.229 63.1885C44.0972 63.1885 43.1797 64.106 43.1797 65.2378C43.1797 66.3696 44.0972 67.2871 45.229 67.2871Z" fill="#E0AB4D"/>
</svg>
