<svg width="216" height="202" viewBox="0 0 216 202" fill="none" xmlns="http://www.w3.org/2000/svg">
<path fill-rule="evenodd" clip-rule="evenodd" d="M75.7589 0.609436C64.286 3.51576 57.404 16.1858 61.2405 27.3369L61.655 28.5425L49.6688 40.0515C43.0766 46.3817 37.5549 51.519 37.3977 51.4678C26.0754 47.7861 14.7778 53.2921 11.1329 64.2691C5.28348 81.8848 23.3366 97.8293 39.613 89.4223C48.9248 84.6134 53.2692 72.6977 49.2188 63.0774L48.8163 62.1213L60.4399 50.9575C66.8333 44.8177 72.1953 39.8166 72.3562 39.8443C72.517 39.8726 73.4352 40.1654 74.3961 40.4949C78.2851 41.83 82.9115 41.8035 87.039 40.4226L88.985 39.772L100.502 51.3147L112.02 62.8569L111.475 64.4366C107.082 77.1482 116.255 90.8641 129.653 91.6178C142.787 92.357 153.098 80.4774 150.837 67.211L150.657 66.1518L163.31 53.5102L175.963 40.8685L177.023 41.136C180.353 41.977 186.098 41.2565 189.636 39.5551C206.985 31.2102 204.253 5.04424 185.566 0.582326C169.077 -3.35423 155.243 14.2187 162.643 29.701L163.555 31.6109L152.655 42.5096L141.754 53.4089L140.325 52.6468C135.883 50.2797 130.167 49.6351 125.483 50.9725C124.512 51.2497 123.506 51.5268 123.247 51.5883C122.877 51.6762 120.299 49.2206 111.165 40.0768L99.5536 28.4539L100.031 26.908C104.719 11.7299 90.9117 -3.22952 75.7589 0.609436ZM81.915 15.5664C87.8277 17.3226 86.0516 27.0718 79.9847 26.1621C73.7111 25.2217 74.1648 16.4286 80.5486 15.226C80.6221 15.2122 81.2372 15.3652 81.915 15.5664ZM182.821 15.6905C185.567 16.6973 186.857 20.6742 185.342 23.463C182.717 28.2943 175.994 26.3344 175.971 20.7308C175.954 16.9003 179.335 14.4121 182.821 15.6905ZM32.9707 66.344C37.0838 69.066 35.6704 75.8752 30.8976 76.3342C26.2869 76.7771 23.5047 71.0349 26.5863 67.4351C28.2781 65.4584 30.944 65.0029 32.9707 66.344ZM133.535 66.4302C136.662 68.687 136.577 73.5821 133.375 75.5619C129.931 77.6904 125.718 75.1672 125.718 70.9764C125.718 66.7368 130.282 64.083 133.535 66.4302ZM155.371 90.9195C153.876 91.4461 151.575 93.7921 151.058 95.3169C150.696 96.3851 150.664 100.024 150.664 141.15V185.823H140.665H130.665L130.604 145.873L130.542 105.925L129.919 104.748C129.075 103.156 127.747 101.867 126.189 101.127L124.894 100.511H107.95H91.0051L89.6634 101.171C87.7837 102.094 86.3124 103.794 85.7124 105.737C85.2467 107.245 85.2394 107.866 85.2394 146.546V185.823H75.3595H65.4789L65.4163 153.522L65.353 121.221L64.6939 119.88C63.7589 117.976 62.0641 116.52 60.0808 115.917C58.5583 115.455 58.0107 115.443 42.1632 115.507L25.8158 115.573L24.5216 116.188C22.9636 116.929 21.6352 118.218 20.7911 119.81L20.1676 120.986L20.1055 153.404L20.0435 185.823H13.1132C6.72098 185.823 6.08296 185.86 4.90332 186.301C-1.44012 188.675 -1.68834 197.484 4.50689 200.39L5.81185 201.002H108.068H210.323L211.665 200.343C217.413 197.52 217.453 189.595 211.735 186.564L210.559 185.94L203.204 185.869L195.85 185.798V141.137C195.85 90.1273 196.081 95.1754 193.633 92.7269C191.279 90.373 192.522 90.5068 173.156 90.5285C158.527 90.5448 156.298 90.5936 155.371 90.9195ZM180.788 145.697V185.823H173.257H165.726V145.697V105.572H173.257H180.788V145.697ZM115.363 150.757V185.823H107.95H100.537V150.757V115.691H107.95H115.363V150.757ZM50.1737 158.288V185.823H42.7603H35.3475V158.288V130.753H42.7603H50.1737V158.288Z" fill="#E0AB4D"/>
</svg>
