<svg width="106" height="99" viewBox="0 0 106 99" fill="none" xmlns="http://www.w3.org/2000/svg">
<path d="M77.5 94.501L63 87.001L74 81.501L76 84.501L81 81.501L82.5 74.501L61 52.501L57 56.001L60.5 64.001L55.5 71.501L61 82.001H58.5L54.5 74.501V98.501H52.5V74.001L49.5 80.501L45.5 82.001L48 77.001L51 71.001L46 64.001L48.5 56.001L45 52.501L24 73.501L24.5 79.501L30 85.001L32 82.001L43.5 87.501L37.5 92.001L28 94.001L29 89.501H23.5L17.5 86.501L12 87.501L10.5 86.501V79.501L5.5 66.501L1 68.501L1.5 59.501L5.5 51.501L13 62.501L9.5 64.501L11.5 69.501L18 72.001L47 40.501C47 40.501 39.9776 39.4716 37 36.501C35.5048 35.0093 34.6679 34.0047 34 32.001C33.1973 29.5928 35.1529 27.7625 34 25.501C33.0573 23.6518 31.9547 21.3027 30 22.001C27.9689 22.7265 30.9159 25.8741 29.5 27.501C28.7526 28.3598 28.1279 29.1564 27 29.001C25.7614 28.8303 25.5031 27.6456 25 26.501C24.2143 24.7134 26.0349 23.1568 25 21.501C24.5609 20.7985 23.9784 20.6773 23.5 20.001C22.3501 18.3753 21.9489 16.9145 22.5 15.001C23.1921 12.5981 25.0122 11.2537 27.5 11.001C30.1988 10.7268 32.5242 11.9699 33.5 14.501C34.0619 15.9585 32.8938 17.0613 33.5 18.501C34.1986 20.1601 35.2227 21.7876 37 21.501C38.3631 21.2811 38.2769 19.6416 39.5 19.001C41.4027 18.0043 43.034 18.1359 45 19.001C46.7693 19.7795 48.7589 20.5854 48.5 22.501C48.3326 23.74 47.649 24.5079 46.5 25.001C45.2312 25.5455 44.3807 24.501 43 24.501C41.6193 24.501 38.5712 23.9793 39.5 25.001C44.5 30.501 51.5 37.001 51.5 37.001V15.001C51.5 15.001 46.5773 15.5401 43.5 15.001C40.2134 14.4252 37.804 14.3095 35 12.501C32.2153 10.7049 26.5 8.00098 29.5 6.00097C31.1641 4.89157 34.6034 7.69722 38 8.00097C42.2963 8.3852 44.5 7.50098 49 7.00097C50.7892 6.80217 48.2741 10.4889 50 11.001C50.5616 11.1676 50.9616 11.2317 51.5 11.001C52.7563 10.4625 52.2338 8.65412 51.5 7.50097C51.2035 7.03503 50.8201 6.95101 50.5 6.50097C49.5875 5.21816 49.1689 3.83796 50 2.50097C50.6915 1.38853 51.6904 0.97716 53 1.00097C54.7999 1.0337 56.1646 2.23227 56.5 4.00097C56.8254 5.71686 54.5 8.00097 54.5 8.00097C54.5 8.00097 53.6628 9.99866 54.5 10.501C55.1904 10.9152 56.5 10.8061 56.5 10.001C56.5 8.50097 56 7.50097 57 7.00097C58.7889 6.10654 63.9952 8.17051 68.5 8.00097C71.6463 7.88256 76.5 7.00097 76.5 7.00097C76.5 7.00097 73.795 10.4652 71.5 12.001C68.5745 13.9587 66.4725 14.4241 63 15.001C59.7254 15.545 54.5 15.001 54.5 15.001V36.501L67 24.001C67 24.001 59.5878 27.2204 58.5 24.501C58.0649 23.4132 58.1807 23.1282 58.5 22.001C59.2238 19.4457 61.3485 18.153 64 18.001C66.7082 17.8457 69 21.501 70 21.501C71 21.501 72.5 19.501 73 18.501C73.5 17.501 72.7609 14.1769 74.5 12.501C76.6137 10.4641 79.5009 10.461 82 12.001C83.7981 13.109 85.037 14.3892 85 16.501C84.9609 18.727 82.0046 18.8326 81.5 21.001C81.0992 22.7231 82.5821 23.8314 82 25.501C81.2671 27.6032 79.673 29.4853 77.5 29.001C74.9573 28.4342 78.5818 22.8484 76 22.501C74.0648 22.2406 73.2116 23.9697 72 25.501C69.6694 28.4464 72.4542 31.7935 70.5 35.001C67.7739 39.4753 58.5 41.001 58.5 41.001L89.5 72.501L97 65.501L93.5 62.501L100.5 52.001L105 68.501L101 66.501L95 80.501V87.001L88 86.001L82.5 89.501H77.5V94.501Z" fill="#D1A954" stroke="#D1A954"/>
<path d="M24.0002 15.5011C23.765 16.9695 24.0512 18.6667 25.5002 19.0011C26.5247 19.2376 26.9668 17.8064 28.0002 18.0011C29.0856 18.2056 28.8992 20.0904 30.0002 20.0011C30.7019 19.9442 30.8293 19.6841 31 19.0011C31.5 17.001 31.9268 15.9942 31 14.5011C30.079 13.0172 29.2356 12.3052 27.5002 12.5011C25.7113 12.7031 24.2848 13.7235 24.0002 15.5011Z" fill="white" stroke="white"/>
<path d="M26.4995 25.5011C26.2117 24.5115 26.653 22.2675 27.4997 22.3759C28.3463 22.4843 28.3396 24.3873 28.4992 25.0017C28.6588 25.6162 28.2341 26.7294 27.4994 27.002C26.7226 27.2901 26.7309 26.2965 26.4995 25.5011Z" fill="white" stroke="white"/>
<path d="M74.4999 15.5011C74.0991 17.382 74.6119 20.367 76.4999 20.0011C77.5843 19.791 77.4847 18.4363 78.4999 18.0011C79.5768 17.5396 80.7499 18.9012 81.4999 18.0011C82.1249 17.2511 81.7405 16.4474 81.4999 15.5011C81.2194 14.3977 80.9348 13.6511 79.9999 13.0011C79.0247 12.3231 78.14 12.168 76.9999 12.5011C75.5361 12.9289 74.8178 14.0096 74.4999 15.5011Z" fill="white" stroke="white"/>
<path d="M48.9999 49.001C49.4999 48.001 50.9999 46.001 51.4999 46.001C51.9999 46.001 53 53.001 51.5 53.001C50 53.001 48.4999 50.001 48.9999 49.001Z" fill="white"/>
<path d="M57.5 49.001C58 47.501 54.5 43.7008 54.5 45.501L54.5 53.501C54.5 55.6131 56.6939 51.4191 57.5 49.001Z" fill="white"/>
<path d="M48.9999 49.001C49.4999 48.001 50.9999 46.001 51.4999 46.001C51.9999 46.001 53 53.001 51.5 53.001C50 53.001 48.4999 50.001 48.9999 49.001Z" stroke="white"/>
<path d="M57.5 49.001C58 47.501 54.5 43.7008 54.5 45.501L54.5 53.501C54.5 55.6131 56.6939 51.4191 57.5 49.001Z" stroke="white"/>
<path d="M44.4998 36.0015C42.4997 34.002 39.4999 30.0011 38.4998 30.0015C37.4997 30.0018 38.4996 32.502 39.9998 34.0015C41.5 35.501 46.4999 38.001 44.4998 36.0015Z" fill="white" stroke="white"/>
<path d="M61.9067 35.339C63.654 33.5601 66.2746 30.0007 67.1483 30.001C68.022 30.0013 67.1485 32.2256 65.8379 33.5597C64.5273 34.8938 60.1594 37.1179 61.9067 35.339Z" fill="white" stroke="white"/>
<path d="M54.5001 67.501C53.9997 67.501 53.9997 59.501 55 59.501C56.0003 59.501 57 62.001 57 63.501C57 65.001 55.0006 67.501 54.5001 67.501Z" fill="white" stroke="white"/>
<path d="M51.5 60.5008C52.8669 59.7014 51.9554 66.4956 51.5 67.2949C51.0446 68.0942 49 66.0997 49 64.501C49 62.9023 50.1331 61.3002 51.5 60.5008Z" fill="white" stroke="white"/>
<path d="M80.5002 24.0014C80.5004 23.0018 79.8144 21.686 79.0001 22.0012C78.0715 22.3607 78.0164 23.6308 78.5 24.5011C78.8419 25.1166 79.5 26.0011 80 25.5011C80.5 25.0011 80.5 25.001 80.5002 24.0014Z" fill="white" stroke="white"/>
</svg>
