<svg width="186" height="186" viewBox="0 0 186 186" fill="none" xmlns="http://www.w3.org/2000/svg">
<path fill-rule="evenodd" clip-rule="evenodd" d="M60.8588 0.936516C57.3693 1.62988 53.4322 3.32548 49.238 5.94016C43.4514 9.54844 41.3248 13.552 41.6364 20.2518L41.7801 23.3363L40.0207 23.5868C26.2826 25.5432 17.2511 31.7311 14.2514 41.241C11.4769 50.0393 13.4895 59.0735 19.6584 65.5167L20.5089 66.4045L19.9986 66.5989C7.38421 71.3995 0.609375 80.4067 0.609375 92.3758C0.609375 102.124 6.19945 110.477 16.2726 115.78C17.4671 116.409 17.513 116.22 15.6916 118.171C10.878 123.328 8.83628 129.318 9.67706 135.82C10.9833 145.928 18.4564 152.864 32.0655 156.602L33.2524 156.928L33.9463 158.872C42.6759 183.316 65.5611 192.521 85.87 179.756C86.9872 179.054 88.0283 178.376 88.1833 178.25C88.3383 178.124 89.414 177.268 90.5744 176.347C92.7701 174.605 97.737 169.63 98.1209 168.788C98.2419 168.522 98.4093 168.304 98.4925 168.304C99.3397 168.304 99.6437 166.157 99.7112 159.708L99.7782 153.328H100.979H102.179L108.189 165.372C115.515 180.053 115.635 180.206 119.895 180.191L121.582 180.185L133.28 175.493C147.86 169.645 147.372 169.91 148.579 167.22C149.677 164.771 149.581 164.325 144.998 150.579L141.022 138.654L145.408 132.807C148.472 128.724 149.916 126.961 150.197 126.961C150.419 126.961 155.747 127.822 162.036 128.876C174.524 130.968 175.006 131.006 176.9 130.046C179.868 128.542 179.942 128.344 182.781 114.234C186.53 95.5969 187.474 97.2444 169.647 91.3023L158.18 87.4802V80.4564V73.4321L165.932 67.62C176.094 60.0006 176.271 59.7981 176.061 56.1045C175.923 53.6913 176.31 54.3085 167.965 43.1877C156.962 28.523 158.551 28.8432 143.01 38.1657L133.044 44.1435L127.576 41.4165L122.109 38.6895V28.8626C122.109 20.4284 122.062 18.8958 121.773 18.0502C121.296 16.6478 119.751 15.0165 118.212 14.2886L116.942 13.6875L105.493 13.687H94.0445L92.6259 12.972C91.8456 12.5784 88.739 10.609 85.7225 8.5948C74.922 1.3831 68.5257 -0.586824 60.8588 0.936516ZM68.0041 14.551C70.784 15.2519 72.5962 16.2531 79.6054 20.9592C82.3902 22.8287 84.9768 24.4843 85.3537 24.6382L86.039 24.9179V93.4148V161.912L84.8261 163.13C69.7288 178.287 51.2678 172.581 45.9489 151.113C44.7063 146.099 43.4233 144.838 38.735 144.027C19.3215 140.666 17.6653 127.707 35.8714 121.623C43.7905 118.976 42.8174 109.767 34.4274 107.96C18.4974 104.527 10.7344 95.6277 15.6311 86.4115C18.3829 81.2324 27.2028 77.4291 37.8402 76.8341C43.0356 76.543 45.6222 74.235 45.6081 69.9021C45.5979 66.7058 44.014 64.5582 40.7929 63.3719C33.5802 60.7156 27.6742 55.3593 26.7859 50.6678C25.2971 42.8022 32.6487 37.4756 45.9613 36.7752C50.0404 36.5603 50.8953 36.3114 52.4899 34.8707C54.6083 32.9564 55.3335 29.9739 55.3335 23.1683V18.4109L56.1846 17.7797C60.0353 14.9214 64.5664 13.6838 68.0041 14.551ZM108.612 35.888L108.614 44.5896L109.128 45.6944C110.198 47.9921 110.352 48.0915 121.371 53.5898C134.977 60.3781 132.529 60.4505 145.127 52.8867C153.693 47.7432 154.13 47.5083 154.408 47.9009C154.765 48.4047 155.228 49.0154 155.649 49.5371C155.823 49.7525 156.107 50.1365 156.282 50.3903C156.456 50.6441 156.74 51.0237 156.914 51.2337C157.088 51.4443 157.373 51.824 157.547 52.0778C157.721 52.3316 158.006 52.7112 158.18 52.9212C158.354 53.1318 158.639 53.5115 158.813 53.7653C158.986 54.0191 159.298 54.4257 159.505 54.6692C159.866 55.0937 159.866 55.1201 159.505 55.321C159.298 55.4366 159.022 55.632 158.891 55.7552C158.76 55.8788 158.443 56.1224 158.186 56.2962C157.929 56.4707 157.546 56.7552 157.336 56.9291C157.126 57.103 156.746 57.3881 156.492 57.562C156.238 57.7359 155.859 58.021 155.649 58.1949C155.438 58.3688 155.059 58.6533 154.805 58.8278C154.551 59.0016 154.171 59.2862 153.961 59.4606C153.751 59.6345 153.371 59.9191 153.117 60.0935C152.863 60.2674 152.484 60.552 152.274 60.7259C152.063 60.9003 151.684 61.1849 151.43 61.3587C151.176 61.5332 150.796 61.8177 150.586 61.9916C150.376 62.1655 149.996 62.4506 149.742 62.6245C149.488 62.7984 149.109 63.0835 148.899 63.2574C148.688 63.4313 148.303 63.7158 148.041 63.8903C144.455 66.2798 144.438 66.3645 144.513 81.7432C144.598 99.0038 143.136 96.982 159.445 102.388C165.304 104.33 170.168 105.982 170.254 106.059C170.339 106.137 169.965 108.432 169.422 111.16L168.435 116.12L157.981 114.372C142.354 111.759 144.84 110.722 134.86 124.023C124.632 137.654 125.199 134.615 130.122 149.41C132.12 155.415 133.675 160.401 133.575 160.489C133.425 160.622 130.676 161.74 124.165 164.316L123.162 164.713L117.593 153.589C110.326 139.074 111.01 139.771 103.916 139.653L99.7501 139.585V130.729C99.7501 125.858 99.8214 121.915 99.9083 121.966C99.9953 122.017 100.921 121.985 101.965 121.893C120.672 120.248 131.02 109.819 131.05 92.5778C131.074 78.6593 124.722 69.3831 112.208 65.0594C109.085 63.9799 102.817 62.8356 100.03 62.8356C99.7998 62.8356 99.7501 59.6772 99.7501 45.0113V27.187H104.18H108.609L108.612 35.888ZM63.7635 45.4034C59.7135 46.7296 58.5606 49.6175 59.5406 55.9798C60.7157 63.61 60.4154 70.2061 58.7317 73.7512C58.1437 74.9894 55.7239 78.8337 55.2466 79.2884C55.1856 79.3467 54.4242 80.2442 53.5542 81.2837C52.6843 82.3232 50.7819 84.3692 49.326 85.8305C46.0272 89.1417 45.654 89.8157 45.6508 92.4719C45.6448 97.5144 50.7997 100.835 55.2423 98.6511C56.9476 97.8131 62.286 92.5016 64.9455 88.9976C65.2355 88.6152 65.6481 88.1017 65.863 87.856C68.4831 84.8568 71.5735 79.2878 72.613 75.6898C74.1649 70.3222 74.2627 59.8084 72.8322 52.1831C72.7885 51.9509 72.6616 51.2667 72.5492 50.6624C71.8283 46.7717 67.4981 44.1797 63.7635 45.4034ZM104.707 77.204C113.786 79.0178 117.773 84.1095 117.404 93.4212C117.101 101.097 113.976 105.096 106.615 107.229C105.093 107.67 104.079 107.849 100.541 108.301L99.7501 108.403V92.4536V76.5036L101.174 76.6434C101.957 76.7201 103.547 76.9723 104.707 77.204ZM55.3475 117.656C49.4405 119.25 48.1315 126.39 53.0752 130.053C60.666 135.676 61.7001 138.596 59.512 148.229C58.9963 150.5 59.0363 152.95 59.6103 154.213C62.0112 159.498 69.7747 159.41 72.1367 154.071C73.0628 151.978 73.9478 145.998 73.9991 141.489C74.0931 133.226 72.3333 128.941 66.6098 123.499C61.4528 118.595 58.1734 116.894 55.3475 117.656Z" fill="#E0AB4D"/>
</svg>
