<svg width="153" height="214" viewBox="0 0 153 214" fill="none" xmlns="http://www.w3.org/2000/svg">
<path fill-rule="evenodd" clip-rule="evenodd" d="M6.34033 0.334077C1.70634 1.78792 -0.999945 6.79545 0.345503 11.4258C0.686076 12.5969 8.53611 25.3827 30.0105 59.7433C46.2592 85.7426 59.1578 106.665 59.0889 106.912C59.0208 107.155 45.8256 128.37 29.7659 154.056C4.51295 194.449 0.522017 200.979 0.230515 202.384C-0.663765 206.69 1.43168 210.81 5.46143 212.672L7.24926 213.497H76.3425H145.436L147.009 212.751C148.877 211.865 150.775 210.015 151.661 208.216C152.636 206.239 152.818 173.176 151.869 170.639C149.146 163.361 138.897 162.759 135.209 169.66C134.575 170.846 134.561 171.091 134.421 183.027L134.277 195.187L79.9899 195.259C50.1315 195.299 25.7025 195.279 25.7025 195.215C25.7025 195.151 37.4424 176.322 51.7911 153.372C78.914 109.991 79.185 109.532 79.1967 106.898C79.2084 103.989 78.9264 103.505 52.2562 60.8214C37.8672 37.7913 25.9984 18.788 25.8812 18.5917C25.7113 18.3061 36.6213 18.2336 80.0448 18.2336H134.421V30.0614V41.8884L135.292 43.633C138.689 50.4321 148.268 50.3083 151.661 43.4221C152.636 41.4453 152.818 8.3826 151.869 5.84551C151.086 3.75226 149.367 1.85677 147.356 0.869475L145.721 0.0667465L76.6281 0.0125467C20.3522 -0.0306658 7.31371 0.0286593 6.34033 0.334077Z" fill="#E0AB4D"/>
<path fill-rule="evenodd" clip-rule="evenodd" d="M149.011 1.72843C149.011 1.7775 149.43 2.19644 149.941 2.65859L150.87 3.49868L150.03 2.56924C149.247 1.70206 149.011 1.50724 149.011 1.72843ZM152.578 24.3842C152.578 33.3534 152.614 36.9811 152.659 32.4459C152.703 27.9108 152.703 20.572 152.659 16.138C152.614 11.7039 152.578 15.4151 152.578 24.3842ZM134.264 29.8202C134.264 36.2714 134.302 38.9513 134.348 35.7755C134.394 32.5998 134.394 27.3212 134.348 24.0459C134.302 20.7698 134.264 23.3684 134.264 29.8202ZM134.707 43.0045C134.708 43.3253 135.788 45.1263 135.98 45.1263C136.055 45.1263 135.841 44.6436 135.503 44.0533C134.746 42.732 134.706 42.6785 134.707 43.0045ZM150.656 44.9681C150.224 45.5101 149.869 46.0433 149.869 46.1516C149.869 46.26 150.256 45.8631 150.728 45.2691C151.522 44.2693 151.698 43.9815 151.514 43.9822C151.475 43.9822 151.089 44.4253 150.656 44.9681ZM79.2804 106.924C79.2804 107.632 79.3361 107.921 79.4049 107.568C79.473 107.214 79.473 106.634 79.4049 106.28C79.3361 105.926 79.2804 106.216 79.2804 106.924ZM149.011 166.522C149.011 166.571 149.43 166.99 149.941 167.452L150.87 168.292L150.03 167.363C149.247 166.496 149.011 166.301 149.011 166.522ZM134.202 183.527L134.134 195.043H80.0443C39.2312 195.043 26.0045 194.962 26.1583 194.713C26.285 194.508 26.2367 194.46 26.0323 194.586C25.8507 194.699 25.702 194.911 25.702 195.06C25.702 195.506 134.118 195.417 134.289 194.971C134.365 194.773 134.392 189.527 134.349 183.312L134.27 172.011L134.202 183.527ZM152.578 189.178C152.578 198.147 152.614 201.775 152.659 197.24C152.703 192.704 152.703 185.366 152.659 180.932C152.614 176.498 152.578 180.209 152.578 189.178ZM150.656 209.762C150.224 210.304 149.869 210.837 149.869 210.945C149.869 211.054 150.256 210.657 150.728 210.063C151.522 209.063 151.698 208.775 151.514 208.776C151.475 208.776 151.089 209.219 150.656 209.762ZM1.32134 209.491C1.48686 209.806 2.11162 210.514 2.70927 211.065C3.69583 211.974 2.85502 210.892 1.15288 209.061C1.07964 208.983 1.15581 209.176 1.32134 209.491ZM3.95877 212.063C3.95877 212.258 5.70998 213.127 5.84108 212.996C5.90333 212.934 5.5049 212.669 4.95632 212.408C4.40774 212.146 3.95877 211.991 3.95877 212.063Z" fill="#E0AB4D"/>
</svg>
