<svg width="187" height="221" viewBox="0 0 187 221" fill="none" xmlns="http://www.w3.org/2000/svg">
<path fill-rule="evenodd" clip-rule="evenodd" d="M24.6555 0.675886C-5.41784 6.98803 -8.99797 48.8606 19.5539 60.3362L22.3716 61.4686L22.5233 113.216C22.6838 168.046 22.6716 167.524 23.9753 174.035C26.4904 186.59 33.7398 194.129 45.9437 196.879C52.5116 198.359 53.2271 198.386 90.8755 198.55L125.64 198.702L126.367 200.695C134.191 222.104 161.616 228.174 177.845 212.088C193.772 196.302 188.095 169.018 167.188 160.871C150.679 154.437 131.391 163.345 126.229 179.787L125.744 181.328L90.9279 181.229C50.0367 181.112 48.724 181.021 44.7658 177.999C40.1546 174.477 39.9744 172.89 39.8451 134.607L39.7424 104.253L41.1326 104.8C48.2527 107.607 54.4152 107.965 95.8295 107.973L125.717 107.98L126.195 109.506C130.554 123.433 145.933 132.577 160.911 130.148C185.87 126.1 195.764 95.2676 177.891 77.2343C162.129 61.3326 135.12 66.8878 126.732 87.7571L125.599 90.5748L95.6377 90.6523C65.3828 90.7312 56.5977 90.5578 51.8607 89.7865C42.2337 88.2196 40.3022 84.687 39.8703 67.8596L39.703 61.3509L41.2652 60.8735C51.7784 57.6613 60.4696 47.1019 62.0699 35.5984C65.0407 14.2408 45.7615 -3.7537 24.6555 0.675886ZM35.2673 17.9222C40.9326 19.5674 45.0861 25.2396 45.0861 31.33C45.0861 43.3708 30.6731 49.7414 21.7344 41.6521C10.6533 31.6252 20.8557 13.7361 35.2673 17.9222ZM159.59 85.8364C165.602 87.4891 169.735 92.9919 169.735 99.3415C169.735 111.76 154.699 117.963 145.908 109.172C135.758 99.0218 145.724 82.0244 159.59 85.8364ZM159.156 176.388C169.731 179.142 173.367 192.208 165.676 199.812C157.852 207.546 144.962 203.991 142.185 193.335C139.576 183.316 149.129 173.777 159.156 176.388Z" fill="#E0AB4D"/>
</svg>
