<svg width="210" height="211" viewBox="0 0 210 211" fill="none" xmlns="http://www.w3.org/2000/svg">
<path fill-rule="evenodd" clip-rule="evenodd" d="M73.2024 0.395281C71.2039 1.10808 69.8633 2.39135 68.8729 4.53911L68.351 5.67068L68.2866 22.3052L68.2227 38.9402L56.5041 39.007L44.7859 39.0737L43.5279 39.6677C41.9342 40.4191 40.5179 41.8377 39.7027 43.4981L39.066 44.7937L38.9992 56.5118L38.9325 68.2305L22.2974 68.2943L5.66293 68.3588L4.39431 68.9538C-1.45098 71.6955 -1.46855 79.8115 4.36444 82.5069C5.42572 82.9977 5.56688 83.0018 22.1931 83.0645L38.9518 83.1272V104.965V126.803L22.3074 126.866L5.66293 126.929L4.39431 127.524C-1.45098 130.266 -1.46855 138.382 4.36444 141.077C5.42572 141.568 5.56688 141.572 22.1832 141.635L38.9325 141.697L38.9992 153.422L39.066 165.147L39.8192 166.677C40.638 168.34 41.7825 169.476 43.4962 170.329L44.5569 170.856L56.3898 170.921L68.2227 170.986L68.2872 187.737L68.351 204.488L68.9918 205.793C71.7358 211.381 79.4407 211.42 82.3873 205.861L82.9935 204.717L83.0568 187.844L83.1194 170.971H104.956H126.793L126.857 187.73L126.921 204.488L127.562 205.793C130.306 211.381 138.011 211.42 140.957 205.861L141.564 204.717L141.627 187.852L141.689 170.986L153.524 170.921C165.099 170.858 165.381 170.846 166.428 170.362C167.943 169.662 169.475 168.162 170.215 166.656L170.849 165.365L170.914 153.531L170.979 141.697L187.844 141.635L204.71 141.571L205.854 140.965C211.819 137.803 211.216 129.228 204.892 127.274C203.46 126.832 202.784 126.815 187.183 126.815H170.963V104.971V83.1272L187.836 83.0645L204.71 83.0013L205.854 82.3951C211.819 79.2329 211.216 70.6576 204.892 68.7043C203.46 68.2621 202.784 68.2445 187.191 68.2445H170.979L170.914 56.4046C170.849 44.6449 170.845 44.5577 170.333 43.518C169.494 41.8172 168.332 40.6464 166.669 39.827L165.14 39.0737L153.409 39.007L141.678 38.9402V22.4855C141.678 6.50121 141.665 5.99575 141.213 4.78745C138.906 -1.37939 130.341 -1.6207 127.516 4.40206L126.921 5.67068L126.857 22.3151L126.793 38.9595H104.95H83.1083V22.4955C83.1083 6.5012 83.0948 5.99575 82.6427 4.78745C81.2786 1.14146 76.8659 -0.911416 73.2024 0.395281ZM156.092 104.965V156.1H104.957H53.8233V104.965V53.8311H104.957H156.092V104.965ZM83.1552 78.5142C81.7471 79.0027 80.5511 79.9041 79.5068 81.2652C78.0151 83.2086 78.059 82.4343 78.1269 105.555L78.189 126.471L78.8263 127.68C79.6099 129.168 80.9354 130.483 82.3674 131.195L83.4515 131.733L104.654 131.794L125.856 131.855L127.182 131.358C128.973 130.688 130.681 128.981 131.351 127.19L131.847 125.863L131.786 104.662L131.726 83.4593L131.197 82.3851C130.461 80.8916 129.056 79.5193 127.529 78.8035L126.235 78.1968L105.3 78.1452C85.5015 78.0966 84.3008 78.1165 83.1552 78.5142ZM117.198 105.08V117.206H105.072H92.9463V105.08V92.9541H105.072H117.198V105.08Z" fill="#E0AB4D"/>
</svg>
