<svg width="210" height="182" viewBox="0 0 210 182" fill="none" xmlns="http://www.w3.org/2000/svg">
<path fill-rule="evenodd" clip-rule="evenodd" d="M54.9506 0.274858C38.3211 2.86698 25.1871 14.3643 21.0478 29.9535C20.0625 33.6633 19.9239 35.642 19.9192 46.0598L19.9151 55.9504L12.8025 56.0165L5.68978 56.0826L4.37178 56.7246C2.83411 57.4731 1.53942 58.7431 0.639774 60.3851L0 61.5537V118.784V176.013L0.73941 177.458C1.61633 179.171 3.04504 180.515 4.85365 181.33L6.14485 181.913L60.6491 181.97C121.181 182.032 116.435 182.147 118.854 180.568C122.285 178.332 122.56 177.22 122.563 165.555L122.565 156.419H140.382H158.198L158.84 157.835C163.022 167.063 174.234 173.5 184.804 172.74C207.779 171.086 218.316 144.815 202.34 129.02C187.839 114.684 162.052 121.34 157.228 140.664L156.846 142.194H139.706H122.565V117.806V93.4183L131.158 93.3494C141.692 93.2654 143.046 92.8996 145.263 89.536C146.844 87.1377 146.794 87.6414 146.872 73.5312L146.943 60.7795L152.184 60.8383L157.426 60.8971L157.958 62.3621C162.127 73.8258 174.924 81.0823 187.427 79.0723C208.663 75.6577 217.411 50.8877 202.655 35.9523C188.825 21.953 164.731 26.9233 157.844 45.1959L157.328 46.5634H148.949C138.461 46.5634 137.008 46.8424 134.642 49.3101C132.187 51.8709 132.125 52.3056 132.125 66.9256V79.1697H127.357H122.589L122.521 70.4712L122.452 61.7728L121.844 60.5257C121.069 58.9358 119.484 57.4126 117.831 56.6669L116.534 56.0826L109.535 56.0165L102.536 55.9498V46.4911C102.536 41.2889 102.431 36.1983 102.303 35.1781C100.117 17.7945 86.9573 4.05857 69.1642 0.5897C65.9928 -0.0287803 58.0282 -0.205249 54.9506 0.274858ZM66.0679 14.5274C76.8124 16.3593 85.4988 24.8449 87.4088 35.3747C87.6664 36.7943 87.7421 39.3405 87.7421 46.592V55.9734H61.1117H34.4819L34.4825 47.9314C34.4825 43.508 34.5862 38.838 34.7126 37.5534C36.22 22.274 50.4051 11.8574 66.0679 14.5274ZM186.76 42.6312C191.613 43.9864 195.172 48.6586 195.172 53.6754C195.172 63.5935 182.824 68.841 175.166 62.1778C165.673 53.9185 174.413 39.1831 186.76 42.6312ZM107.771 118.998V168.017H61.1117H14.4526V118.998V69.9788H61.1117H107.771V118.998ZM58.1529 93.3987C44.0301 95.2917 35.6764 109.314 40.9006 122.357C42.778 127.045 48.1007 132.204 52.7003 133.794L53.7992 134.174L53.8709 139.223C53.9524 144.993 54.0859 145.517 55.9219 147.282C59.5933 150.812 65.6775 149.786 67.9144 145.258C68.493 144.088 68.5111 143.917 68.5845 139.076C68.634 135.815 68.7418 134.097 68.8974 134.097C70.1361 134.097 75.1576 130.885 77.1451 128.821C91.1671 114.259 78.5196 90.6693 58.1529 93.3987ZM64.2121 108.092C71.2624 111.278 68.5379 121.603 60.7703 121.133C52.804 120.651 51.5984 109.777 59.2798 107.684C60.6753 107.304 62.8708 107.485 64.2121 108.092ZM186.952 136.055C196.902 139.302 198.047 152.497 188.785 157.176C177.249 163.005 165.729 149.44 173.938 139.696C177.041 136.013 182.308 134.539 186.952 136.055Z" fill="#E0AB4D"/>
</svg>
