<svg width="190" height="152" viewBox="0 0 190 152" fill="none" xmlns="http://www.w3.org/2000/svg">
<path fill-rule="evenodd" clip-rule="evenodd" d="M4.55038 0.436965C3.88516 0.671371 3.0323 1.28924 2.13209 2.18887C-0.259902 4.58028 -0.0290021 -1.95094 0.038806 61.3562L0.0972604 116.835L0.775342 118.06C1.61418 119.574 2.86804 120.67 4.53227 121.344L5.806 121.859L34.5198 121.921L63.2337 121.982V129.163V136.343L51.3029 136.408C39.6119 136.472 39.3506 136.483 38.2995 136.969C32.623 139.592 32.6504 147.785 38.3446 150.491L39.6002 151.087H94.9731H150.346L151.602 150.491C156.673 148.081 157.438 141.102 152.99 137.819C151.027 136.369 150.922 136.359 138.203 136.359H126.713V129.166V121.974H155.049C186.336 121.974 184.663 122.049 186.935 120.531C188.131 119.731 189.365 118.066 189.727 116.762C190.166 115.184 190.041 6.32166 189.599 4.83339C189.114 3.19956 186.953 0.981768 185.298 0.421182C183.612 -0.151095 6.17486 -0.134728 4.55038 0.436965ZM175.349 60.892V107.131H94.9731H14.5971V60.892V14.6533H94.9731H175.349V60.892ZM111.87 129.166V136.359H94.9731H78.076V129.166V121.974H94.9731H111.87V129.166Z" fill="#E0AB4D"/>
</svg>
