<svg width="42" height="42" viewBox="0 0 42 42" fill="none" xmlns="http://www.w3.org/2000/svg">
<g clip-path="url(#clip0_1677_12)">
<path d="M41.3848 35.5C41.7246 35.5 42 35.2245 42 34.8848V31.354C42 29.6531 40.9147 28.1528 39.299 27.6204L35.4537 26.3552V25.0238C36.7927 24.2205 37.691 22.7548 37.691 21.0829V18.4313C37.691 15.8988 35.6307 13.8385 33.0982 13.8385C31.6066 13.8385 30.2792 14.5538 29.4397 15.6589C28.975 14.7868 28.1869 14.1067 27.2003 13.7826L23.3554 12.5167V11.1854C24.6944 10.382 25.5927 8.91639 25.5927 7.24451V4.59277C25.5928 2.0603 23.5325 0 21 0C18.4675 0 16.4072 2.0603 16.4072 4.59277V7.24443C16.4072 8.91631 17.3056 10.382 18.6446 11.1853V12.5167L14.8 13.7825C13.8132 14.1067 13.025 14.7868 12.5603 15.6589C11.7208 14.5537 10.3934 13.8385 8.90178 13.8385C6.36932 13.8385 4.30902 15.8988 4.30902 18.4313V21.0829C4.30902 22.7548 5.20734 24.2205 6.54634 25.0238V26.3552L2.70063 27.6205C1.08527 28.1528 0 29.6531 0 31.354V35.3848C0 35.7245 0.275379 36 0.615234 36C0.95509 36 1.23047 35.7245 1.23047 35.3848V31.354C1.23047 30.1855 1.97605 29.1548 3.08544 28.7892L6.68752 27.6039C7.01671 28.5083 7.88493 29.1559 8.9017 29.1559C9.9184 29.1559 10.7866 28.5082 11.1158 27.6039L14.7174 28.789C15.5069 29.0492 16.1186 29.6486 16.4015 30.4081L14.7996 30.9353C13.1838 31.467 12.0982 32.9672 12.0982 34.6681V35.3832H4.71081V33.8439C4.71081 33.5041 4.43543 33.2286 4.09557 33.2286C3.75572 33.2286 3.48034 33.5041 3.48034 33.8439V35.3832H1.23047V35.1707C1.23047 34.831 0.95509 34.5555 0.615234 34.5555C0.275379 34.5555 0 34.831 0 35.1707V35.9984C0 36.3382 0.275379 36.6137 0.615234 36.6137H12.0982V41.3846C12.0982 41.7244 12.3736 41.9998 12.7134 41.9998H29.2865C29.6263 41.9998 29.9017 41.7244 29.9017 41.3846V40.5628C29.9017 40.223 29.6263 39.9476 29.2865 39.9476C28.9466 39.9476 28.6712 40.223 28.6712 40.5628V40.7695H26.4214V37.1587C26.4214 36.8189 26.1461 36.5434 25.8062 36.5434C25.4664 36.5434 25.191 36.8189 25.191 37.1587V40.7695H16.809V37.1587C16.809 36.8189 16.5336 36.5434 16.1938 36.5434C15.8539 36.5434 15.5786 36.8189 15.5786 37.1587V40.7695H13.3287V34.6683C13.3287 33.4999 14.0743 32.4694 15.1842 32.1042L18.7859 30.9189C19.1152 31.8231 19.9833 32.4707 21 32.4707C22.0167 32.4707 22.8848 31.8232 23.2141 30.9189L26.8158 32.1042C27.9257 32.4695 28.6713 33.4999 28.6713 34.6683V40.3848C28.6713 40.7245 28.9467 41 29.2866 41C29.6264 41 29.9018 40.7245 29.9018 40.3848V36.6138H41.3848C41.7246 36.6138 42 36.3384 42 35.9986V35.1709C42 34.8311 41.7246 34.5557 41.3848 34.5557C41.0449 34.5557 40.7695 34.8311 40.7695 35.1709V35.3834H38.5197V33.844C38.5197 33.5043 38.2443 33.2288 37.9044 33.2288C37.5646 33.2288 37.2892 33.5043 37.2892 33.844V35.3834H29.9017V34.6683C29.9017 32.9673 28.8161 31.4672 27.2003 30.9355L25.5984 30.4082C25.8814 29.6488 26.493 29.0495 27.2822 28.7893L30.8841 27.6041C31.2133 28.5084 32.0815 29.156 33.0982 29.156C34.115 29.156 34.9832 28.5084 35.3124 27.6041L38.9141 28.7893C40.0239 29.1548 40.7695 30.1855 40.7695 31.354V34.8848C40.7695 35.2245 41.0449 35.5 41.3848 35.5ZM33.0982 15.0689C34.9522 15.0689 36.4605 16.5772 36.4605 18.4312V21.0829C36.4605 22.9368 34.9521 24.4451 33.0982 24.4451C31.2443 24.4451 29.736 22.9368 29.736 21.0829V18.4312C29.736 16.5772 31.2443 15.0689 33.0982 15.0689ZM17.6377 7.24443V4.59277C17.6377 2.73878 19.146 1.23047 21 1.23047C22.854 1.23047 24.3623 2.73878 24.3623 4.59277V7.24443C24.3623 9.09841 22.8539 10.6067 21 10.6067C19.1461 10.6067 17.6377 9.09841 17.6377 7.24443ZM21 11.8372C21.388 11.8372 21.7648 11.7884 22.125 11.6973V12.9456C22.1248 12.9514 22.1249 12.9572 22.125 12.9629C22.1245 13.5828 21.6201 14.087 21.0001 14.087C20.3801 14.087 19.8756 13.5828 19.8752 12.9629C19.8752 12.9571 19.8753 12.9513 19.8752 12.9456V11.6973C20.2352 11.7883 20.612 11.8372 21 11.8372ZM15.1844 14.9513L18.7858 13.7656C19.115 14.6699 19.9832 15.3174 20.9999 15.3174C22.0166 15.3174 22.8848 14.6699 23.214 13.7656L26.8159 14.9514C27.8443 15.2892 28.5575 16.1899 28.6571 17.2605C28.5584 17.6344 28.5054 18.0267 28.5054 18.4312V21.0829C28.5054 21.2387 28.5133 21.3928 28.5286 21.5447H25.5875C25.4819 19.1052 23.4649 17.153 20.9998 17.153C18.5348 17.153 16.5178 19.1052 16.4122 21.5447H13.4711C13.4863 21.3928 13.4943 21.2387 13.4943 21.0829V18.4312C13.4943 18.0267 13.4412 17.6345 13.3425 17.2605C13.4424 16.1899 14.1556 15.2893 15.1844 14.9513ZM21 27.7597C19.146 27.7597 17.6377 26.2514 17.6377 24.3974V21.7457C17.6377 19.8918 19.1461 18.3834 21 18.3834C22.8539 18.3834 24.3623 19.8918 24.3623 21.7457V24.3974C24.3623 26.2514 22.854 27.7597 21 27.7597ZM5.53941 21.0829V18.4312C5.53941 16.5772 7.0478 15.0689 8.9017 15.0689C10.7556 15.0689 12.2639 16.5772 12.2639 18.4312V21.0829C12.2639 22.9368 10.7556 24.4451 8.9017 24.4451C7.0478 24.4451 5.53941 22.9368 5.53941 21.0829ZM10.0266 26.8005C10.0266 27.4208 9.52202 27.9254 8.9017 27.9254C8.28138 27.9254 7.77673 27.4207 7.77673 26.8005V25.5358C8.13684 25.6268 8.51361 25.6756 8.9017 25.6756C9.28971 25.6756 9.66648 25.6268 10.0266 25.5358V26.8005ZM15.1023 27.6204L11.2571 26.3552V25.0237C12.1176 24.5075 12.7951 23.7175 13.17 22.7752H16.4072V24.3974C16.4072 26.0693 17.3056 27.5349 18.6446 28.3383V29.6699L17.57 30.0235C17.1659 28.8962 16.2675 28.0045 15.1023 27.6204ZM21 31.2401C20.3797 31.2401 19.875 30.7355 19.875 30.1151V30.1077V30.1041V28.8504C20.2351 28.9414 20.6119 28.9903 21 28.9903C21.3881 28.9903 21.7648 28.9414 22.125 28.8504V30.1041V30.1077V30.1151C22.125 30.7355 21.6203 31.2401 21 31.2401ZM26.8975 27.6205C25.7325 28.0045 24.8341 28.8962 24.4301 30.0236L23.3554 29.67V28.3384C24.6944 27.535 25.5928 26.0694 25.5928 24.3975V22.7752H28.83C29.2049 23.7175 29.8824 24.5076 30.7429 25.0237V26.3552L26.8975 27.6205ZM33.0982 27.9255C32.4779 27.9255 31.9733 27.4208 31.9733 26.8006V25.5358C32.3334 25.6269 32.7102 25.6757 33.0982 25.6757C33.4862 25.6757 33.863 25.6269 34.2232 25.5358V26.8006C34.2232 27.4208 33.7185 27.9255 33.0982 27.9255Z" fill="black"/>
</g>
<defs>
<clipPath id="clip0_1677_12">
<rect width="42" height="42" fill="white"/>
</clipPath>
</defs>
</svg>
