<svg width="350" height="45" viewBox="0 0 350 45" fill="none" xmlns="http://www.w3.org/2000/svg">
<path d="M5.81834 1.77398V38.9685H27.892V44.5269H0V1.77398H5.81834ZM60.0428 33.2917H43.3676L38.7489 44.5269H32.9906L51.9452 0H52.3051L71.2596 44.5269H64.5416L60.0428 33.2917ZM58.0634 28.3246L51.8852 12.7135L45.467 28.3246H58.0634ZM111.208 41.3338C109.809 42.2405 108.039 43.0782 105.9 43.8469C103.76 44.6156 101.431 45 98.9117 45C94.473 45 90.5641 44.0342 87.1851 42.1025C83.8061 40.1708 81.2068 37.569 79.3873 34.297C77.5678 31.025 76.6581 27.4179 76.6581 23.4757C76.6581 19.2576 77.5778 15.4632 79.4173 12.0926C81.2568 8.72208 83.8061 6.08081 87.0651 4.16886C90.3242 2.2569 94.0131 1.30092 98.132 1.30092C100.571 1.30092 102.851 1.61629 104.97 2.24704C107.089 2.87779 108.989 3.70565 110.668 4.73062L108.329 10.1117C105.01 7.90407 101.671 6.80026 98.3119 6.80026C95.5127 6.80026 92.9235 7.52957 90.5441 8.98817C88.1648 10.4468 86.2654 12.4277 84.8458 14.931C83.4262 17.4343 82.7164 20.184 82.7164 23.18C82.7164 26.2549 83.3662 29.0342 84.6658 31.5177C85.9654 34.0013 87.8249 35.9428 90.2442 37.3423C92.6635 38.7418 95.4527 39.4415 98.6118 39.4415C102.491 39.4415 105.87 38.3574 108.749 36.1892L111.208 41.3338ZM155.356 44.5269H149.537V25.7819H126.804V44.5269H120.985V1.77398H126.804V20.2825H149.537V1.77398H155.356V44.5269ZM196.024 1.77398V7.27332H173.65V20.2825H193.625V25.7819H173.65V38.9685H196.864V44.5269H167.832V1.77398H196.024ZM229.434 9.4021C227.85 8.56413 226.181 7.89035 224.456 7.39159C222.696 6.87911 221.037 6.62287 219.477 6.62287C217.118 6.62287 215.249 7.1452 213.869 8.18988C212.489 9.23456 211.799 10.6636 211.799 12.477C211.799 14.251 212.609 15.6997 214.229 16.8233C215.848 17.9468 218.158 19.0604 221.157 20.1643C223.396 20.9527 225.286 21.8101 226.825 22.7365C228.365 23.6629 229.644 24.9442 230.664 26.5802C231.684 28.2162 232.194 30.2957 232.194 32.8187C232.194 35.1051 231.614 37.1748 230.454 39.0276C229.294 40.8804 227.645 42.339 225.506 43.4034C223.366 44.4678 220.857 45 217.978 45C215.298 45 212.719 44.5762 210.24 43.7286C207.761 42.8811 205.581 41.8068 203.702 40.5059L206.281 35.9527C207.761 37.0565 209.54 37.9928 211.62 38.7615C213.699 39.5302 215.638 39.9146 217.438 39.9146C219.757 39.9146 221.787 39.3233 223.526 38.1406C225.266 36.958 226.135 35.2037 226.135 32.8778C226.135 30.9067 225.406 29.3397 223.946 28.1767C222.486 27.0138 220.437 25.9198 217.798 24.8949C215.358 23.9882 213.329 23.1012 211.71 22.2339C210.09 21.3666 208.7 20.1741 207.541 18.6564C206.381 17.1386 205.801 15.2365 205.801 12.9501C205.801 9.59921 206.991 6.88896 209.37 4.81932C211.749 2.74967 214.839 1.65572 218.638 1.53745C223.316 1.53745 227.655 2.68068 231.654 4.96715L229.434 9.4021ZM267.524 1.77398V7.27332H255.887V44.5269H250.069V7.27332H238.732V1.77398H267.524ZM300.694 44.5269L290.497 28.7385C290.177 28.7779 289.697 28.7976 289.057 28.7976H282.639V44.5269H276.821V1.77398H288.398C291.357 1.77398 293.996 2.28646 296.315 3.31143C298.635 4.3364 300.454 5.84428 301.774 7.83508C303.093 9.82589 303.753 12.2208 303.753 15.0197C303.753 17.661 303.163 20.0854 301.984 22.293C300.804 24.5007 298.995 26.1761 296.555 27.3193L307.472 44.5269H300.694ZM288.937 23.2392C292.057 23.2392 294.306 22.431 295.686 20.8147C297.065 19.1984 297.755 17.3456 297.755 15.2562C297.755 13.9947 297.465 12.753 296.885 11.5309C296.305 10.3088 295.386 9.29369 294.126 8.48555C292.866 7.6774 291.277 7.27332 289.357 7.27332H282.639V23.2392H288.937ZM350 1.77398L333.745 30.276V44.5269H327.926V30.276L311.851 1.77398H319.049L330.985 23.7714L342.862 1.77398H350Z" fill="white"/>
</svg>
