<svg width="110" height="110" viewBox="0 0 110 110" fill="none" xmlns="http://www.w3.org/2000/svg">
<path d="M1.01367 74.562C3.48981 77.6965 6.23329 80.6102 9.21325 83.2703C9.20409 83.0091 9.16742 82.7616 9.16742 82.5004C9.18535 77.8487 10.6103 73.3113 13.255 69.4845C15.8997 65.6578 19.6404 62.7207 23.9853 61.0595C24.7845 60.7572 25.4832 60.2375 26.0026 59.559C26.522 58.8806 26.8415 58.0705 26.9249 57.2202C27.0083 56.3699 26.8524 55.5131 26.4747 54.7467C26.097 53.9803 25.5126 53.3347 24.7874 52.8829C22.8058 51.6586 21.1718 49.9461 20.0419 47.9092C18.9119 45.8724 18.3239 43.5796 18.3341 41.2504C18.3241 38.5801 19.0949 35.9652 20.5518 33.7274C22.0086 31.4895 24.0879 29.7264 26.5337 28.6549C28.9796 27.5835 31.6854 27.2504 34.318 27.6967C36.9507 28.1431 39.3955 29.3493 41.3516 31.167C44.2168 29.5224 47.3569 28.412 50.6191 27.8899C48.8311 25.392 46.5586 23.2795 43.9369 21.6783C41.3153 20.0772 38.3981 19.0201 35.3593 18.5701C32.3205 18.1202 29.2223 18.2865 26.2491 19.0592C23.2759 19.8319 20.4887 21.1952 18.0536 23.0678C15.6184 24.9404 13.5851 27.284 12.0748 29.9591C10.5645 32.6341 9.60811 35.5857 9.26262 38.6382C8.91714 41.6906 9.18963 44.7814 10.0638 47.7263C10.9381 50.6712 12.3961 53.41 14.3512 55.7795C7.75486 60.1954 3.00889 66.8789 1.01367 74.562ZM108.988 74.562C106.995 66.8755 102.248 60.1885 95.6503 55.7704C97.599 53.4001 99.0512 50.6623 99.9206 47.7197C100.79 44.777 101.059 41.6896 100.711 38.6409C100.364 35.5923 99.4066 32.6446 97.897 29.9733C96.3874 27.3019 94.3561 24.9613 91.9239 23.0906C89.4917 21.22 86.7082 19.8574 83.7388 19.084C80.7695 18.3106 77.675 18.1421 74.6392 18.5885C71.6034 19.035 68.6884 20.0872 66.0675 21.6828C63.4465 23.2783 61.1731 25.3845 59.3824 27.8762C62.6446 28.3981 65.7848 29.5085 68.6499 31.1533C70.0542 29.8617 71.7125 28.8773 73.5188 28.2629C75.3251 27.6486 77.2397 27.4177 79.1402 27.5852C81.0408 27.7527 82.8855 28.3148 84.5565 29.2355C86.2276 30.1563 87.6881 31.4156 88.8449 32.9328C90.0017 34.45 90.8293 36.1918 91.2748 38.047C91.7203 39.9022 91.774 41.8299 91.4323 43.707C91.0906 45.5841 90.3611 47.3692 89.2904 48.9484C88.2197 50.5276 86.8313 51.866 85.2141 52.8783C84.4889 53.3301 83.9045 53.9757 83.5268 54.7421C83.1491 55.5085 82.9932 56.3653 83.0766 57.2156C83.16 58.066 83.4795 58.8761 83.9989 59.5545C84.5183 60.2329 85.217 60.7526 86.0162 61.0549C90.3619 62.7164 94.103 65.6542 96.7478 69.4818C99.3925 73.3095 100.817 77.8479 100.834 82.5004C100.834 82.7616 100.797 83.0091 100.788 83.2658C103.768 80.6071 106.511 77.6949 108.988 74.562Z" fill="#FFED00"/>
<path d="M86.872 92.9686C86.374 88.265 84.8496 83.7281 82.4064 79.678C79.9633 75.628 76.6609 72.1636 72.7324 69.5295C76.1022 65.4394 77.936 60.2998 77.9161 55.0003C77.914 51.3285 77.0297 47.711 75.3376 44.4524C73.6455 41.1937 71.1951 38.3894 68.1929 36.2755C65.1907 34.1616 61.7244 32.8001 58.0861 32.3055C54.4478 31.811 50.7439 32.1979 47.2864 33.4337C43.8288 34.6695 40.7188 36.718 38.2183 39.4068C35.7177 42.0955 33.8999 45.3457 32.9178 48.8837C31.9357 52.4217 31.8181 56.1439 32.5749 59.7368C33.3317 63.3297 34.9407 66.6882 37.2665 69.5295C33.338 72.1636 30.0356 75.628 27.5925 79.678C25.1493 83.7281 23.6249 88.265 23.127 92.9686C26.0365 94.4802 29.0509 95.7807 32.147 96.8599C32.1378 96.6536 32.0828 96.4611 32.0828 96.2503C32.102 91.5989 33.5274 87.0621 36.172 83.2355C38.8165 79.409 42.5565 76.4718 46.9007 74.8095C47.701 74.5076 48.4008 73.9879 48.9211 73.3091C49.4414 72.6303 49.7614 71.8194 49.8449 70.9682C49.9283 70.1169 49.7719 69.2593 49.3934 68.4924C49.0148 67.7254 48.4292 67.0797 47.7028 66.6282C45.7207 65.4057 44.0861 63.6941 42.956 61.6579C41.8259 59.6216 41.2383 57.3291 41.2495 55.0003C41.2495 51.3536 42.6981 47.8562 45.2767 45.2776C47.8554 42.6989 51.3527 41.2503 54.9995 41.2503C58.6462 41.2503 62.1436 42.6989 64.7222 45.2776C67.3008 47.8562 68.7495 51.3536 68.7495 55.0003C68.7607 57.3291 68.173 59.6216 67.0429 61.6579C65.9128 63.6941 64.2782 65.4057 62.2961 66.6282C61.5697 67.0797 60.9841 67.7254 60.6055 68.4924C60.227 69.2593 60.0706 70.1169 60.154 70.9682C60.2375 71.8194 60.5575 72.6303 61.0778 73.3091C61.5981 73.9879 62.2979 74.5076 63.0982 74.8095C67.4425 76.4718 71.1824 79.409 73.8269 83.2355C76.4715 87.0621 77.8969 91.5989 77.9161 96.2503C77.9161 96.4611 77.8611 96.6536 77.8565 96.8599C80.951 95.7805 83.964 94.4801 86.872 92.9686Z" fill="#FFED00"/>
</svg>
