<svg width="669" height="232" viewBox="0 0 669 232" fill="none" xmlns="http://www.w3.org/2000/svg">
<g clip-path="url(#clip0_1688_123)">
<path d="M298.386 62.2412H323.259C351.481 62.2412 366.883 75.1089 366.883 105.42C366.883 135.444 351.481 149.074 322.972 149.074H298.481V62.2412H298.386ZM322.877 138.876C343.445 138.876 352.916 129.535 352.916 105.515C352.916 81.6857 343.445 72.5354 322.877 72.5354H311.779V138.876H322.877Z" fill="white"/>
<path d="M425.24 133.824V84.1641H437.964V149.074H430.024C427.058 149.074 425.814 148.121 425.432 141.735C418.926 146.31 410.508 149.932 401.898 149.932C391.661 149.932 384.104 145.738 384.104 132.585V84.1641H396.827V129.725C396.827 138.018 400.941 140.019 406.872 140.019C413.473 140.019 420.074 136.874 425.24 133.824Z" fill="white"/>
<path d="M468.003 92.3613C474.318 87.4049 483.31 83.2109 492.877 83.2109C501.965 83.2109 509.523 86.9283 509.523 101.035V149.075H496.799V104.085C496.799 95.9833 493.164 93.7911 486.946 93.7911C479.866 93.7911 473.265 97.1271 467.908 100.273V149.17H455.184V84.1641H463.124C466.377 84.1641 467.716 85.4985 468.003 92.3613Z" fill="white"/>
<path d="M524.926 69.7716C524.926 65.673 528.37 62.3369 532.388 62.3369C536.406 62.3369 539.85 65.673 539.85 69.7716C539.85 73.7749 536.406 76.9203 532.388 76.9203C528.37 76.9203 524.926 73.7749 524.926 69.7716ZM525.882 149.075V84.1644H532.962C537.936 84.1644 538.606 85.6894 538.606 93.8866V149.075H525.882Z" fill="white"/>
<path d="M551.521 116.667C551.521 95.7927 565.201 83.2109 583.665 83.2109C593.71 83.2109 599.45 86.0704 603.181 88.4533V98.3662H597.92C595.145 95.6021 590.553 93.0285 583.474 93.0285C572.281 93.0285 564.436 101.512 564.436 116.762C564.436 132.394 571.802 140.21 583.282 140.21C591.797 140.21 596.389 136.969 599.068 134.015H603.755V143.165C600.024 146.12 593.136 149.837 582.995 149.837C563.288 149.742 551.521 137.255 551.521 116.667Z" fill="white"/>
<path d="M624.993 119.05C625.567 134.396 632.551 140.305 644.796 140.305C653.12 140.305 658.86 137.541 662.878 134.396H666.991V143.165C662.304 146.406 655.128 149.837 642.979 149.837C623.08 149.837 611.983 137.16 611.983 116.858C611.983 96.174 624.802 83.2109 641.735 83.2109C658.955 83.2109 669 93.2191 669 114.57C669 116.286 668.905 118.573 668.905 119.05H624.993ZM625.28 110.662H656.372C656.085 96.6505 650.632 91.7894 641.639 91.7894C633.221 91.8847 626.62 96.9365 625.28 110.662Z" fill="white"/>
<path d="M669 209.314H299.725V232H669V209.314Z" fill="white"/>
<path d="M4.11369 4.0986H228.74V227.901H4.11369V4.0986ZM0 232H232.854V0H0V232Z" fill="white"/>
<path d="M30.3264 98.7479H35.8751V133.157H30.3264V149.075H66.2972V133.157H60.7486V98.7479H66.2972V82.8301H30.3264V98.7479Z" fill="white"/>
<path d="M129.246 114.666C130.49 114.284 138.239 110.567 138.239 99.4151C138.239 90.8367 131.542 82.8301 120.062 82.8301H72.8984V98.7479H78.4471V133.157H72.8984V149.075H94.9975H123.315C131.829 149.075 140.439 141.164 140.439 130.488C140.439 123.244 135.943 117.525 129.246 114.952V114.666ZM111.261 133.252H101.312V123.34H111.261C114.131 123.34 116.236 125.722 116.236 128.296C116.331 130.87 114.322 133.252 111.261 133.252ZM101.312 108.28V98.7479H110.878C113.461 98.7479 115.566 100.94 115.566 103.514C115.566 105.992 113.366 108.28 110.783 108.28H101.312Z" fill="white"/>
<path d="M170.957 108.28C168.183 108.28 166.174 105.801 166.174 103.514C166.174 100.845 168.374 98.7479 170.957 98.7479H180.524V103.418H200.901V82.8301H166.652C153.737 82.8301 143.692 90.4554 143.692 103.418C143.692 114.666 152.876 123.244 164.261 123.244H177.845C180.715 123.244 182.82 125.722 182.82 128.201C182.82 130.774 180.62 133.157 177.845 133.157H167.896V128.391H147.232V148.98H183.681H184.733C196.118 148.98 205.397 139.734 205.397 128.391C205.397 117.049 196.022 108.28 184.638 108.28H170.957Z" fill="white"/>
</g>
<defs>
<clipPath id="clip0_1688_123">
<rect width="669" height="232" fill="white"/>
</clipPath>
</defs>
</svg>
