<svg width="581" height="99" viewBox="0 0 581 99" fill="none" xmlns="http://www.w3.org/2000/svg">
<g clip-path="url(#clip0_1674_4)">
<path d="M10.572 61.0844C9.70999 61.0844 9.00011 60.8063 8.44235 60.2503C7.88459 59.6942 7.60571 58.9864 7.60571 58.127V4.81869C7.60571 3.95929 7.88459 3.25154 8.44235 2.69546C9.00011 2.13937 9.70999 1.86133 10.572 1.86133H46.2433C47.0546 1.86133 47.7391 2.13937 48.2968 2.69546C48.9053 3.20099 49.2095 3.88346 49.2095 4.74286C49.2095 5.50116 48.9053 6.15835 48.2968 6.71444C47.7391 7.27052 47.0546 7.54856 46.2433 7.54856H13.5383V28.4776H37.3445C38.2065 28.4776 38.9163 28.7556 39.4741 29.3117C40.0319 29.8678 40.3107 30.5503 40.3107 31.3591C40.3107 32.168 40.0319 32.8504 39.4741 33.4065C38.9163 33.9626 38.2065 34.2407 37.3445 34.2407H13.5383V55.3972H46.2433C47.0546 55.3972 47.7391 55.6752 48.2968 56.2313C48.9053 56.7874 49.2095 57.4446 49.2095 58.2029C49.2095 59.0623 48.9053 59.77 48.2968 60.3261C47.7391 60.8316 47.0546 61.0844 46.2433 61.0844H10.572Z" fill="#F35F51"/>
<path d="M58.4417 61.0844C57.2248 61.0844 56.3882 60.5536 55.9318 59.492C55.5262 58.4303 55.729 57.4193 56.5403 56.4588L69.6984 40.0795L57.2248 24.3069C56.4135 23.3464 56.2107 22.3354 56.6163 21.2738C57.022 20.1616 57.8586 19.6055 59.1263 19.6055C59.9883 19.6055 60.7235 19.9088 61.332 20.5155L73.5773 36.1364L85.6706 20.9704C86.3805 20.0605 87.2171 19.6055 88.1805 19.6055C89.4988 19.6055 90.3101 20.1616 90.6144 21.2738C90.9693 22.3859 90.7665 23.4223 90.0059 24.3828L77.3042 40.0037L90.3101 56.5346C90.9693 57.3435 91.2482 58.1018 91.1468 58.8095C91.0454 59.5172 90.7158 60.0733 90.158 60.4778C89.651 60.8822 89.1185 61.0844 88.5608 61.0844C87.496 61.0844 86.6086 60.6294 85.8987 59.7195L73.3491 43.871L60.4953 60.1744C60.039 60.7811 59.3544 61.0844 58.4417 61.0844ZM115.945 61.4635C111.94 61.4635 108.365 60.5536 105.221 58.7337C102.128 56.8632 99.6689 54.3355 97.8435 51.1507C96.0688 47.9658 95.1814 44.3766 95.1814 40.3829C95.1814 36.3386 96.0434 32.7241 97.7674 29.5392C99.4914 26.3544 101.849 23.852 104.841 22.0321C107.832 20.1616 111.28 19.2264 115.185 19.2264C121.523 19.2264 126.67 21.6529 130.625 26.506C131.182 27.1126 131.385 27.7698 131.233 28.4776C131.081 29.1348 130.65 29.7161 129.94 30.2217C129.382 30.6261 128.748 30.7778 128.039 30.6766C127.379 30.525 126.796 30.1458 126.289 29.5392C123.348 26.2027 119.647 24.5344 115.185 24.5344C112.345 24.5344 109.835 25.2169 107.655 26.5818C105.525 27.9468 103.852 29.8172 102.635 32.1932C101.469 34.5692 100.886 37.2991 100.886 40.3829C100.886 43.4161 101.52 46.1206 102.787 48.4966C104.055 50.8726 105.83 52.7431 108.111 54.1081C110.393 55.473 113.004 56.1555 115.945 56.1555C120.002 56.1555 123.272 55.0686 125.757 52.8948C126.365 52.3892 126.999 52.1112 127.658 52.0606C128.317 52.0101 128.926 52.2123 129.484 52.6673C130.092 53.2234 130.422 53.8553 130.472 54.563C130.574 55.2708 130.346 55.8774 129.788 56.3829C126.086 59.77 121.472 61.4635 115.945 61.4635ZM161.558 61.4635C157.451 61.4635 153.8 60.5789 150.605 58.8095C147.462 56.9896 144.977 54.4872 143.152 51.3023C141.377 48.1175 140.49 44.4777 140.49 40.3829C140.49 36.2375 141.326 32.5977 142.999 29.4634C144.723 26.2785 147.081 23.7761 150.073 21.9562C153.064 20.1363 156.512 19.2264 160.417 19.2264C164.27 19.2264 167.617 20.111 170.456 21.8804C173.347 23.5992 175.578 26.0005 177.15 29.0842C178.721 32.168 179.507 35.6814 179.507 39.6246C179.507 40.4334 179.254 41.0906 178.747 41.5961C178.24 42.0511 177.581 42.2786 176.769 42.2786H146.042C146.346 45.0085 147.183 47.435 148.552 49.5583C149.921 51.6309 151.721 53.2739 153.952 54.4872C156.183 55.6499 158.718 56.2313 161.558 56.2313C163.383 56.2313 165.208 55.928 167.034 55.3213C168.91 54.6641 170.406 53.8553 171.521 52.8948C172.079 52.4398 172.713 52.2123 173.423 52.2123C174.133 52.1618 174.741 52.3387 175.248 52.7431C175.907 53.3498 176.237 54.0069 176.237 54.7147C176.288 55.4224 176.009 56.0291 175.4 56.5346C173.727 57.9501 171.597 59.1381 169.011 60.0986C166.425 61.0086 163.941 61.4635 161.558 61.4635ZM160.417 24.4586C156.512 24.4586 153.293 25.6719 150.757 28.0984C148.222 30.4744 146.701 33.5835 146.194 37.4255H174.031C173.626 33.5835 172.206 30.4744 169.772 28.0984C167.389 25.6719 164.27 24.4586 160.417 24.4586ZM206.791 61.4635C202.684 61.4635 199.033 60.5789 195.839 58.8095C192.695 56.9896 190.211 54.4872 188.385 51.3023C186.611 48.1175 185.723 44.4777 185.723 40.3829C185.723 36.2375 186.56 32.5977 188.233 29.4634C189.957 26.2785 192.315 23.7761 195.307 21.9562C198.298 20.1363 201.746 19.2264 205.65 19.2264C209.504 19.2264 212.851 20.111 215.69 21.8804C218.581 23.5992 220.812 26.0005 222.383 29.0842C223.955 32.168 224.741 35.6814 224.741 39.6246C224.741 40.4334 224.488 41.0906 223.981 41.5961C223.474 42.0511 222.814 42.2786 222.003 42.2786H191.275C191.58 45.0085 192.416 47.435 193.785 49.5583C195.154 51.6309 196.954 53.2739 199.186 54.4872C201.417 55.6499 203.952 56.2313 206.791 56.2313C208.617 56.2313 210.442 55.928 212.268 55.3213C214.144 54.6641 215.64 53.8553 216.755 52.8948C217.313 52.4398 217.947 52.2123 218.657 52.2123C219.367 52.1618 219.975 52.3387 220.482 52.7431C221.141 53.3498 221.471 54.0069 221.471 54.7147C221.521 55.4224 221.243 56.0291 220.634 56.5346C218.961 57.9501 216.831 59.1381 214.245 60.0986C211.659 61.0086 209.174 61.4635 206.791 61.4635ZM205.65 24.4586C201.746 24.4586 198.526 25.6719 195.991 28.0984C193.456 30.4744 191.935 33.5835 191.428 37.4255H219.265C218.859 33.5835 217.44 30.4744 215.006 28.0984C212.623 25.6719 209.504 24.4586 205.65 24.4586ZM252.101 61.4635C248.095 61.4635 244.495 60.5536 241.301 58.7337C238.106 56.8632 235.571 54.3355 233.695 51.1507C231.87 47.9658 230.957 44.3513 230.957 40.307C230.957 36.3133 231.844 32.7241 233.619 29.5392C235.444 26.3544 237.904 23.852 240.997 22.0321C244.09 20.1616 247.588 19.2264 251.493 19.2264C254.89 19.2264 257.958 19.9594 260.696 21.4254C263.434 22.8409 265.639 24.7366 267.313 27.1126V4.81869C267.313 3.90873 267.592 3.20099 268.149 2.69546C268.707 2.13937 269.417 1.86133 270.279 1.86133C271.141 1.86133 271.851 2.13937 272.409 2.69546C272.966 3.20099 273.245 3.90873 273.245 4.81869V40.6104C273.144 44.5535 272.155 48.1175 270.279 51.3023C268.454 54.4366 265.944 56.9138 262.749 58.7337C259.605 60.5536 256.056 61.4635 252.101 61.4635ZM252.101 56.1555C255.042 56.1555 257.653 55.473 259.935 54.1081C262.268 52.6926 264.093 50.7968 265.411 48.4208C266.78 46.0448 267.465 43.3402 267.465 40.307C267.465 37.3244 266.78 34.6451 265.411 32.2691C264.093 29.8425 262.268 27.9468 259.935 26.5818C257.653 25.2169 255.042 24.5344 252.101 24.5344C249.211 24.5344 246.6 25.2169 244.267 26.5818C241.935 27.9468 240.084 29.8425 238.715 32.2691C237.346 34.6451 236.661 37.3244 236.661 40.307C236.661 43.3402 237.346 46.0448 238.715 48.4208C240.084 50.7968 241.935 52.6926 244.267 54.1081C246.6 55.473 249.211 56.1555 252.101 56.1555ZM327.247 61.0844C326.435 61.0844 325.725 60.8063 325.117 60.2503C324.559 59.6436 324.28 58.9359 324.28 58.127V7.24524H306.255C305.443 7.24524 304.784 6.99248 304.277 6.48695C303.77 5.98142 303.516 5.3495 303.516 4.5912C303.516 3.78235 303.77 3.12516 304.277 2.61963C304.784 2.1141 305.443 1.86133 306.255 1.86133H348.315C349.126 1.86133 349.785 2.1141 350.292 2.61963C350.799 3.12516 351.053 3.78235 351.053 4.5912C351.053 5.3495 350.799 5.98142 350.292 6.48695C349.785 6.99248 349.126 7.24524 348.315 7.24524H330.213V58.127C330.213 58.9359 329.934 59.6436 329.376 60.2503C328.818 60.8063 328.109 61.0844 327.247 61.0844ZM366.484 61.4635C362.377 61.4635 358.726 60.5789 355.532 58.8095C352.388 56.9896 349.903 54.4872 348.078 51.3023C346.303 48.1175 345.416 44.4777 345.416 40.3829C345.416 36.2375 346.253 32.5977 347.926 29.4634C349.65 26.2785 352.008 23.7761 354.999 21.9562C357.991 20.1363 361.439 19.2264 365.343 19.2264C369.197 19.2264 372.543 20.111 375.383 21.8804C378.273 23.5992 380.504 26.0005 382.076 29.0842C383.648 32.168 384.434 35.6814 384.434 39.6246C384.434 40.4334 384.18 41.0906 383.673 41.5961C383.166 42.0511 382.507 42.2786 381.696 42.2786H350.968C351.273 45.0085 352.109 47.435 353.478 49.5583C354.847 51.6309 356.647 53.2739 358.878 54.4872C361.109 55.6499 363.645 56.2313 366.484 56.2313C368.31 56.2313 370.135 55.928 371.96 55.3213C373.836 54.6641 375.332 53.8553 376.448 52.8948C377.006 52.4398 377.639 52.2123 378.349 52.2123C379.059 52.1618 379.668 52.3387 380.175 52.7431C380.834 53.3498 381.163 54.0069 381.163 54.7147C381.214 55.4224 380.935 56.0291 380.327 56.5346C378.653 57.9501 376.524 59.1381 373.938 60.0986C371.352 61.0086 368.867 61.4635 366.484 61.4635ZM365.343 24.4586C361.439 24.4586 358.219 25.6719 355.684 28.0984C353.149 30.4744 351.627 33.5835 351.12 37.4255H378.958C378.552 33.5835 377.132 30.4744 374.698 28.0984C372.315 25.6719 369.197 24.4586 365.343 24.4586ZM411.185 61.4635C407.281 61.4635 403.782 60.5536 400.689 58.7337C397.596 56.8632 395.137 54.3355 393.312 51.1507C391.537 47.9658 390.65 44.3766 390.65 40.3829C390.65 36.3386 391.562 32.7241 393.388 29.5392C395.264 26.3544 397.799 23.852 400.993 22.0321C404.188 20.1616 407.788 19.2264 411.794 19.2264C415.799 19.2264 419.374 20.1616 422.518 22.0321C425.712 23.852 428.222 26.3544 430.048 29.5392C431.924 32.7241 432.887 36.3386 432.938 40.3829V58.2029C432.938 59.0623 432.659 59.77 432.101 60.3261C431.543 60.8316 430.834 61.0844 429.972 61.0844C429.11 61.0844 428.4 60.8316 427.842 60.3261C427.284 59.77 427.005 59.0623 427.005 58.2029V53.5772C425.281 56.0038 423.05 57.9248 420.312 59.3403C417.574 60.7558 414.532 61.4635 411.185 61.4635ZM411.794 56.1555C414.735 56.1555 417.346 55.473 419.628 54.1081C421.96 52.7431 423.786 50.8726 425.104 48.4966C426.473 46.0701 427.157 43.3655 427.157 40.3829C427.157 37.3497 426.473 34.6451 425.104 32.2691C423.786 29.8931 421.96 28.0226 419.628 26.6577C417.346 25.2422 414.735 24.5344 411.794 24.5344C408.903 24.5344 406.292 25.2422 403.96 26.6577C401.627 28.0226 399.776 29.8931 398.407 32.2691C397.038 34.6451 396.354 37.3497 396.354 40.3829C396.354 43.3655 397.038 46.0701 398.407 48.4966C399.776 50.8726 401.627 52.7431 403.96 54.1081C406.292 55.473 408.903 56.1555 411.794 56.1555ZM447.294 61.0844C446.381 61.0844 445.646 60.8316 445.088 60.3261C444.581 59.77 444.328 59.0623 444.328 58.2029V22.5629C444.328 21.7035 444.581 20.9957 445.088 20.4396C445.646 19.8835 446.381 19.6055 447.294 19.6055C448.156 19.6055 448.84 19.8835 449.347 20.4396C449.905 20.9957 450.184 21.7035 450.184 22.5629V24.2311C451.604 22.6134 453.277 21.3749 455.204 20.5155C457.131 19.6055 459.26 19.1505 461.593 19.1505C464.432 19.1505 466.942 19.7824 469.123 21.0463C471.354 22.3101 473.128 24.0542 474.447 26.2785C475.866 24.0542 477.768 22.3101 480.151 21.0463C482.534 19.7824 485.196 19.1505 488.137 19.1505C491.129 19.1505 493.765 19.8583 496.047 21.2738C498.38 22.6892 500.18 24.6861 501.447 27.2643C502.766 29.8425 503.425 32.8757 503.425 36.3639V58.2029C503.425 59.0623 503.146 59.77 502.588 60.3261C502.081 60.8316 501.397 61.0844 500.535 61.0844C499.673 61.0844 498.963 60.8316 498.405 60.3261C497.847 59.77 497.568 59.0623 497.568 58.2029V36.3639C497.568 32.7746 496.63 29.9436 494.754 27.8709C492.878 25.7477 490.47 24.6861 487.529 24.6861C484.385 24.6861 481.799 25.7477 479.771 27.8709C477.793 29.9436 476.83 32.7241 476.88 36.2122V36.3639V58.2029C476.88 59.0623 476.602 59.77 476.044 60.3261C475.537 60.8316 474.852 61.0844 473.99 61.0844C473.128 61.0844 472.418 60.8316 471.861 60.3261C471.303 59.77 471.024 59.0623 471.024 58.2029V36.3639C471.024 32.7746 470.086 29.9436 468.21 27.8709C466.334 25.7477 463.925 24.6861 460.984 24.6861C457.841 24.6861 455.255 25.7224 453.226 27.7951C451.198 29.8172 450.184 32.4713 450.184 35.7572V58.2029C450.184 59.0623 449.905 59.77 449.347 60.3261C448.84 60.8316 448.156 61.0844 447.294 61.0844Z" fill="#243A7E"/>
<path d="M509.167 82.1484C510.333 82.1484 511.28 83.0915 511.28 84.2548C511.28 85.4182 510.333 86.3614 509.167 86.3614L0 86.3612L6.70679e-08 82.1484H509.167Z" fill="#243A7E"/>
<path d="M578.887 94.7871C580.053 94.7871 581 95.7301 581 96.8935C581 98.0568 580.053 98.9999 578.887 98.9999H0L1.60962e-07 94.7871H578.887Z" fill="#F35F51"/>
</g>
<defs>
<clipPath id="clip0_1674_4">
<rect width="581" height="99" fill="white"/>
</clipPath>
</defs>
</svg>
