<svg width="486" height="131" viewBox="0 0 486 131" fill="none" xmlns="http://www.w3.org/2000/svg">
<g clip-path="url(#clip0_1683_105)">
<path fill-rule="evenodd" clip-rule="evenodd" d="M90.619 0.194741C88.4586 -0.519139 86.1974 0.800248 85.6101 2.99948C85.0217 5.20325 86.3391 7.45328 88.4978 8.18609C99.8051 12.0276 109.755 19.1247 117.064 28.6241C125.214 39.2155 129.621 52.198 129.6 65.5479C129.579 78.8989 125.129 91.8669 116.946 102.433C109.607 111.908 99.6338 118.975 88.3138 122.779C86.1526 123.506 84.8284 125.751 85.4102 127.957C85.9896 130.158 88.2473 131.485 90.4101 130.778C103.498 126.499 115.034 118.395 123.493 107.475C132.792 95.4687 137.848 80.7318 137.872 65.5617C137.896 50.3905 132.888 35.6379 123.627 23.6019C115.204 12.655 103.693 4.5144 90.619 0.194741ZM47.5656 130.811C49.7292 131.514 51.9844 130.184 52.5611 127.982C53.1381 125.775 51.8111 123.532 49.6482 122.809C38.323 119.021 28.3385 111.972 20.9843 102.507C12.7839 91.9548 8.31511 78.9933 8.27196 65.6434C8.22953 52.2928 12.6165 39.3034 20.7494 28.6991C28.0431 19.1883 37.9828 12.0753 49.2838 8.21642C51.4412 7.47979 52.7548 5.22828 52.1633 3.02525C51.5722 0.826772 49.3094 -0.489581 47.1499 0.228086C34.0822 4.56897 22.5842 12.727 14.1785 23.6876C4.93724 35.7378 -0.0481323 50.4981 0.000350299 65.6693C0.0480754 80.8404 5.1274 95.569 14.4452 107.561C22.9206 118.467 34.4702 126.553 47.5656 130.811ZM34.0557 30.6672C32.6095 29.2243 30.2581 29.2167 28.9157 30.7566C22.1342 38.5357 17.7617 48.146 16.3792 58.416C14.8323 69.9078 17.1163 81.5882 22.8789 91.66C28.6415 101.731 37.5637 109.634 48.2719 114.152C57.8388 118.19 68.3571 119.325 78.5217 117.462C80.5347 117.093 81.7269 115.058 81.2158 113.076C80.706 111.098 78.6924 109.923 76.6794 110.269C68.0945 111.744 59.2355 110.74 51.1648 107.334C41.9559 103.448 34.2829 96.6518 29.3271 87.9906C24.3712 79.3291 22.4069 69.2842 23.7372 59.4006C24.9015 50.7484 28.5347 42.6395 34.1662 36.0229C35.4956 34.4602 35.5087 32.1154 34.0557 30.6672ZM108.956 100.145C107.614 101.685 105.262 101.677 103.816 100.235C102.363 98.7857 102.376 96.4412 103.706 94.8785C109.337 88.2619 112.97 80.153 114.135 71.5008C115.465 61.6179 113.501 51.5719 108.545 42.9108C103.589 34.2503 95.9157 27.4533 86.7072 23.5671C78.6362 20.1614 69.7775 19.1572 61.1922 20.6327C59.1796 20.9783 57.166 19.8029 56.6562 17.825C56.1447 15.8432 57.3373 13.8092 59.3499 13.4402C69.5145 11.5766 80.0332 12.7119 89.6001 16.7489C100.308 21.2678 109.23 29.1705 114.993 39.2421C120.756 49.3129 123.04 60.9936 121.493 72.4861C120.11 82.7555 115.738 92.3653 108.956 100.145ZM34.4034 57.681C32.3103 57.1815 30.1869 58.4722 29.8968 60.6054C28.9332 67.6994 29.9475 74.9482 32.8671 81.543C36.3145 89.3303 42.2279 95.7751 49.7006 99.8892C57.1736 104.004 65.793 105.56 74.2381 104.32C81.3878 103.271 88.0777 100.267 93.5826 95.6765C95.2395 94.2948 95.1998 91.8038 93.6553 90.298C92.1184 88.799 89.6715 88.8497 87.9898 90.1845C83.7013 93.5871 78.569 95.8189 73.1016 96.6215C66.3459 97.6136 59.4509 96.3677 53.4721 93.0762C47.4946 89.785 42.7635 84.6294 40.0061 78.4001C37.7781 73.3672 36.9367 67.858 37.5337 62.4349C37.7691 60.291 36.5017 58.1812 34.4034 57.681ZM107.217 71.0523C106.928 73.1856 104.804 74.477 102.711 73.9767C100.613 73.4765 99.3453 71.3674 99.5807 69.2228C100.169 63.8739 99.3594 58.4394 97.1976 53.4614C94.5143 47.282 89.8935 42.1362 84.0291 38.7981C78.165 35.4596 71.3731 34.1085 64.6732 34.9467C59.2651 35.6227 54.1518 37.697 49.8278 40.932C48.1081 42.2182 45.6613 42.1992 44.1674 40.6569C42.6667 39.108 42.6984 36.6169 44.3932 35.2831C49.9536 30.909 56.6259 28.1103 63.7022 27.2251C72.0776 26.1778 80.5671 27.867 87.8981 32.0397C95.2288 36.2129 101.004 42.6439 104.359 50.3685C107.193 56.8974 108.168 64.0514 107.217 71.0523Z" fill="white"/>
<path fill-rule="evenodd" clip-rule="evenodd" d="M186.934 46.3187C186.934 44.1971 185.214 42.4766 183.092 42.4766C180.97 42.4766 179.251 44.1971 179.251 46.3187V74.9173C179.251 78.3151 179.251 79.4468 178.582 80.9795C177.58 83.1779 175.174 84.3773 173.037 84.3773C171.701 84.3773 170.364 83.9098 169.295 83.1114C169.024 82.9121 168.765 82.6912 168.522 82.4516C167.04 80.9923 165.015 79.5865 162.995 80.077C160.963 80.5696 159.713 82.6887 160.766 84.4952C161.974 86.5698 163.684 88.3545 165.821 89.5724C167.959 90.9045 170.498 91.4375 173.037 91.4375C178.649 91.4375 182.524 89.1725 185.13 84.7758C186.934 81.446 186.934 79.4468 186.934 74.9173V46.3187Z" fill="white"/>
<path fill-rule="evenodd" clip-rule="evenodd" d="M237.853 42.4766C239.956 42.4766 241.662 44.1823 241.662 46.2856V72.719C241.662 77.0492 240.192 81.2453 237.452 84.6431C233.911 89.1725 228.299 91.4375 222.42 91.4375C216.607 91.4375 210.928 89.106 207.387 84.6431C204.715 81.3794 203.111 76.8499 203.111 72.719V46.3187C203.111 44.2282 204.796 42.5279 206.886 42.5097C209.001 42.4914 210.728 44.2016 210.728 46.3187V71.7864C210.728 74.9173 211.262 77.3825 213.133 79.9808C215.338 82.778 218.878 84.3773 222.42 84.3773C225.961 84.3773 229.435 82.778 231.64 79.9129C233.578 77.3826 234.045 74.9839 234.045 71.7864V46.2856C234.045 44.1823 235.75 42.4766 237.853 42.4766Z" fill="white"/>
<path fill-rule="evenodd" clip-rule="evenodd" d="M290.704 55.653C292.997 55.0311 294.282 52.5359 293.035 50.5129C291.26 47.632 288.911 45.3074 286.101 43.7668C283.028 42.0348 279.42 41.4357 276.079 41.3691C272.872 41.3691 269.532 41.7015 266.191 43.3007C261.982 45.2319 258.775 49.6287 258.775 54.5577C258.775 57.7562 259.978 61.2205 262.65 63.5516C265.055 65.6834 268.262 66.9483 271.737 67.9483L280.623 70.5463C282.761 71.1454 284.365 71.9449 285.634 73.1432C286.836 74.2098 287.438 75.6749 287.438 77.2076C287.438 78.872 286.836 80.7381 285.032 82.0705C283.095 83.5356 279.687 84.2689 276.881 84.2689C273.207 84.2689 269.198 83.003 267.059 79.9386C266.494 79.2616 266.024 78.4656 265.634 77.5858C264.729 75.5364 262.606 74.1112 260.443 74.6976C258.435 75.242 257.186 77.3004 257.918 79.2492C258.641 81.1725 259.62 83.0751 260.98 84.8015C264.788 89.5303 270.266 91.3287 276.614 91.3287C281.491 91.3287 285.901 90.6634 289.442 88.1982C293.05 85.8005 295.389 81.5368 295.389 77.4069C295.389 73.6772 293.852 70.2795 291.112 67.6812C288.907 65.6159 286.302 64.2835 282.36 63.1517L273.874 60.6865C271.403 59.9546 268.998 59.0221 267.929 57.8893C267.127 57.023 266.659 55.9577 266.659 54.7584C266.659 52.8933 267.728 50.9608 269.665 49.8955C271.336 48.8965 273.608 48.4304 276.013 48.4304C278.351 48.4304 280.623 49.2288 282.36 50.2954C283.813 51.1566 284.873 52.2242 285.745 53.5142C286.858 55.1593 288.788 56.1732 290.704 55.653Z" fill="white"/>
<path fill-rule="evenodd" clip-rule="evenodd" d="M350.051 66.2984H336.973V87.6456C336.973 89.7316 335.282 91.4215 333.198 91.4215C331.112 91.4215 329.423 89.7316 329.423 87.6456V66.2984H315.666C313.459 66.2984 311.669 64.5089 311.669 62.3016C311.669 60.0939 313.459 58.3047 315.666 58.3047H350.051C352.26 58.3047 354.049 60.0939 354.049 62.3016C354.049 64.5089 352.26 66.2984 350.051 66.2984Z" fill="white"/>
<path fill-rule="evenodd" clip-rule="evenodd" d="M315.666 42.4766C313.459 42.4766 311.669 44.2657 311.669 46.4734C311.669 48.6808 313.459 50.4703 315.666 50.4703H350.051C352.26 50.4703 354.049 48.6808 354.049 46.4734C354.049 44.2657 352.26 42.4766 350.051 42.4766H315.666Z" fill="white"/>
<path fill-rule="evenodd" clip-rule="evenodd" d="M370.063 46.3307C370.063 44.2027 371.752 42.4766 373.837 42.4766C375.923 42.4766 377.612 44.2027 377.612 46.3307V87.583C377.612 89.7124 375.923 91.4375 373.837 91.4375C371.752 91.4375 370.063 89.7124 370.063 87.583V46.3307Z" fill="white"/>
<path fill-rule="evenodd" clip-rule="evenodd" d="M434.27 75.1275C432.244 74.5452 430.175 75.7415 429.135 77.572C428.852 78.0681 428.545 78.5469 428.207 79.0061C425.536 82.469 421.193 84.2689 416.716 84.2013C412.238 84.2689 407.899 82.469 405.358 79.0061C402.618 75.5419 401.819 70.8786 401.819 66.3491C401.819 61.8196 402.618 57.0895 405.358 53.6931C407.899 50.2289 412.238 48.4304 416.716 48.4304C421.193 48.4304 425.536 50.2289 428.207 53.6931C428.714 54.3378 429.152 55.0424 429.524 55.7915C430.417 57.5752 432.254 58.8297 434.219 58.4915C436.497 58.0999 437.951 55.7881 436.976 53.6931C436.235 52.0994 435.315 50.5391 434.157 49.0957C430.013 43.9674 423.599 41.3691 416.716 41.3691C409.901 41.3691 403.487 43.8995 399.344 49.0957C395.404 53.8924 393.867 59.8881 393.798 66.3491C393.798 72.6106 395.335 78.6062 399.344 83.5356C403.356 88.5977 409.767 91.3287 416.716 91.3287C423.399 91.3287 429.879 88.7984 434.157 83.5356C435.098 82.3511 435.894 81.1128 436.556 79.8287C437.538 77.9168 436.335 75.7208 434.27 75.1275Z" fill="white"/>
<path fill-rule="evenodd" clip-rule="evenodd" d="M453.459 46.4734C453.459 44.2657 455.248 42.4766 457.457 42.4766H480.389C482.595 42.4766 484.384 44.2657 484.384 46.4734C484.384 48.6808 482.595 50.4703 480.389 50.4703H457.457C455.248 50.4703 453.459 48.6808 453.459 46.4734Z" fill="white"/>
<path fill-rule="evenodd" clip-rule="evenodd" d="M453.459 87.4656C453.459 85.2583 455.248 83.4688 457.457 83.4688H480.389C482.595 83.4688 484.384 85.2583 484.384 87.4656C484.384 89.673 482.595 91.4625 480.389 91.4625H457.457C455.248 91.4625 453.459 89.673 453.459 87.4656Z" fill="white"/>
<path fill-rule="evenodd" clip-rule="evenodd" d="M453.459 66.8914C453.459 64.6841 455.248 62.8945 457.457 62.8945H480.389C482.595 62.8945 484.384 64.6841 484.384 66.8914C484.384 69.0991 482.595 70.8883 480.389 70.8883H457.457C455.248 70.8883 453.459 69.0991 453.459 66.8914Z" fill="white"/>
</g>
<defs>
<clipPath id="clip0_1683_105">
<rect width="486" height="131" fill="white"/>
</clipPath>
</defs>
</svg>
