<svg width="94" height="94" viewBox="0 0 94 94" fill="none" xmlns="http://www.w3.org/2000/svg">
<g clip-path="url(#clip0_2110_11)">
<path fill-rule="evenodd" clip-rule="evenodd" d="M0 0H5.875V88.125H94V94H0V0ZM58.75 20.5625C58.75 19.7834 59.0595 19.0363 59.6104 18.4854C60.1613 17.9345 60.9084 17.625 61.6875 17.625H85.1875C85.9666 17.625 86.7137 17.9345 87.2646 18.4854C87.8155 19.0363 88.125 19.7834 88.125 20.5625V44.0625C88.125 44.8416 87.8155 45.5887 87.2646 46.1396C86.7137 46.6905 85.9666 47 85.1875 47C84.4084 47 83.6613 46.6905 83.1104 46.1396C82.5595 45.5887 82.25 44.8416 82.25 44.0625V28.7875L61.0236 54.7374C60.7638 55.0545 60.4404 55.3138 60.0743 55.4985C59.7082 55.6831 59.3076 55.7891 58.898 55.8096C58.4885 55.83 58.0793 55.7646 57.6966 55.6173C57.3139 55.4701 56.9663 55.2444 56.6761 54.9548L41.4775 39.7561L19.9985 69.2897C19.5286 69.8872 18.8455 70.2793 18.0926 70.3836C17.3396 70.4879 16.5756 70.2963 15.961 69.849C15.3464 69.4018 14.9292 68.7337 14.7968 67.9852C14.6645 67.2367 14.8275 66.4661 15.2515 65.8353L38.7515 33.5228C39.0009 33.1791 39.3219 32.8937 39.6923 32.6861C40.0626 32.4785 40.4736 32.3536 40.8969 32.3201C41.3201 32.2866 41.7457 32.3452 42.1441 32.492C42.5425 32.6388 42.9044 32.8702 43.2048 33.1702L58.5326 48.504L78.9894 23.5H61.6875C60.9084 23.5 60.1613 23.1905 59.6104 22.6396C59.0595 22.0887 58.75 21.3416 58.75 20.5625Z" fill="#FFED00"/>
</g>
<defs>
<clipPath id="clip0_2110_11">
<rect width="94" height="94" fill="white"/>
</clipPath>
</defs>
</svg>
