<svg width="101" height="101" viewBox="0 0 101 101" fill="none" xmlns="http://www.w3.org/2000/svg">
<g clip-path="url(#clip0_2110_13)">
<path d="M95.2215 97.8596L75.7016 62.5509L79.6244 60.9851C81.1293 60.3846 82.392 58.6474 82.4995 57.0305L82.9872 49.6778C83.0689 48.4472 83.693 46.5254 84.3501 45.4814L88.2757 39.2475C89.1385 37.8764 89.1385 35.7283 88.2754 34.3572L84.3504 28.1233C83.693 27.0794 83.0689 25.1576 82.9872 23.927L82.4995 16.5742C82.392 14.9573 81.1293 13.2201 79.6244 12.6196L72.778 9.88735C71.633 9.43039 69.9996 8.24288 69.2112 7.29438L64.4998 1.62568C63.6918 0.653378 62.2117 0 60.8172 0C60.4778 0 60.1526 0.0388319 59.8509 0.115744L52.7054 1.93458C52.1362 2.07964 51.3327 2.16281 50.501 2.16281C49.6695 2.16281 48.866 2.07964 48.2966 1.93458L41.1508 0.115744C40.8489 0.0388319 40.5237 0 40.1842 0C38.7898 0 37.3097 0.653378 36.5017 1.62568L31.7903 7.29463C31.0016 8.24288 29.3684 9.43039 28.2235 9.8876L21.3771 12.6201C19.8721 13.2206 18.6095 14.9578 18.502 16.5747L18.0145 23.9275C17.9328 25.1583 17.3087 27.0799 16.6516 28.1236L12.7261 34.358C11.863 35.7288 11.863 37.8766 12.7261 39.2478L16.6511 45.4819C17.3085 46.5259 17.9325 48.4477 18.0142 49.6783L18.502 57.0308C18.6095 58.6477 19.8721 60.3848 21.3771 60.9854L25.2996 62.5509L5.78017 97.8596C5.34751 98.6418 5.30467 99.4387 5.66267 100.045C6.02068 100.652 6.73844 101 7.63233 101H29.627C31.2827 101 33.2078 99.8651 34.009 98.4158L48.855 71.5609C49.3418 71.4855 49.9132 71.4432 50.5005 71.4432C51.088 71.4432 51.6592 71.4855 52.146 71.5609L66.992 98.4158C67.7932 99.8651 69.7183 101 71.374 101H93.3689C94.2625 101 94.9808 100.652 95.3383 100.045C95.6968 99.4387 95.654 98.642 95.2215 97.8596ZM50.5007 12.7196C63.8013 12.7196 74.5835 23.5021 74.5835 36.8026C74.5835 50.1037 63.8013 60.8857 50.5007 60.8857C37.1999 60.8857 26.4177 50.1037 26.4177 36.8026C26.4177 23.5023 37.1999 12.7196 50.5007 12.7196Z" fill="#FFED00"/>
<path d="M46.0897 43.0541C44.6336 43.0541 43.4534 44.2346 43.4534 45.6904C43.4534 47.1462 44.6339 48.3267 46.0897 48.3267H54.9128C56.3689 48.3267 57.5491 47.1462 57.5491 45.6904C57.5491 44.2343 56.3686 43.0541 54.9128 43.0541H53.1375V26.2857C53.1375 25.239 52.5693 24.297 51.6552 23.8276C50.7407 23.3578 49.6447 23.445 48.7931 24.0555L44.5529 27.0977C43.3697 27.9465 43.0989 29.5935 43.9477 30.7765C44.7962 31.9595 46.4439 32.2308 47.6264 31.3817L47.8647 31.2109V43.0538H46.0897V43.0541Z" fill="#FFED00"/>
</g>
<defs>
<clipPath id="clip0_2110_13">
<rect width="101" height="101" fill="white"/>
</clipPath>
</defs>
</svg>
