<svg width="104" height="104" viewBox="0 0 104 104" fill="none" xmlns="http://www.w3.org/2000/svg">
<path d="M46.9282 64.0852L48.0735 67.9538H56.7257L46.8504 40.8271H38.6776L28.6934 67.9538H37.0841L38.3072 64.0852H46.9282ZM42.7484 49.9119H42.8231L45.2507 58.2777H40.1279L42.7484 49.9119Z" fill="#FFED00"/>
<path d="M64.9422 48.7783V55.4604H58.2539V61.2741H64.9422V67.9531H70.7466V61.2741H77.438V55.4604H70.7466V48.7783H64.9422Z" fill="#FFED00"/>
<path d="M51.995 89.0895C70.703 89.0895 85.9127 77.0325 85.9127 58.337C85.9127 39.6384 70.6936 24.4287 51.995 24.4287C46.2747 24.4287 37.4949 27.2018 36.1473 28.3844C34.7935 29.5795 35.2198 32.3028 37.7315 31.1295C40.2524 29.9561 46.8535 27.5939 51.995 27.5939C68.9507 27.5939 82.7506 41.3875 82.7506 58.337C82.7506 75.2834 68.9507 85.9149 51.995 85.9149C35.0456 85.9149 21.255 75.2834 21.255 58.337C21.255 52.9559 24.081 44.5838 25.0831 43.5132C26.0853 42.4301 23.5488 39.6976 22.5373 41.6085C21.5383 43.5132 18.0898 52.2525 18.0898 58.337C18.0898 77.0325 33.2996 89.0895 51.995 89.0895Z" fill="#FFED00"/>
<path d="M76.6344 0L75.875 0.0684702L75.8065 0H8.39453V104H95.6038V27.9825V19.8003V18.9787L76.6344 0ZM13.063 99.3316V4.66842H72.6631V23.2487H90.9353V99.3316H13.063Z" fill="#FFED00"/>
</svg>
