<svg width="480" height="129" viewBox="0 0 480 129" fill="none" xmlns="http://www.w3.org/2000/svg">
<path fill-rule="evenodd" clip-rule="evenodd" d="M84.8133 100.463C82.8182 101.735 80.227 100.87 79.1603 98.7598C78.0898 96.6445 78.9588 94.0838 80.9247 92.7583C85.8292 89.4537 89.8122 84.9152 92.4523 79.567C95.7298 72.9282 96.7646 65.3983 95.4 58.1091C94.0359 50.8199 90.346 44.1637 84.8853 39.1393C80.4779 35.0834 75.107 32.2676 69.323 30.938C67.0231 30.4091 65.3014 28.3433 65.5343 25.9951C65.7677 23.6364 67.8796 21.894 70.2018 22.3684C77.8192 23.926 84.9048 27.535 90.6722 32.8417C97.4982 39.1228 102.11 47.443 103.816 56.5549C105.521 65.667 104.229 75.078 100.132 83.3769C96.6681 90.3903 91.3606 96.2889 84.8133 100.463Z" fill="#0071E8"/>
<path fill-rule="evenodd" clip-rule="evenodd" d="M41.0659 52.4153C39.791 51.7016 38.165 52.1519 37.5806 53.4918C35.6382 57.9479 34.9594 62.8712 35.6462 67.7198C36.4572 73.4451 39.1276 78.7499 43.248 82.8205C47.3686 86.8914 52.7116 89.5035 58.458 90.2565C63.323 90.8944 68.2495 90.1695 72.6953 88.1896C74.0334 87.5935 74.4686 85.9588 73.7382 84.6893C73.0116 83.4256 71.4037 83.0059 70.058 83.5667C66.6267 84.9958 62.8607 85.504 59.1405 85.0165C54.5434 84.4144 50.2695 82.3244 46.9728 79.0676C43.6769 75.8113 41.5402 71.5676 40.8917 66.9877C40.3676 63.2875 40.8375 59.5327 42.2311 56.1003C42.7817 54.7433 42.3442 53.1304 41.0659 52.4153ZM86.16 74.6262C85.5758 75.9662 83.9495 76.4168 82.6748 75.7027C81.3965 74.9876 80.9589 73.3752 81.5096 72.0177C82.8841 68.6322 83.3607 64.9321 82.8696 61.2799C82.2602 56.7464 80.1939 52.5295 76.9805 49.2634C73.7674 45.9972 69.5804 43.8576 65.0483 43.1652C61.3901 42.606 57.6658 43.0148 54.2422 44.3279C52.8808 44.8499 51.2858 44.3847 50.5953 43.1007C49.9015 41.811 50.3833 40.1895 51.7373 39.6318C56.1794 37.8033 61.0563 37.2098 65.843 37.9411C71.5083 38.8069 76.7418 41.4816 80.7589 45.5643C84.7756 49.6473 87.3584 54.9175 88.1203 60.5846C88.7634 65.3744 88.0769 70.2286 86.16 74.6262Z" fill="#E42E88"/>
<path fill-rule="evenodd" clip-rule="evenodd" d="M44.453 29.5976C43.3856 27.4873 40.7952 26.6229 38.7999 27.8944C32.1655 32.1237 26.8059 38.122 23.3477 45.254C19.2643 53.6754 18.0579 63.2119 19.9137 72.4011C21.7694 81.5908 26.5848 89.9257 33.6216 96.1287C39.5786 101.381 46.8495 104.858 54.6086 106.216C56.9441 106.624 59.0053 104.822 59.1716 102.457C59.3374 100.104 57.5573 98.0873 55.2435 97.6247C49.3442 96.4439 43.8277 93.7241 39.2721 89.7082C33.6426 84.7464 29.7912 78.0785 28.3063 70.7264C26.8221 63.3756 27.7867 55.7464 31.0535 49.0099C33.6926 43.5673 37.716 38.9493 42.6885 35.599C44.6539 34.274 45.5235 31.7128 44.453 29.5976Z" fill="#004382"/>
<path fill-rule="evenodd" clip-rule="evenodd" d="M73.8789 3.81073C77.2 4.42237 79.0667 7.84504 78.1285 11.0874C77.1898 14.3385 73.7916 16.1686 70.4487 15.6415C62.111 14.3243 53.5362 15.1924 45.5768 18.2123C35.6964 21.9607 27.2924 28.8211 21.6293 37.7635C15.9656 46.7053 13.3474 57.2476 14.1661 67.8074C14.8262 76.331 17.699 84.496 22.4487 91.5099C24.3371 94.2993 24.1268 98.1318 21.5999 100.359C19.0622 102.596 15.1614 102.362 13.1966 99.6083C6.75322 90.5731 2.8605 79.9118 1.99584 68.7589C0.97291 55.5584 4.24628 42.3812 11.3253 31.2024C18.4052 20.0242 28.9081 11.4494 41.259 6.76356C51.6982 2.80496 62.9795 1.80399 73.8789 3.81073Z" fill="#0071E8"/>
<path fill-rule="evenodd" clip-rule="evenodd" d="M47.1266 117.096C46.1894 120.339 48.0551 123.761 51.3762 124.374C62.4204 126.407 73.8532 125.353 84.4018 121.265C96.8579 116.438 107.393 107.648 114.39 96.2428C121.389 84.8372 124.464 71.4466 123.144 58.1228C122.028 46.8427 117.814 36.1388 111.028 27.1745C108.986 24.4765 105.079 24.3547 102.606 26.6636C100.144 28.9612 100.043 32.7989 102.01 35.5324C107.025 42.5031 110.143 50.7094 110.997 59.3352C112.053 69.9938 109.592 80.7054 103.994 89.8306C98.3955 98.9536 89.9683 105.986 80.0041 109.847C71.9539 112.966 63.2596 113.878 54.8064 112.543C51.4645 112.015 48.0652 113.846 47.1266 117.096Z" fill="#004382"/>
<path d="M55.0857 27.0006C55.0857 29.443 53.1057 31.423 50.6633 31.423C48.2208 31.423 46.2408 29.443 46.2408 27.0006C46.2408 24.5581 48.2208 22.5781 50.6633 22.5781C53.1057 22.5781 55.0857 24.5581 55.0857 27.0006Z" fill="#004382"/>
<path d="M78.4616 100.917C78.4616 103.359 76.4816 105.339 74.0391 105.339C71.5967 105.339 69.6167 103.359 69.6167 100.917C69.6167 98.4741 71.5967 96.4941 74.0391 96.4941C76.4816 96.4941 78.4616 98.4741 78.4616 100.917Z" fill="#0071E8"/>
<path d="M70.8801 64.5895C70.8801 69.3 67.0616 73.1185 62.3511 73.1185C57.6407 73.1185 53.8221 69.3 53.8221 64.5895C53.8221 59.8791 57.6407 56.0605 62.3511 56.0605C67.0616 56.0605 70.8801 59.8791 70.8801 64.5895Z" fill="#E42E88"/>
<path d="M94.8484 13.1189C94.8484 17.1315 91.5955 20.3844 87.5829 20.3844C83.5704 20.3844 80.3175 17.1315 80.3175 13.1189C80.3175 9.10636 83.5704 5.85352 87.5829 5.85352C91.5955 5.85352 94.8484 9.10636 94.8484 13.1189Z" fill="#0071E8"/>
<path d="M44.3062 113.572C44.3062 117.585 41.0534 120.837 37.0408 120.837C33.0282 120.837 29.7754 117.585 29.7754 113.572C29.7754 109.559 33.0282 106.307 37.0408 106.307C41.0534 106.307 44.3062 109.559 44.3062 113.572Z" fill="#004382"/>
<path fill-rule="evenodd" clip-rule="evenodd" d="M167.554 107.616C167.554 113.632 167.554 113.632 163.628 113.632C159.702 113.632 159.6 113.632 159.6 107.616C159.6 96.9469 159.6 95.8409 159.6 87.3312C159.6 78.9569 159.6 71.762 159.6 63.4919C159.6 55.7311 159.6 52.1325 159.6 43.4918C159.6 36.6505 159.6 32.1788 159.6 22.2294C159.6 16.7999 159.6 16.7959 162.974 16.7965C167.553 16.7959 167.553 16.7993 167.554 22.2296C167.554 30.8644 167.554 31.1943 167.554 37.2761C167.554 47.2251 167.554 53.7618 167.554 63.4919C167.554 74.3729 167.554 74.3729 167.554 91.2772C167.554 107.616 167.554 91.2772 167.554 107.616Z" fill="black"/>
<path d="M214.8 61.565H237.42V68.52H214.8V61.565ZM215.45 81.065H241.125V88.15H207V42.65H240.215V49.735H215.45V81.065ZM271.605 88.8C268.138 88.8 264.91 88.2367 261.92 87.11C258.973 85.94 256.395 84.315 254.185 82.235C252.018 80.1117 250.328 77.62 249.115 74.76C247.902 71.9 247.295 68.78 247.295 65.4C247.295 62.02 247.902 58.9 249.115 56.04C250.328 53.18 252.04 50.71 254.25 48.63C256.46 46.5067 259.038 44.8817 261.985 43.755C264.932 42.585 268.16 42 271.67 42C275.397 42 278.798 42.65 281.875 43.95C284.952 45.2067 287.552 47.0917 289.675 49.605L284.215 54.74C282.568 52.9633 280.727 51.6417 278.69 50.775C276.653 49.865 274.443 49.41 272.06 49.41C269.677 49.41 267.488 49.8 265.495 50.58C263.545 51.36 261.833 52.465 260.36 53.895C258.93 55.325 257.803 57.015 256.98 58.965C256.2 60.915 255.81 63.06 255.81 65.4C255.81 67.74 256.2 69.885 256.98 71.835C257.803 73.785 258.93 75.475 260.36 76.905C261.833 78.335 263.545 79.44 265.495 80.22C267.488 81 269.677 81.39 272.06 81.39C274.443 81.39 276.653 80.9567 278.69 80.09C280.727 79.18 282.568 77.815 284.215 75.995L289.675 81.195C287.552 83.665 284.952 85.55 281.875 86.85C278.798 88.15 275.375 88.8 271.605 88.8ZM297.771 88.15V42.65H306.221V81H330.011V88.15H297.771ZM336.683 88.15V42.65H345.133V88.15H336.683ZM357.439 88.15V42.65H376.159C380.189 42.65 383.634 43.3 386.494 44.6C389.398 45.9 391.629 47.7633 393.189 50.19C394.749 52.6167 395.529 55.4983 395.529 58.835C395.529 62.1717 394.749 65.0533 393.189 67.48C391.629 69.9067 389.398 71.77 386.494 73.07C383.634 74.37 380.189 75.02 376.159 75.02H362.119L365.889 71.055V88.15H357.439ZM365.889 71.965L362.119 67.87H375.769C379.496 67.87 382.291 67.09 384.154 65.53C386.061 63.9267 387.014 61.695 387.014 58.835C387.014 55.9317 386.061 53.7 384.154 52.14C382.291 50.58 379.496 49.8 375.769 49.8H362.119L365.889 45.64V71.965ZM418.708 88.8C415.154 88.8 411.753 88.3017 408.503 87.305C405.253 86.265 402.674 84.9433 400.768 83.34L403.693 76.775C405.513 78.205 407.766 79.3967 410.453 80.35C413.139 81.3033 415.891 81.78 418.708 81.78C421.091 81.78 423.019 81.52 424.493 81C425.966 80.48 427.049 79.7867 427.743 78.92C428.436 78.01 428.783 76.9917 428.783 75.865C428.783 74.4783 428.284 73.3733 427.288 72.55C426.291 71.6833 424.991 71.0117 423.388 70.535C421.828 70.015 420.073 69.5383 418.123 69.105C416.216 68.6717 414.288 68.1733 412.338 67.61C410.431 67.0033 408.676 66.245 407.073 65.335C405.513 64.3817 404.234 63.125 403.238 61.565C402.241 60.005 401.743 58.0117 401.743 55.585C401.743 53.115 402.393 50.8617 403.693 48.825C405.036 46.745 407.051 45.0983 409.738 43.885C412.468 42.6283 415.913 42 420.073 42C422.803 42 425.511 42.3467 428.198 43.04C430.884 43.7333 433.224 44.73 435.218 46.03L432.553 52.595C430.516 51.3817 428.414 50.4933 426.248 49.93C424.081 49.3233 422.001 49.02 420.008 49.02C417.668 49.02 415.761 49.3017 414.288 49.865C412.858 50.4283 411.796 51.165 411.103 52.075C410.453 52.985 410.128 54.025 410.128 55.195C410.128 56.5817 410.604 57.7083 411.558 58.575C412.554 59.3983 413.833 60.0483 415.393 60.525C416.996 61.0017 418.773 61.4783 420.723 61.955C422.673 62.3883 424.601 62.8867 426.508 63.45C428.458 64.0133 430.213 64.75 431.773 65.66C433.376 66.57 434.654 67.805 435.608 69.365C436.604 70.925 437.103 72.8967 437.103 75.28C437.103 77.7067 436.431 79.96 435.088 82.04C433.788 84.0767 431.773 85.7233 429.043 86.98C426.313 88.1933 422.868 88.8 418.708 88.8ZM453.281 61.565H475.901V68.52H453.281V61.565ZM453.931 81.065H479.606V88.15H445.481V42.65H478.696V49.735H453.931V81.065Z" fill="black"/>
</svg>
