<svg width="203" height="227" viewBox="0 0 203 227" fill="none" xmlns="http://www.w3.org/2000/svg">
<path fill-rule="evenodd" clip-rule="evenodd" d="M98.4285 0.993265C97.9806 1.05512 96.882 1.29075 95.9869 1.51734C94.2064 1.96704 13.9083 36.1722 11.4889 37.5116C4.99041 41.1085 0.849498 47.8158 0.462698 55.3725C0.289784 58.7588 8.36049 124.296 9.857 131.654C14.0465 152.255 24.3394 168.622 43.4863 185.128C77.0421 214.055 94.7106 226.693 101.598 226.693C108.343 226.693 126.057 214.042 158.585 185.995C177.519 169.67 187.213 155.322 192.172 136.281C193.78 130.108 193.447 132.401 198.438 93.112C203.719 51.549 203.703 52.2114 199.53 45.2246C196.11 39.4981 194.885 38.7676 173.13 29.467C163.226 25.2327 144.624 17.2799 131.794 11.7938C105.016 0.344082 104.447 0.159891 98.4285 0.993265ZM142.973 35.4167C165.153 44.8993 183.594 52.9328 183.953 53.2685C184.949 54.1992 185.422 55.3162 185.404 56.6979C185.376 59.0361 176.932 125.265 176.245 128.543C173.456 141.842 165.479 155.917 155.085 165.875C142.72 177.725 104.059 208.502 101.54 208.502C99.0362 208.502 59.9833 177.427 48.1474 166.016C37.4892 155.741 30.0852 142.937 27.0769 129.58C26.1241 125.347 26.4019 127.398 22.0756 92.6498C19.9895 75.8947 18.2263 61.8442 18.1583 61.4264C17.3812 56.675 17.586 54.7719 19.0221 53.3957C20.1909 52.276 99.9813 18.2147 101.487 18.1925C102.438 18.1786 109.925 21.2876 142.973 35.4167ZM151.867 67.0446C149.313 68.0601 149.056 68.4187 124.325 105.465C111.165 125.176 100.349 141.359 100.288 141.425C100.226 141.491 92.6418 134.015 83.4336 124.81C64.5492 105.934 65.361 106.606 61.3965 106.572C55.0348 106.52 50.7966 113.214 53.589 118.906C54.7598 121.29 95.3515 161.748 97.6362 162.806C101.075 164.4 104.86 163.824 107.495 161.307C108.636 160.216 161.33 81.8152 163.048 78.6513C163.826 77.2195 163.727 73.0096 162.874 71.2761C160.93 67.3233 155.967 65.4154 151.867 67.0446Z" fill="#E0AB4D"/>
</svg>
