<svg width="169" height="215" viewBox="0 0 169 215" fill="none" xmlns="http://www.w3.org/2000/svg">
<path fill-rule="evenodd" clip-rule="evenodd" d="M48.456 0.518951C46.8519 1.1464 48.1245 -0.0614082 23.7458 23.9749C3.59583 43.8435 1.29763 46.1851 0.686693 47.4767L0.00848499 48.9108L0.00787378 128.477C0.00787378 219.069 -0.255092 209.337 2.25837 211.85C4.77123 214.362 -4.75548 214.101 84.0958 214.101C172.947 214.101 163.42 214.362 165.933 211.85C166.952 210.831 167.504 210.047 167.784 209.22C168.401 207.402 168.401 6.75736 167.784 4.93861C167.236 3.32046 164.922 1.00636 163.304 0.457796C161.391 -0.191057 50.12 -0.131737 48.456 0.518951ZM152.895 107.079V198.812H84.0958H15.2966V128.706V58.6002L36.8561 58.5311C61.5804 58.4522 59.6938 58.6253 62.1376 56.217C65.0528 53.3458 65.0455 54.1169 62.3565 32.9451C61.1744 23.6379 60.2075 15.8713 60.2075 15.6854C60.2075 15.3949 66.7425 15.3472 106.551 15.3472H152.895V107.079ZM46.7045 32.9298C47.2873 37.5152 47.8243 41.6695 47.897 42.1624L48.0297 43.0583H37.3056H26.5821L36.0085 33.7212C41.1926 28.5854 45.482 24.4311 45.5401 24.4886C45.5976 24.5467 46.1217 28.345 46.7045 32.9298ZM82.7822 59.2075C82.5193 59.2711 81.8478 59.4888 81.2907 59.6906C80.1795 60.0924 34.4063 92.1595 32.845 93.6291C32.3142 94.1293 31.6158 95.0754 31.2923 95.7322L30.7046 96.9266V124.877V152.826L31.3901 154.063C32.4291 155.937 31.7748 155.487 56.8629 171.604C83.6629 188.821 82.9376 188.442 86.6044 187.146C88.3394 186.534 134.637 156.766 135.745 155.55C137.732 153.371 137.606 155.449 137.606 124.91C137.606 94.2003 137.759 96.545 135.606 94.2883C134.221 92.8377 88.8255 60.5266 87.0979 59.7627C86.0448 59.2967 83.6696 58.991 82.7822 59.2075ZM99.4665 87.2983C107.674 93.1197 114.316 97.9613 114.226 98.0573C114.135 98.1533 107.321 101.352 99.0831 105.165L84.1044 112.098L68.9404 104.99C57.096 99.4382 53.8395 97.8194 54.0657 97.5944C54.9519 96.7107 83.9998 76.5057 84.2469 76.6005C84.4102 76.6629 91.2589 81.477 99.4665 87.2983ZM61.2728 118.526C69.4132 122.35 76.1598 125.564 76.2643 125.669C76.3689 125.773 76.427 134.807 76.3934 145.745L76.3322 165.63L61.1126 155.884L45.893 146.137L45.8838 128.733C45.8759 114.901 45.9352 111.354 46.1725 111.451C46.337 111.518 53.1319 114.702 61.2728 118.526ZM122.306 128.878L122.294 146.137L107.415 155.662C99.231 160.899 92.3554 165.286 92.1365 165.409C91.7653 165.616 91.7414 164.252 91.7983 145.636L91.8595 125.64L106.91 118.649C115.187 114.803 122.04 111.648 122.138 111.638C122.237 111.627 122.312 119.385 122.306 128.878Z" fill="#E0AB4D"/>
</svg>
