<svg width="853" height="108" viewBox="0 0 853 108" fill="none" xmlns="http://www.w3.org/2000/svg">
<path d="M247.5 97.8063L247.761 98.7716L247.5 97.8063ZM852.5 15.5L843.751 7.96473L841.6 19.3096L852.5 15.5ZM2 22.8047C1.29019 23.5091 1.2902 23.5091 1.29022 23.5091C1.29022 23.5091 1.29024 23.5091 1.29025 23.5091C1.29027 23.5092 1.29029 23.5092 1.29032 23.5092C1.29038 23.5093 1.29045 23.5093 1.29054 23.5094C1.2907 23.5096 1.29092 23.5098 1.2912 23.5101C1.29174 23.5106 1.2925 23.5114 1.29346 23.5124C1.2954 23.5143 1.29817 23.5171 1.30178 23.5207C1.309 23.528 1.31958 23.5386 1.33349 23.5525C1.36132 23.5803 1.4025 23.6213 1.45693 23.6752C1.56578 23.783 1.72759 23.9423 1.94143 24.1503L3.33596 22.7167C3.12648 22.5129 2.96895 22.3578 2.86428 22.2542C2.81194 22.2023 2.77283 22.1634 2.74704 22.1376C2.73415 22.1247 2.72459 22.1151 2.71838 22.1089C2.71528 22.1058 2.71301 22.1035 2.71158 22.1021C2.71086 22.1014 2.71036 22.1008 2.71007 22.1006C2.70992 22.1004 2.70982 22.1003 2.70978 22.1003C2.70976 22.1002 2.70975 22.1002 2.70976 22.1002C2.70976 22.1002 2.70976 22.1002 2.70977 22.1003C2.70978 22.1003 2.70979 22.1003 2.70979 22.1003C2.7098 22.1003 2.70981 22.1003 2 22.8047ZM3.40041 25.5461C3.82971 25.951 4.32307 26.412 4.87918 26.925L6.23524 25.4549C5.6847 24.9471 5.19676 24.4912 4.77275 24.0912L3.40041 25.5461ZM6.4205 28.3326C6.87086 28.74 7.34983 29.1699 7.85698 29.6212L9.18652 28.1271C8.68347 27.6795 8.20854 27.2531 7.76214 26.8494L6.4205 28.3326ZM9.40664 30.9889C9.87824 31.4018 10.3695 31.8288 10.88 32.2694L12.1866 30.7551C11.6797 30.3177 11.1921 29.8938 10.724 29.4841L9.40664 30.9889ZM12.4676 33.6288C12.9449 34.0345 13.4367 34.4499 13.9427 34.8743L15.228 33.3419C14.7253 32.9203 14.2369 32.5078 13.7629 32.1049L12.4676 33.6288ZM15.5036 36.1745C16.01 36.5935 16.5291 37.0202 17.0607 37.4542L18.3256 35.905C17.7973 35.4737 17.2816 35.0497 16.7785 34.6335L15.5036 36.1745ZM18.5935 38.6977C19.1155 39.1184 19.6484 39.5453 20.1922 39.978L21.4374 38.4129C20.897 37.9829 20.3674 37.5587 19.8487 37.1406L18.5935 38.6977ZM21.7551 41.2136C22.267 41.6159 22.7878 42.0226 23.3173 42.4335L24.5435 40.8535C24.0171 40.445 23.4995 40.0408 22.9907 39.641L21.7551 41.2136ZM24.9321 43.6788C25.4567 44.0808 25.9892 44.4864 26.5296 44.8955L27.7366 43.3007C27.1994 42.8941 26.6701 42.4909 26.1486 42.0913L24.9321 43.6788ZM28.1079 46.0828C28.6412 46.4816 29.1817 46.8834 29.7295 47.2879L30.9177 45.6791C30.3732 45.277 29.8358 44.8776 29.3056 44.4811L28.1079 46.0828ZM31.3801 48.4994C31.9033 48.8811 32.4327 49.2649 32.9682 49.6509L34.1375 48.0283C33.6052 47.6446 33.0788 47.263 32.5586 46.8836L31.3801 48.4994ZM34.5929 50.8146C35.1405 51.2045 35.6942 51.5962 36.2538 51.9897L37.4042 50.3536C36.8477 49.9624 36.2973 49.5729 35.7528 49.1853L34.5929 50.8146ZM37.9022 53.1416C38.4393 53.5145 38.9817 53.8889 39.5292 54.2645L40.6606 52.6153C40.1162 52.2418 39.577 51.8696 39.043 51.4988L37.9022 53.1416ZM41.1874 55.395C41.7453 55.7729 42.3083 56.152 42.8765 56.5321L43.9885 54.8698C43.4236 54.4919 42.8638 54.115 42.3092 53.7392L41.1874 55.395ZM44.5424 57.6396C45.0902 58.0015 45.6426 58.3641 46.1995 58.7274L47.2922 57.0523C46.7386 56.6911 46.1894 56.3306 45.6448 55.9708L44.5424 57.6396ZM47.8836 59.8191C48.4495 60.1836 49.0198 60.5486 49.5946 60.914L50.6676 59.2262C50.0962 58.8629 49.5292 58.5 48.9666 58.1377L47.8836 59.8191ZM51.292 61.9861C51.8487 62.3355 52.4094 62.6851 52.974 63.0349L54.0273 61.3346C53.4659 60.9869 52.9085 60.6394 52.3551 60.2921L51.292 61.9861ZM54.6799 64.0846C55.2524 64.4347 55.8289 64.7848 56.4094 65.1348L57.4423 63.4222C56.8653 63.0742 56.2922 62.7262 55.7231 62.3782L54.6799 64.0846ZM58.1472 66.1759C58.7116 66.5117 59.2796 66.8474 59.8511 67.1829L60.8636 65.4581C60.2955 65.1247 59.7309 64.791 59.1699 64.4571L58.1472 66.1759ZM61.5762 68.1887C62.1548 68.5237 62.7369 68.8584 63.3224 69.1927L64.3141 67.4558C63.732 67.1235 63.1535 66.7909 62.5784 66.4579L61.5762 68.1887ZM65.0895 70.1944C65.6663 70.5191 66.2465 70.8433 66.8298 71.167L67.8002 69.4182C67.2204 69.0964 66.6438 68.7742 66.0704 68.4515L65.0895 70.1944ZM68.573 72.1273C69.1572 72.4468 69.7445 72.7657 70.335 73.084L71.2839 71.3234C70.697 71.0071 70.1133 70.6901 69.5327 70.3726L68.573 72.1273ZM72.1159 74.0366C72.7106 74.3523 73.3084 74.6673 73.9093 74.9815L74.836 73.2091C74.2389 72.8969 73.6448 72.5839 73.0537 72.2701L72.1159 74.0366ZM75.6698 75.895C76.2595 76.1987 76.8521 76.5015 77.4475 76.8034L78.352 75.0196C77.7603 74.7196 77.1715 74.4187 76.5855 74.1169L75.6698 75.895ZM79.2423 77.7062C79.8434 78.0061 80.4472 78.3051 81.0539 78.6029L81.9354 76.8077C81.3326 76.5117 80.7326 76.2147 80.1353 75.9166L79.2423 77.7062ZM82.8659 79.4853C83.461 79.7728 84.0588 80.0591 84.6592 80.3443L85.5174 78.5378C84.9209 78.2545 84.327 77.97 83.7357 77.6844L82.8659 79.4853ZM86.4681 81.1964C87.0736 81.4793 87.6817 81.7609 88.2924 82.0412L89.1268 80.2236C88.5201 79.9451 87.916 79.6653 87.3145 79.3844L86.4681 81.1964ZM90.132 82.8783C90.7417 83.1533 91.3538 83.4269 91.9684 83.6991L92.7784 81.8705C92.1679 81.6001 91.5598 81.3283 90.9542 81.0552L90.132 82.8783ZM93.7916 84.4995C94.4017 84.7649 95.0142 85.0289 95.629 85.2914L96.4144 83.452C95.8037 83.1913 95.1954 82.9291 94.5894 82.6655L93.7916 84.4995ZM97.4805 86.0745C98.1 86.334 98.7219 86.5919 99.346 86.8483L100.106 84.9983C99.4861 84.7437 98.8686 84.4875 98.2533 84.2298L97.4805 86.0745ZM101.21 87.6067C101.825 87.8543 102.442 88.1002 103.061 88.3445L103.795 86.4842C103.181 86.2416 102.568 85.9973 101.958 85.7515L101.21 87.6067ZM104.925 89.0725C105.549 89.3135 106.174 89.5528 106.802 89.7903L107.51 87.9198C106.886 87.6839 106.265 87.4463 105.646 87.2071L104.925 89.0725ZM108.691 90.4976C109.321 90.7306 109.952 90.9619 110.586 91.1913L111.267 89.3107C110.638 89.083 110.011 88.8534 109.386 88.622L108.691 90.4976ZM112.462 91.8629C113.089 92.0849 113.719 92.305 114.35 92.5233L115.004 90.6331C114.377 90.4164 113.752 90.1978 113.129 89.9774L112.462 91.8629ZM116.25 93.1723C116.885 93.3867 117.523 93.5991 118.162 93.8095L118.787 91.9098C118.153 91.701 117.52 91.4901 116.89 91.2773L116.25 93.1723ZM120.085 94.4347C120.717 94.6375 121.351 94.8383 121.987 95.0371L122.584 93.1282C121.953 92.9309 121.323 92.7316 120.696 92.5303L120.085 94.4347ZM123.897 95.6264C124.536 95.8208 125.176 96.013 125.818 96.2031L126.386 94.2854C125.749 94.0967 125.113 93.906 124.479 93.7131L123.897 95.6264ZM127.75 96.7669C128.396 96.9527 129.043 97.1362 129.693 97.3175L130.231 95.3912C129.586 95.2113 128.944 95.0292 128.303 94.8449L127.75 96.7669ZM131.627 97.8495C132.269 98.0233 132.912 98.1948 133.557 98.3641L134.065 96.4296C133.425 96.2616 132.787 96.0914 132.15 95.919L131.627 97.8495ZM135.497 98.865C136.146 99.0297 136.796 99.192 137.447 99.3519L137.924 97.4096C137.278 97.2509 136.633 97.0899 135.99 96.9265L135.497 98.865ZM139.407 99.8246C140.061 99.9795 140.716 100.132 141.373 100.282L141.819 98.3322C141.167 98.1834 140.517 98.0322 139.868 97.8785L139.407 99.8246ZM143.32 100.718C143.971 100.861 144.623 101.002 145.277 101.14L145.69 99.1832C145.042 99.0462 144.395 98.9068 143.75 98.765L143.32 100.718ZM147.242 101.547C147.899 101.68 148.557 101.81 149.217 101.938L149.598 99.9748C148.943 99.8479 148.291 99.7185 147.64 99.5865L147.242 101.547ZM151.2 102.314C151.857 102.436 152.515 102.555 153.175 102.671L153.523 100.702C152.869 100.586 152.216 100.468 151.565 100.348L151.2 102.314ZM155.145 103.01C155.803 103.121 156.462 103.229 157.122 103.334L157.437 101.358C156.782 101.254 156.128 101.147 155.476 101.038L155.145 103.01ZM159.109 103.641C159.772 103.741 160.437 103.837 161.103 103.932L161.383 101.951C160.723 101.858 160.064 101.762 159.406 101.663L159.109 103.641ZM163.106 104.206C163.765 104.293 164.425 104.378 165.087 104.459L165.332 102.475C164.676 102.394 164.022 102.31 163.368 102.223L163.106 104.206ZM167.073 104.696C167.737 104.772 168.401 104.846 169.067 104.916L169.278 102.927C168.618 102.857 167.959 102.785 167.301 102.709L167.073 104.696ZM171.069 105.119C171.737 105.184 172.407 105.245 173.078 105.304L173.253 103.312C172.588 103.254 171.924 103.192 171.262 103.128L171.069 105.119ZM175.088 105.471C175.75 105.524 176.414 105.573 177.079 105.619L177.218 103.624C176.559 103.578 175.901 103.529 175.245 103.478L175.088 105.471ZM179.076 105.749C179.743 105.79 180.412 105.827 181.081 105.861L181.184 103.864C180.52 103.83 179.858 103.793 179.197 103.753L179.076 105.749ZM183.092 105.956C183.764 105.984 184.436 106.009 185.11 106.032L185.176 104.033C184.509 104.011 183.842 103.986 183.177 103.957L183.092 105.956ZM187.122 106.089C187.786 106.105 188.451 106.117 189.118 106.127L189.147 104.127C188.487 104.118 187.827 104.105 187.169 104.089L187.122 106.089ZM191.12 106.147C191.789 106.151 192.458 106.151 193.129 106.148L193.121 104.148C192.457 104.151 191.793 104.151 191.131 104.147L191.12 106.147ZM195.144 106.131C195.816 106.122 196.49 106.11 197.164 106.094L197.119 104.095C196.45 104.11 195.783 104.122 195.117 104.131L195.144 106.131ZM199.174 106.039C199.838 106.018 200.502 105.993 201.168 105.966L201.085 103.967C200.426 103.995 199.767 104.019 199.109 104.04L199.174 106.039ZM203.169 105.873C203.836 105.839 204.505 105.802 205.174 105.761L205.053 103.765C204.39 103.805 203.728 103.842 203.067 103.876L203.169 105.873ZM207.185 105.63C207.857 105.583 208.529 105.533 209.202 105.479L209.043 103.485C208.376 103.538 207.711 103.588 207.046 103.635L207.185 105.63ZM211.206 105.31C211.867 105.251 212.529 105.189 213.192 105.123L212.995 103.133C212.339 103.198 211.683 103.259 211.028 103.318L211.206 105.31ZM215.182 104.917C215.847 104.845 216.512 104.77 217.178 104.691L216.944 102.705C216.284 102.783 215.625 102.858 214.967 102.929L215.182 104.917ZM219.178 104.446C219.846 104.361 220.514 104.272 221.183 104.18L220.911 102.199C220.248 102.29 219.586 102.377 218.925 102.462L219.178 104.446ZM223.181 103.896C223.836 103.799 224.493 103.699 225.15 103.596L224.84 101.621C224.189 101.723 223.539 101.821 222.889 101.917L223.181 103.896ZM227.123 103.277C227.781 103.168 228.44 103.054 229.1 102.938L228.753 100.969C228.099 101.084 227.446 101.196 226.794 101.304L227.123 103.277ZM231.082 102.579C231.743 102.456 232.405 102.329 233.067 102.199L232.683 100.237C232.026 100.365 231.371 100.491 230.716 100.613L231.082 102.579ZM235.057 101.799C235.705 101.665 236.354 101.529 237.003 101.388L236.581 99.4334C235.938 99.5723 235.295 99.7079 234.653 99.8402L235.057 101.799ZM238.951 100.958C239.601 100.812 240.252 100.661 240.903 100.508L240.444 98.5613C239.799 98.7133 239.155 98.862 238.511 99.0073L238.951 100.958ZM242.858 100.038C243.51 99.8773 244.163 99.7137 244.817 99.5466L244.321 97.609C243.674 97.7744 243.027 97.9365 242.381 98.0953L242.858 100.038ZM246.779 99.0351C247.106 98.9482 247.434 98.8603 247.761 98.7716L247.239 96.8411C246.914 96.929 246.59 97.016 246.265 97.1022L246.779 99.0351ZM247.761 98.7716C248.077 98.686 248.394 98.6003 248.71 98.5144L248.187 96.5842C247.87 96.67 247.554 96.7557 247.239 96.8411L247.761 98.7716ZM250.616 97.9963C251.252 97.8227 251.891 97.6484 252.531 97.4733L252.003 95.5442C251.363 95.7192 250.726 95.8933 250.09 96.0666L250.616 97.9963ZM254.456 96.9457C255.099 96.769 255.744 96.5916 256.39 96.4134L255.859 94.4853C255.213 94.6633 254.569 94.8406 253.926 95.0171L254.456 96.9457ZM258.335 95.8765C258.984 95.6968 259.636 95.5163 260.289 95.3351L259.754 93.408C259.102 93.589 258.451 93.7693 257.802 93.9489L258.335 95.8765ZM262.236 94.7939C262.869 94.6179 263.502 94.4413 264.137 94.264L263.6 92.3377C262.965 92.5148 262.332 92.6913 261.7 92.8671L262.236 94.7939ZM266.047 93.7302C266.685 93.5517 267.325 93.3724 267.966 93.1926L267.425 91.267C266.785 91.4467 266.146 91.6258 265.508 91.8043L266.047 93.7302ZM269.893 92.6511C270.537 92.47 271.182 92.2883 271.829 92.106L271.286 90.181C270.64 90.3632 269.995 90.5448 269.351 90.7258L269.893 92.6511ZM273.774 91.5571C274.423 91.3736 275.075 91.1894 275.727 91.0047L275.182 89.0803C274.53 89.265 273.879 89.449 273.23 89.6325L273.774 91.5571ZM277.645 90.4614C278.278 90.2818 278.913 90.1017 279.548 89.921L279.002 87.9971C278.366 88.1777 277.732 88.3578 277.099 88.5373L277.645 90.4614ZM281.46 89.3775C282.099 89.1958 282.739 89.0136 283.38 88.8309L282.832 86.9074C282.191 87.0901 281.551 87.2722 280.913 87.4538L281.46 89.3775ZM285.308 88.2812C285.951 88.0975 286.596 87.9133 287.243 87.7287L286.693 85.8056C286.047 85.9902 285.402 86.1743 284.759 86.358L285.308 88.2812ZM289.186 87.1732C289.835 86.9876 290.485 86.8015 291.137 86.6149L290.586 84.6922C289.935 84.8787 289.285 85.0647 288.636 85.2503L289.186 87.1732ZM293.043 86.0688C293.677 85.8872 294.312 85.7051 294.949 85.5226L294.397 83.6001C293.761 83.7826 293.126 83.9646 292.492 84.1462L293.043 86.0688ZM296.861 84.974C297.499 84.7907 298.139 84.6071 298.78 84.423L298.228 82.5007C297.587 82.6847 296.948 82.8684 296.309 83.0516L296.861 84.974ZM300.707 83.8696C301.35 83.6848 301.994 83.4995 302.64 83.3139L302.088 81.3918C301.442 81.5774 300.798 81.7626 300.154 81.9474L300.707 83.8696ZM304.581 82.7561C305.229 82.5697 305.878 82.3831 306.528 82.196L305.975 80.2739C305.325 80.461 304.676 80.6476 304.028 80.8339L304.581 82.7561ZM308.438 81.6465C309.072 81.4641 309.708 81.2814 310.344 81.0984L309.791 79.1764C309.155 79.3594 308.52 79.5421 307.886 79.7245L308.438 81.6465ZM312.256 80.5484C312.894 80.3648 313.533 80.1809 314.174 79.9966L313.621 78.0746C312.98 78.2588 312.341 78.4428 311.703 78.6264L312.256 80.5484ZM316.099 79.4431C316.741 79.2583 317.385 79.0732 318.03 78.8878L317.477 76.9657C316.832 77.151 316.188 77.3361 315.546 77.521L316.099 79.4431ZM319.967 78.3308C320.614 78.1449 321.262 77.9587 321.911 77.7723L321.358 75.8501C320.709 76.0365 320.061 76.2227 319.414 76.4087L319.967 78.3308ZM323.836 77.2194C324.47 77.0373 325.105 76.855 325.741 76.6724L325.189 74.7501C324.553 74.9326 323.918 75.115 323.283 75.2971L323.836 77.2194ZM327.652 76.1241C328.289 75.9412 328.928 75.7579 329.568 75.5745L329.017 73.6519C328.377 73.8354 327.738 74.0186 327.1 74.2017L327.652 76.1241ZM331.491 75.0237C332.133 74.8398 332.776 74.6558 333.419 74.4716L332.869 72.5487C332.225 72.733 331.582 72.9171 330.94 73.101L331.491 75.0237ZM335.354 73.9183C335.999 73.7337 336.646 73.5489 337.293 73.3639L336.744 71.4408C336.096 71.6259 335.45 71.8107 334.804 71.9954L335.354 73.9183ZM339.239 72.8085C339.873 72.6275 340.509 72.4463 341.145 72.2649L340.597 70.3415C339.96 70.5229 339.325 70.7042 338.69 70.8852L339.239 72.8085ZM343.055 71.7208C343.693 71.5393 344.331 71.3577 344.97 71.1759L344.423 69.2521C343.784 69.434 343.145 69.6157 342.507 69.7973L343.055 71.7208ZM346.891 70.6301C347.532 70.448 348.174 70.2658 348.817 70.0835L348.271 68.1594C347.628 68.3418 346.986 68.524 346.345 68.7061L346.891 70.6301ZM350.748 69.5362C351.393 69.3537 352.038 69.171 352.685 68.9882L352.14 67.0637C351.494 67.2465 350.848 67.4293 350.203 67.6119L350.748 69.5362ZM354.626 68.4396C355.271 68.2576 355.916 68.0755 356.563 67.8933L356.02 65.9683C355.373 66.1506 354.728 66.3328 354.083 66.5149L354.626 68.4396ZM358.472 67.3555C359.109 67.1762 359.747 66.9968 360.386 66.8173L359.845 64.8919C359.206 65.0714 358.568 65.2509 357.93 65.4303L358.472 67.3555ZM362.305 66.2787C362.946 66.099 363.587 65.9194 364.229 65.7396L363.69 63.8137C363.047 63.9935 362.406 64.1733 361.765 64.353L362.305 66.2787ZM366.157 65.2002C366.801 65.0204 367.446 64.8405 368.091 64.6606L367.554 62.7341C366.908 62.9141 366.263 63.0941 365.619 63.274L366.157 65.2002ZM370.029 64.1206C370.676 63.9406 371.323 63.7605 371.972 63.5805L371.437 61.6534C370.788 61.8336 370.14 62.0137 369.493 62.1938L370.029 64.1206ZM373.907 63.0435C374.544 62.867 375.182 62.6904 375.82 62.5138L375.287 60.5862C374.648 60.7629 374.01 60.9395 373.373 61.1162L373.907 63.0435ZM377.738 61.9841C378.378 61.8075 379.019 61.6309 379.66 61.4542L379.129 59.526C378.488 59.7027 377.846 59.8794 377.206 60.0561L377.738 61.9841ZM381.587 60.9245C382.23 60.7479 382.873 60.5713 383.518 60.3947L382.989 58.4658C382.344 58.6425 381.7 58.8192 381.057 58.9959L381.587 60.9245ZM385.453 59.865C386.099 59.6885 386.745 59.512 387.393 59.3355L386.866 57.406C386.219 57.5826 385.572 57.7592 384.926 57.9358L385.453 59.865ZM389.336 58.8062C389.983 58.6304 390.63 58.4547 391.277 58.279L390.754 56.3488C390.106 56.5246 389.458 56.7004 388.812 56.8763L389.336 58.8062ZM393.194 57.7597C393.834 57.5866 394.474 57.4136 395.115 57.2406L394.594 55.3097C393.953 55.4828 393.312 55.6559 392.672 55.8291L393.194 57.7597ZM397.041 56.7219C397.683 56.5491 398.326 56.3763 398.97 56.2036L398.451 54.2719C397.807 54.4447 397.164 54.6176 396.521 54.7906L397.041 56.7219ZM400.903 55.6856C401.548 55.513 402.194 55.3405 402.84 55.1681L402.324 53.2357C401.678 53.4082 401.031 53.5809 400.386 53.7536L400.903 55.6856ZM404.781 54.6511C405.429 54.4788 406.077 54.3067 406.726 54.1346L406.213 52.2014C405.564 52.3736 404.915 52.5459 404.267 52.7183L404.781 54.6511ZM408.675 53.6186C409.315 53.4494 409.956 53.2802 410.598 53.1112L410.088 51.1772C409.446 51.3464 408.805 51.5157 408.164 51.685L408.675 53.6186ZM412.522 52.6049C413.164 52.4363 413.807 52.2677 414.45 52.0993L413.944 50.1645C413.3 50.3331 412.657 50.5017 412.014 50.6705L412.522 52.6049ZM416.382 51.5943C417.026 51.4261 417.672 51.2581 418.317 51.0901L417.814 49.1545C417.168 49.3226 416.522 49.4908 415.877 49.6591L416.382 51.5943ZM420.256 50.5867C420.903 50.419 421.551 50.2515 422.199 50.0841L421.699 48.1476C421.05 48.3152 420.402 48.4828 419.755 48.6507L420.256 50.5867ZM424.145 49.5823C424.795 49.4151 425.445 49.2482 426.095 49.0814L425.598 47.144C424.947 47.311 424.297 47.4781 423.647 47.6454L424.145 49.5823ZM428.034 48.5851C428.676 48.4211 429.318 48.2572 429.962 48.0934L429.468 46.1553C428.824 46.3191 428.181 46.4832 427.539 46.6474L428.034 48.5851ZM431.893 47.6027C432.537 47.4393 433.182 47.2761 433.827 47.113L433.337 45.174C432.691 45.3372 432.046 45.5006 431.401 45.6641L431.893 47.6027ZM435.765 46.6243C436.412 46.4616 437.059 46.2991 437.706 46.1367L437.22 44.1968C436.572 44.3593 435.924 44.522 435.277 44.6848L435.765 46.6243ZM439.651 45.6502C440.3 45.4882 440.949 45.3265 441.599 45.1649L441.116 43.224C440.466 43.3857 439.816 43.5477 439.166 43.7098L439.651 45.6502ZM443.55 44.6807C444.201 44.5195 444.852 44.3585 445.504 44.1977L445.025 42.2559C444.372 42.4168 443.72 42.578 443.069 42.7393L443.55 44.6807ZM447.437 43.722C448.081 43.5637 448.726 43.4057 449.371 43.2479L448.896 41.3051C448.25 41.4631 447.605 41.6213 446.96 41.7797L447.437 43.722ZM451.309 42.7751C451.955 42.6177 452.602 42.4605 453.249 42.3036L452.778 40.3599C452.13 40.517 451.483 40.6743 450.836 40.8319L451.309 42.7751ZM455.193 41.8335C455.841 41.677 456.49 41.5208 457.14 41.3647L456.673 39.4201C456.022 39.5763 455.373 39.7327 454.724 39.8893L455.193 41.8335ZM459.089 40.8974C459.74 40.7419 460.391 40.5866 461.042 40.4316L460.579 38.4859C459.927 38.6411 459.275 38.7966 458.624 38.9523L459.089 40.8974ZM462.997 39.9672C463.648 39.8131 464.299 39.6592 464.95 39.5056L464.491 37.559C463.839 37.7128 463.188 37.8668 462.536 38.021L462.997 39.9672ZM466.888 39.0498C467.535 38.8981 468.182 38.7467 468.829 38.5956L468.374 36.6479C467.726 36.7993 467.079 36.9509 466.432 37.1027L466.888 39.0498ZM470.773 38.1429C471.421 37.9922 472.07 37.8419 472.719 37.6918L472.269 35.7432C471.619 35.8934 470.969 36.044 470.32 36.1948L470.773 38.1429ZM474.668 37.2424C475.318 37.0929 475.969 36.9436 476.62 36.7947L476.174 34.8451C475.522 34.9942 474.871 35.1436 474.22 35.2933L474.668 37.2424ZM478.575 36.3487C479.227 36.2003 479.879 36.0522 480.532 35.9044L480.09 33.9538C479.437 34.1017 478.784 34.25 478.131 34.3985L478.575 36.3487ZM482.492 35.462C483.143 35.3154 483.794 35.1692 484.446 35.0233L484.009 33.0716C483.356 33.2177 482.704 33.3641 482.053 33.5108L482.492 35.462ZM486.39 34.5891C487.039 34.4447 487.688 34.3006 488.337 34.1568L487.905 32.2041C487.254 32.3481 486.605 32.4924 485.955 32.6369L486.39 34.5891ZM490.286 33.7263C490.937 33.5832 491.587 33.4403 492.238 33.2978L491.811 31.3441C491.159 31.4868 490.507 31.6298 489.856 31.7731L490.286 33.7263ZM494.193 32.8712C494.845 32.7293 495.497 32.5878 496.15 32.4466L495.727 30.4918C495.073 30.6332 494.42 30.7749 493.768 30.917L494.193 32.8712ZM498.109 32.024C498.763 31.8834 499.417 31.7432 500.071 31.6034L499.653 29.6476C498.998 29.7876 498.343 29.928 497.689 30.0687L498.109 32.024ZM502.035 31.1849C502.687 31.0464 503.34 30.9082 503.992 30.7704L503.579 28.8135C502.926 28.9515 502.272 29.0898 501.62 29.2285L502.035 31.1849ZM505.943 30.36C506.594 30.2235 507.245 30.0874 507.896 29.9517L507.488 27.9938C506.836 28.1297 506.184 28.266 505.532 28.4026L505.943 30.36ZM509.851 29.5455C510.503 29.4105 511.156 29.2759 511.809 29.1416L511.406 27.1826C510.752 27.317 510.099 27.4519 509.446 27.5871L509.851 29.5455ZM513.768 28.7398C514.422 28.6063 515.076 28.4731 515.73 28.3403L515.332 26.3803C514.677 26.5132 514.022 26.6466 513.368 26.7803L513.768 28.7398ZM517.694 27.9431C518.349 27.8111 519.005 27.6795 519.661 27.5482L519.268 25.5871C518.611 25.7185 517.955 25.8503 517.299 25.9825L517.694 27.9431ZM521.629 27.1557C522.283 27.0257 522.937 26.8962 523.592 26.767L523.205 24.8049C522.549 24.9342 521.894 25.0639 521.239 25.194L521.629 27.1557ZM525.548 26.3824C526.201 26.2546 526.854 26.1272 527.507 26.0002L527.125 24.0369C526.471 24.1641 525.817 24.2917 525.164 24.4197L525.548 26.3824ZM529.468 25.6203C530.122 25.4941 530.776 25.3684 531.431 25.243L531.054 23.2787C530.399 23.4042 529.744 23.5302 529.089 23.6566L529.468 25.6203ZM533.395 24.8681C534.051 24.7436 534.706 24.6195 535.362 24.4958L534.992 22.5304C534.335 22.6543 533.678 22.7786 533.022 22.9033L533.395 24.8681ZM537.331 24.126C537.987 24.0032 538.644 23.8807 539.302 23.7588L538.937 21.7923C538.279 21.9145 537.621 22.0371 536.963 22.1601L537.331 24.126ZM541.274 23.3942C541.93 23.2734 542.587 23.1531 543.243 23.0332L542.884 21.0657C542.227 21.1858 541.569 21.3063 540.912 21.4272L541.274 23.3942ZM545.206 22.6764C545.86 22.5579 546.515 22.4399 547.17 22.3223L546.817 20.3538C546.161 20.4715 545.505 20.5898 544.85 20.7084L545.206 22.6764ZM549.137 21.9709C549.792 21.8542 550.448 21.738 551.105 21.6222L550.757 19.6526C550.1 19.7686 549.443 19.885 548.786 20.0018L549.137 21.9709ZM553.074 21.2763C553.731 21.1614 554.389 21.047 555.046 20.9331L554.705 18.9624C554.046 19.0765 553.388 19.1911 552.73 19.3061L553.074 21.2763ZM557.019 20.5927C557.678 20.4798 558.336 20.3673 558.995 20.2552L558.659 18.2835C558 18.3957 557.34 18.5084 556.681 18.6216L557.019 20.5927ZM560.971 19.9206C561.63 19.8097 562.288 19.6992 562.947 19.5893L562.618 17.6166C561.958 17.7267 561.299 17.8373 560.639 17.9484L560.971 19.9206ZM564.916 19.2625C565.572 19.154 566.229 19.046 566.885 18.9386L566.563 16.9648C565.905 17.0725 565.247 17.1806 564.589 17.2892L564.916 19.2625ZM568.857 18.6176C569.514 18.5111 570.172 18.4051 570.83 18.2996L570.514 16.3249C569.854 16.4305 569.196 16.5367 568.537 16.6433L568.857 18.6176ZM572.805 17.9847C573.463 17.8802 574.122 17.7762 574.781 17.6728L574.471 15.697C573.811 15.8006 573.151 15.9048 572.491 16.0094L572.805 17.9847ZM576.759 17.3639C577.419 17.2615 578.078 17.1596 578.738 17.0582L578.435 15.0814C577.774 15.1829 577.113 15.285 576.452 15.3876L576.759 17.3639ZM580.719 16.7556C581.38 16.6552 582.041 16.5554 582.702 16.4561L582.405 14.4783C581.743 14.5778 581.081 14.6778 580.419 14.7783L580.719 16.7556ZM584.676 16.1614C585.334 16.0636 585.992 15.9664 586.651 15.8698L586.36 13.891C585.701 13.9878 585.041 14.0852 584.382 14.1831L584.676 16.1614ZM588.628 15.5814C589.287 15.4858 589.946 15.3908 590.606 15.2963L590.322 13.3165C589.661 13.4112 589.001 13.5064 588.34 13.6021L588.628 15.5814ZM592.585 15.0144C593.245 14.921 593.905 14.8282 594.566 14.7359L594.289 12.7551C593.627 12.8476 592.966 12.9406 592.305 13.0342L592.585 15.0144ZM596.548 14.4607C597.209 14.3695 597.87 14.2789 598.532 14.1888L598.262 12.2071C597.599 12.2973 596.937 12.3881 596.275 12.4794L596.548 14.4607ZM600.516 13.9203C601.178 13.8314 601.84 13.743 602.503 13.6552L602.24 11.6726C601.576 11.7605 600.913 11.849 600.25 11.9381L600.516 13.9203ZM604.484 13.3944C605.144 13.3081 605.804 13.2225 606.464 13.1373L606.209 11.1537C605.547 11.239 604.886 11.3249 604.225 11.4113L604.484 13.3944ZM608.446 12.8837C609.107 12.7998 609.767 12.7164 610.429 12.6336L610.18 10.6491C609.518 10.7321 608.856 10.8156 608.194 10.8997L608.446 12.8837ZM612.413 12.3871C613.074 12.3055 613.736 12.2244 614.398 12.144L614.156 10.1586C613.493 10.2392 612.83 10.3203 612.168 10.4021L612.413 12.3871ZM616.384 11.9046C617.046 11.8254 617.709 11.7468 618.371 11.6688L618.138 9.68249C617.474 9.76064 616.81 9.8394 616.146 9.91876L616.384 11.9046ZM620.36 11.4366C621.023 11.3598 621.686 11.2836 622.35 11.2081L622.123 9.22094C621.459 9.29664 620.794 9.37295 620.13 9.44988L620.36 11.4366ZM624.338 10.9836C624.999 10.9095 625.661 10.8361 626.323 10.7633L626.104 8.77525C625.441 8.84821 624.778 8.9218 624.115 8.996L624.338 10.9836ZM628.309 10.5467C628.971 10.4751 629.633 10.4041 630.296 10.3338L630.085 8.34498C629.421 8.41543 628.757 8.48652 628.094 8.55823L628.309 10.5467ZM632.284 10.1247C632.947 10.0557 633.61 9.98728 634.273 9.9195L634.069 7.92987C633.405 7.99778 632.741 8.06633 632.076 8.13551L632.284 10.1247ZM636.263 9.7181C636.926 9.65161 637.59 9.58576 638.254 9.52056L638.058 7.53014C637.393 7.59547 636.728 7.66145 636.063 7.72807L636.263 9.7181ZM640.246 9.32692C640.91 9.26304 641.574 9.1998 642.239 9.13722L642.051 7.14603C641.385 7.20874 640.72 7.2721 640.054 7.33611L640.246 9.32692ZM644.232 8.95147C644.895 8.89039 645.558 8.82996 646.221 8.7702L646.042 6.77827C645.377 6.83815 644.713 6.8987 644.049 6.95992L644.232 8.95147ZM648.211 8.59291C648.875 8.53448 649.538 8.47672 650.202 8.41963L650.031 6.42699C649.366 6.48419 648.701 6.54207 648.036 6.60063L648.211 8.59291ZM652.194 8.25041C652.858 8.19467 653.522 8.13962 654.186 8.08524L654.023 6.09191C653.358 6.1464 652.692 6.20157 652.027 6.25741L652.194 8.25041ZM656.18 7.92419C656.844 7.87119 657.509 7.81888 658.174 7.76726L658.019 5.77326C657.353 5.82498 656.687 5.87741 656.021 5.93052L656.18 7.92419ZM660.169 7.61448C660.834 7.56425 661.499 7.51472 662.164 7.46589L662.018 5.47126C661.351 5.52018 660.685 5.56983 660.018 5.62016L660.169 7.61448ZM664.161 7.32151C664.825 7.27415 665.49 7.2275 666.155 7.18155L666.017 5.18631C665.351 5.23235 664.685 5.27911 664.018 5.32657L664.161 7.32151ZM668.148 7.04596C668.813 7.00147 669.478 6.9577 670.142 6.91464L670.013 4.91883C669.347 4.96198 668.681 5.00584 668.015 5.05043L668.148 7.04596ZM672.137 6.78763C672.802 6.74601 673.467 6.70512 674.133 6.66495L674.012 4.66859C673.345 4.70884 672.679 4.74983 672.012 4.79153L672.137 6.78763ZM676.129 6.54662C676.794 6.50791 677.459 6.46993 678.125 6.43268L678.013 4.43581C677.346 4.47314 676.679 4.5112 676.012 4.55L676.129 6.54662ZM680.122 6.32316C680.788 6.28739 681.454 6.25237 682.12 6.21808L682.017 4.22073C681.35 4.25509 680.682 4.2902 680.015 4.32604L680.122 6.32316ZM684.118 6.11747C684.784 6.08469 685.45 6.05266 686.117 6.02139L686.023 4.02359C685.355 4.05493 684.688 4.08704 684.02 4.11989L684.118 6.11747ZM688.113 5.92995C688.778 5.90022 689.443 5.87125 690.109 5.84304L690.024 3.84483C689.357 3.87311 688.69 3.90215 688.023 3.93194L688.113 5.92995ZM692.106 5.7607C692.772 5.73402 693.438 5.7081 694.104 5.68295L694.028 3.68438C693.361 3.70958 692.693 3.73556 692.026 3.7623L692.106 5.7607ZM696.102 5.60982C696.768 5.58622 697.434 5.56339 698.1 5.54134L698.034 3.54244C697.366 3.56454 696.698 3.58742 696.031 3.61108L696.102 5.60982ZM700.099 5.47754C700.765 5.45705 701.431 5.43735 702.098 5.41844L702.041 3.41924C701.373 3.4382 700.705 3.45795 700.037 3.47848L700.099 5.47754ZM704.097 5.36406C704.764 5.34673 705.431 5.33019 706.097 5.31445L706.05 3.31501C705.382 3.33079 704.714 3.34736 704.045 3.36474L704.097 5.36406ZM708.096 5.26966C708.762 5.25554 709.428 5.24221 710.094 5.22969L710.056 3.23004C709.388 3.2426 708.721 3.25595 708.053 3.27011L708.096 5.26966ZM712.092 5.19454C712.758 5.18364 713.424 5.17353 714.091 5.16425L714.063 3.16445C713.395 3.17375 712.727 3.18388 712.059 3.19481L712.092 5.19454ZM716.09 5.13884C716.756 5.13119 717.422 5.12436 718.089 5.11834L718.071 3.11843C717.403 3.12445 716.735 3.1313 716.067 3.13898L716.09 5.13884ZM720.088 5.10279C720.755 5.09843 721.421 5.09489 722.088 5.09219L722.08 3.09221C721.411 3.09491 720.743 3.09846 720.075 3.10283L720.088 5.10279ZM724.088 5.08659C724.754 5.08556 725.421 5.08536 726.088 5.08601L726.089 3.08601C725.421 3.08536 724.753 3.08556 724.084 3.08659L724.088 5.08659ZM728.087 5.09047C728.753 5.0928 729.419 5.09598 730.086 5.1L730.098 3.10004C729.43 3.096 728.762 3.09282 728.094 3.09049L728.087 5.09047ZM732.084 5.11462C732.75 5.12035 733.417 5.12692 734.083 5.13435L734.105 3.13448C733.437 3.12703 732.769 3.12043 732.101 3.11469L732.084 5.11462ZM736.081 5.15924C736.748 5.1684 737.414 5.17842 738.08 5.1893L738.113 3.18957C737.445 3.17866 736.777 3.16861 736.109 3.15944L736.081 5.15924ZM740.079 5.22457C740.745 5.2372 741.412 5.25069 742.078 5.26506L742.121 3.26552C741.453 3.25112 740.785 3.23759 740.117 3.22493L740.079 5.22457ZM744.077 5.31081C744.743 5.32694 745.41 5.34395 746.076 5.36184L746.13 3.36257C745.462 3.34463 744.794 3.32757 744.126 3.3114L744.077 5.31081ZM748.075 5.41819C748.741 5.43785 749.407 5.45839 750.073 5.47982L750.137 3.48086C749.469 3.45937 748.802 3.43877 748.134 3.41906L748.075 5.41819ZM752.07 5.54682C752.736 5.57004 753.402 5.59417 754.067 5.6192L754.143 3.6206C753.475 3.59551 752.807 3.57132 752.14 3.54804L752.07 5.54682ZM756.065 5.69698C756.73 5.72381 757.396 5.75156 758.062 5.78021L758.148 3.78206C757.48 3.75332 756.813 3.72551 756.145 3.6986L756.065 5.69698ZM760.059 5.8689C760.724 5.89938 761.39 5.93078 762.056 5.96309L762.153 3.96544C761.485 3.93304 760.818 3.90156 760.15 3.87099L760.059 5.8689ZM764.052 6.0628C764.718 6.09696 765.384 6.13204 766.049 6.16805L766.157 4.17098C765.49 4.13486 764.822 4.09968 764.155 4.06542L764.052 6.0628ZM768.046 6.27889C768.711 6.31675 769.376 6.35555 770.041 6.39529L770.16 4.39884C769.493 4.359 768.826 4.32009 768.159 4.28212L768.046 6.27889ZM772.036 6.51726C772.701 6.55885 773.365 6.60139 774.03 6.64488L774.161 4.64914C773.494 4.60553 772.827 4.56287 772.161 4.52116L772.036 6.51726ZM776.024 6.77818C776.689 6.82356 777.353 6.86989 778.018 6.91718L778.16 4.92222C777.493 4.87479 776.827 4.82833 776.16 4.78282L776.024 6.77818ZM780.012 7.06191C780.676 7.11111 781.34 7.16127 782.005 7.2124L782.158 5.21829C781.492 5.16702 780.826 5.11672 780.159 5.06737L780.012 7.06191ZM783.998 7.36868C784.662 7.42173 785.326 7.47576 785.99 7.53076L786.155 5.53758C785.489 5.48242 784.823 5.42824 784.157 5.37502L783.998 7.36868ZM787.983 7.69869C788.647 7.75564 789.311 7.81357 789.974 7.87248L790.151 5.88031C789.485 5.82122 788.819 5.76312 788.153 5.70601L787.983 7.69869ZM791.964 8.05202C792.628 8.11286 793.291 8.17468 793.954 8.23748L794.143 6.24639C793.477 6.1834 792.812 6.1214 792.147 6.06039L791.964 8.05202ZM795.943 8.42887C796.606 8.49366 797.269 8.55944 797.932 8.62622L798.132 6.6363C797.467 6.56932 796.802 6.50334 796.138 6.43835L795.943 8.42887ZM799.92 8.82957C800.582 8.89836 801.245 8.96814 801.908 9.03894L802.12 7.05027C801.456 6.97925 800.791 6.90925 800.126 6.84026L799.92 8.82957ZM803.895 9.25436C804.557 9.32718 805.219 9.401 805.882 9.47585L806.106 7.4885C805.442 7.41343 804.778 7.33937 804.113 7.26634L803.895 9.25436ZM807.868 9.70344C808.53 9.78032 809.192 9.85823 809.853 9.93716L810.09 7.95123C809.427 7.87206 808.763 7.79391 808.099 7.71679L807.868 9.70344ZM811.838 10.1769C812.499 10.2578 813.159 10.3397 813.82 10.4227L814.069 8.43829C813.406 8.35507 812.744 8.27288 812.081 8.19173L811.838 10.1769ZM815.802 10.6747C816.463 10.7597 817.123 10.8458 817.783 10.9329L818.045 8.9501C817.383 8.86271 816.72 8.77637 816.057 8.69107L815.802 10.6747ZM819.764 11.1974C820.424 11.2866 821.084 11.3768 821.744 11.4681L822.018 9.48701C821.356 9.39542 820.694 9.30489 820.032 9.2154L819.764 11.1974ZM823.724 11.7452C824.383 11.8386 825.043 11.9331 825.702 12.0286L825.989 10.0492C825.327 9.9534 824.666 9.85864 824.004 9.76494L823.724 11.7452ZM827.68 12.3183C828.34 12.416 828.999 12.5147 829.658 12.6144L829.957 10.637C829.296 10.5369 828.635 10.4379 827.973 10.3399L827.68 12.3183ZM831.634 12.917C832.292 13.0188 832.95 13.1216 833.607 13.2255L833.92 11.2501C833.26 11.1458 832.6 11.0426 831.94 10.9405L831.634 12.917ZM835.58 13.5405C836.237 13.6466 836.894 13.7538 837.551 13.862L837.876 11.8886C837.217 11.78 836.558 11.6725 835.898 11.5661L835.58 13.5405ZM839.522 14.19C840.179 14.3004 840.836 14.4119 841.492 14.5245L841.83 12.5532C841.171 12.4403 840.513 12.3284 839.854 12.2176L839.522 14.19ZM843.461 14.8655C844.117 14.9803 844.774 15.0962 845.43 15.2132L845.781 13.2442C845.123 13.1268 844.464 13.0106 843.806 12.8954L843.461 14.8655ZM847.397 15.5674C848.053 15.6866 848.708 15.8069 849.364 15.9283L849.728 13.9617C849.07 13.8399 848.413 13.7192 847.755 13.5996L847.397 15.5674ZM247.5 97.8063L248.023 99.7368L247.5 97.8063ZM852.5 15.5L835.001 0.42947L830.699 23.1192L852.5 15.5ZM2 22.8047C0.58038 24.2135 0.580404 24.2135 0.580429 24.2135C0.580439 24.2135 0.580465 24.2136 0.580484 24.2136C0.580521 24.2136 0.580563 24.2137 0.580607 24.2137C0.580696 24.2138 0.580798 24.2139 0.580913 24.214C0.581143 24.2142 0.581426 24.2145 0.581762 24.2149C0.582433 24.2155 0.583315 24.2164 0.584407 24.2175C0.586591 24.2197 0.589616 24.2228 0.593479 24.2266C0.601207 24.2344 0.612291 24.2455 0.626716 24.2599C0.655567 24.2887 0.697785 24.3308 0.753255 24.3857C0.864193 24.4956 1.02814 24.657 1.24417 24.8671L4.03323 21.9999C3.82593 21.7982 3.67053 21.6452 3.56795 21.5436C3.51666 21.4928 3.47858 21.4549 3.45382 21.4302C3.44144 21.4178 3.43239 21.4087 3.42668 21.403C3.42383 21.4001 3.42181 21.3981 3.42064 21.3969C3.42005 21.3963 3.41967 21.396 3.4195 21.3958C3.41941 21.3957 3.41938 21.3957 3.4194 21.3957C3.41941 21.3957 3.41944 21.3957 3.41947 21.3958C3.41949 21.3958 3.41951 21.3958 3.41954 21.3958C3.41955 21.3958 3.41957 21.3959 3.41958 21.3959C3.4196 21.3959 3.41962 21.3959 2 22.8047ZM2.71423 26.2735C3.14618 26.681 3.64226 27.1445 4.20115 27.66L6.91327 24.7199C6.36551 24.2146 5.88029 23.7612 5.45892 23.3638L2.71423 26.2735ZM5.74968 29.0742C6.20202 29.4834 6.68301 29.9152 7.19221 30.3683L9.85128 27.3801C9.3503 26.9343 8.87738 26.5097 8.43297 26.1077L5.74968 29.0742ZM8.74794 31.7413C9.22133 32.1557 9.71436 32.5844 10.2268 33.0265L12.8398 29.9979C12.3348 29.5622 11.849 29.1399 11.3828 28.7317L8.74794 31.7413ZM11.8199 34.3907C12.2989 34.7979 12.7923 35.2146 13.3001 35.6405L15.8706 32.5757C15.3696 32.1556 14.8829 31.7445 14.4105 31.343L11.8199 34.3907ZM14.8662 36.945C15.3742 37.3653 15.895 37.7934 16.4283 38.2288L18.958 35.1303C18.4315 34.7005 17.9174 34.2779 17.416 33.863L14.8662 36.945ZM17.966 39.4762C18.4895 39.8983 19.0241 40.3265 19.5696 40.7605L22.06 37.6304C21.5213 37.2017 20.9933 36.7788 20.4763 36.362L17.966 39.4762ZM21.1373 42C21.6507 42.4034 22.1731 42.8113 22.7042 43.2235L25.1566 40.0635C24.6318 39.6562 24.1158 39.2532 23.6086 38.8547L21.1373 42ZM24.3239 44.4726C24.85 44.8757 25.3841 45.2825 25.9261 45.6928L28.3402 42.5034C27.8045 42.098 27.2767 41.696 26.7569 41.2976L24.3239 44.4726ZM27.509 46.8837C28.0439 47.2836 28.586 47.6866 29.1353 48.0923L31.5118 44.8748C30.9689 44.4738 30.4331 44.0755 29.9045 43.6802L27.509 46.8837ZM30.7908 49.3073C31.3155 49.6901 31.8465 50.0751 32.3835 50.4621L34.7222 47.217C34.1914 46.8345 33.6666 46.454 33.1479 46.0757L30.7908 49.3073ZM34.0129 51.6293C34.5621 52.0203 35.1174 52.4132 35.6787 52.8078L37.9793 49.5356C37.4245 49.1455 36.8756 48.7572 36.3328 48.3707L34.0129 51.6293ZM37.3318 53.9629C37.8705 54.337 38.4144 54.7124 38.9635 55.0891L41.2263 51.7907C40.6835 51.4183 40.1458 51.0472 39.6134 50.6774L37.3318 53.9629ZM40.6265 56.2228C41.186 56.6019 41.7507 56.9821 42.3205 57.3633L44.5445 54.0386C43.9813 53.6618 43.4231 53.286 42.8701 52.9113L40.6265 56.2228ZM43.9912 58.4739C44.5406 58.8369 45.0946 59.2006 45.6531 59.5649L47.8386 56.2148C47.2866 55.8547 46.739 55.4952 46.196 55.1364L43.9912 58.4739ZM47.3421 60.6598C47.9097 61.0253 48.4817 61.3914 49.0581 61.7579L51.2041 58.3823C50.6344 58.0201 50.069 57.6583 49.5081 57.297L47.3421 60.6598ZM50.7605 62.8332C51.3188 63.1835 51.8811 63.5342 52.4474 63.885L54.5539 60.4845C53.9942 60.1378 53.4385 59.7913 52.8867 59.4451L50.7605 62.8332ZM54.1583 64.9378C54.7325 65.2889 55.3107 65.64 55.8929 65.9911L57.9588 62.5659C57.3835 62.219 56.8121 61.872 56.2446 61.525L54.1583 64.9378ZM57.6359 67.0353C58.202 67.3721 58.7717 67.7088 59.3449 68.0453L61.3698 64.5958C60.8035 64.2633 60.2406 63.9306 59.6812 63.5978L57.6359 67.0353ZM61.0752 69.0541C61.6555 69.3901 62.2393 69.7258 62.8266 70.0611L64.8099 66.5874C64.2296 66.2561 63.6528 65.9245 63.0795 65.5925L61.0752 69.0541ZM64.599 71.0659C65.1776 71.3915 65.7595 71.7167 66.3446 72.0414L68.2854 68.5437C67.7073 68.223 67.1325 67.9018 66.5609 67.58L64.599 71.0659ZM68.0931 73.0046C68.6791 73.3251 69.2683 73.645 69.8606 73.9643L71.7583 70.4431C71.1733 70.1278 70.5913 69.8118 70.0125 69.4952L68.0931 73.0046ZM71.647 74.9198C72.2435 75.2366 72.8432 75.5525 73.446 75.8677L75.2993 72.3229C74.7041 72.0117 74.1118 71.6997 73.5226 71.3869L71.647 74.9198ZM75.212 76.7841C75.8036 77.0887 76.398 77.3925 76.9953 77.6953L78.8042 74.1277C78.2144 73.8286 77.6274 73.5287 77.0433 73.2279L75.212 76.7841ZM78.7958 78.601C79.3987 78.9019 80.0046 79.2018 80.6132 79.5006L82.3761 75.91C81.7753 75.615 81.1772 75.3189 80.5818 75.0219L78.7958 78.601ZM82.431 80.3858C83.0281 80.6742 83.6278 80.9615 84.2301 81.2476L85.9465 77.6346C85.3519 77.3521 84.76 77.0686 84.1706 76.7839L82.431 80.3858ZM86.0449 82.1025C86.6524 82.3862 87.2625 82.6688 87.8752 82.95L89.544 79.3148C88.9394 79.0372 88.3372 78.7584 87.7376 78.4783L86.0449 82.1025ZM89.7209 83.7899C90.3326 84.0658 90.9467 84.3403 91.5634 84.6134L93.1834 80.9562C92.575 80.6867 91.9689 80.4158 91.3654 80.1436L89.7209 83.7899ZM93.3927 85.4165C94.0049 85.6828 94.6195 85.9477 95.2364 86.2111L96.8071 82.5324C96.1985 82.2725 95.5922 82.0112 94.9883 81.7485L93.3927 85.4165ZM97.0942 86.9968C97.7158 87.2572 98.3397 87.5161 98.966 87.7733L100.486 84.0733C99.8682 83.8196 99.2528 83.5643 98.6397 83.3074L97.0942 86.9968ZM100.837 88.5343C101.454 88.7827 102.073 89.0295 102.694 89.2747L104.163 85.554C103.55 85.3122 102.939 85.0688 102.331 84.8238L100.837 88.5343ZM104.565 90.0053C105.19 90.2471 105.818 90.4872 106.448 90.7256L107.864 86.9845C107.243 86.7495 106.624 86.5128 106.007 86.2743L104.565 90.0053ZM108.344 91.4354C108.976 91.6693 109.61 91.9013 110.246 92.1316L111.607 88.3704C110.98 88.1435 110.355 87.9148 109.733 87.6842L108.344 91.4354ZM112.128 92.8056C112.758 93.0284 113.39 93.2494 114.023 93.4684L115.33 89.688C114.706 89.4721 114.083 89.2543 113.463 89.0347L112.128 92.8056ZM115.93 94.1198C116.568 94.335 117.207 94.5482 117.849 94.7594L119.1 90.96C118.468 90.7519 117.838 90.5418 117.209 90.3298L115.93 94.1198ZM119.779 95.3869C120.414 95.5904 121.05 95.792 121.688 95.9916L122.882 92.1738C122.253 91.9773 121.627 91.7787 121.001 91.5781L119.779 95.3869ZM123.606 96.5831C124.247 96.7782 124.89 96.9712 125.534 97.162L126.67 93.3265C126.035 93.1386 125.402 92.9486 124.771 92.7564L123.606 96.5831ZM127.474 97.728C128.122 97.9144 128.772 98.0987 129.424 98.2807L130.499 94.428C129.858 94.2489 129.218 94.0674 128.579 93.8838L127.474 97.728ZM131.366 98.8147C132.01 98.9892 132.656 99.1614 133.303 99.3313L134.319 95.4623C133.681 95.2951 133.045 95.1255 132.411 94.9538L131.366 98.8147ZM135.251 99.8342C135.902 99.9995 136.555 100.163 137.209 100.323L138.162 96.4384C137.519 96.2804 136.876 96.12 136.236 95.9573L135.251 99.8342ZM139.177 100.798C139.833 100.953 140.491 101.106 141.151 101.257L142.041 97.3573C141.392 97.2091 140.745 97.0585 140.099 96.9055L139.177 100.798ZM143.106 101.695C143.759 101.839 144.414 101.98 145.07 102.118L145.897 98.2047C145.251 98.0684 144.607 97.9295 143.965 97.7883L143.106 101.695ZM147.044 102.527C147.703 102.66 148.364 102.791 149.026 102.92L149.788 98.9931C149.137 98.8667 148.487 98.7378 147.838 98.6064L147.044 102.527ZM151.018 103.298C151.678 103.42 152.339 103.539 153.001 103.656L153.697 99.7171C153.045 99.6021 152.395 99.4845 151.747 99.3644L151.018 103.298ZM154.979 103.997C155.64 104.108 156.302 104.216 156.965 104.321L157.594 100.371C156.942 100.267 156.291 100.161 155.641 100.052L154.979 103.997ZM158.96 104.63C159.626 104.73 160.294 104.827 160.963 104.922L161.523 100.961C160.865 100.868 160.209 100.773 159.554 100.674L158.96 104.63ZM162.974 105.197C163.636 105.285 164.3 105.37 164.964 105.452L165.455 101.482C164.802 101.401 164.15 101.318 163.5 101.232L162.974 105.197ZM166.959 105.69C167.626 105.766 168.293 105.84 168.962 105.911L169.383 101.933C168.726 101.863 168.07 101.791 167.415 101.716L166.959 105.69ZM170.973 106.114C171.644 106.179 172.317 106.241 172.991 106.3L173.34 102.316C172.678 102.258 172.018 102.197 171.358 102.133L170.973 106.114ZM175.01 106.468C175.675 106.521 176.341 106.57 177.009 106.617L177.287 102.626C176.631 102.581 175.977 102.532 175.323 102.481L175.01 106.468ZM179.016 106.747C179.686 106.788 180.357 106.826 181.029 106.86L181.235 102.865C180.575 102.831 179.916 102.795 179.258 102.755L179.016 106.747ZM183.05 106.955C183.725 106.983 184.4 107.009 185.077 107.031L185.209 103.033C184.545 103.011 183.881 102.986 183.219 102.958L183.05 106.955ZM187.098 107.088C187.765 107.104 188.434 107.117 189.103 107.127L189.162 103.127C188.504 103.118 187.848 103.105 187.193 103.09L187.098 107.088ZM191.115 107.147C191.787 107.151 192.459 107.151 193.133 107.148L193.117 103.148C192.456 103.151 191.795 103.151 191.136 103.147L191.115 107.147ZM195.157 107.131C195.833 107.122 196.509 107.109 197.187 107.094L197.096 103.095C196.431 103.11 195.767 103.122 195.103 103.131L195.157 107.131ZM199.206 107.039C199.873 107.017 200.541 106.992 201.21 106.965L201.044 102.968C200.387 102.995 199.732 103.02 199.077 103.041L199.206 107.039ZM203.219 106.872C203.89 106.837 204.562 106.8 205.235 106.759L204.993 102.767C204.333 102.807 203.674 102.843 203.016 102.877L203.219 106.872ZM207.255 106.628C207.93 106.58 208.605 106.53 209.281 106.476L208.964 102.489C208.3 102.541 207.638 102.591 206.976 102.637L207.255 106.628ZM211.295 106.306C211.959 106.247 212.624 106.184 213.29 106.118L212.897 102.138C212.244 102.202 211.591 102.264 210.94 102.322L211.295 106.306ZM215.29 105.911C215.958 105.839 216.626 105.763 217.295 105.685L216.826 101.712C216.17 101.79 215.514 101.864 214.859 101.935L215.29 105.911ZM219.305 105.438C219.975 105.352 220.647 105.263 221.319 105.171L220.774 101.208C220.115 101.299 219.456 101.386 218.798 101.47L219.305 105.438ZM223.326 104.885C223.985 104.788 224.644 104.688 225.305 104.584L224.685 100.633C224.037 100.734 223.39 100.833 222.744 100.928L223.326 104.885ZM227.287 104.264C227.949 104.153 228.611 104.04 229.274 103.923L228.579 99.9837C227.929 100.098 227.279 100.21 226.63 100.318L227.287 104.264ZM231.265 103.562C231.929 103.438 232.594 103.311 233.26 103.18L232.49 99.2553C231.837 99.3834 231.184 99.5081 230.533 99.6295L231.265 103.562ZM235.259 102.778C235.91 102.644 236.562 102.507 237.214 102.366L236.37 98.4559C235.73 98.5941 235.091 98.7291 234.452 98.8608L235.259 102.778ZM239.171 101.934C239.824 101.786 240.478 101.636 241.132 101.481L240.215 97.588C239.573 97.7393 238.931 97.8872 238.291 98.0319L239.171 101.934ZM243.097 101.009C243.752 100.848 244.408 100.683 245.064 100.515L244.074 96.6401C243.429 96.8048 242.786 96.9661 242.143 97.1241L243.097 101.009ZM247.036 100.002C247.365 99.9142 247.694 99.826 248.023 99.7368L246.977 95.8759C246.654 95.9634 246.331 96.05 246.009 96.1358L247.036 100.002ZM248.023 99.7368C248.339 99.6512 248.655 99.5654 248.972 99.4795L247.925 95.6191C247.608 95.7049 247.293 95.7905 246.977 95.8759L248.023 99.7368ZM250.878 98.9611C251.515 98.7875 252.154 98.6131 252.794 98.4379L251.739 94.5797C251.1 94.7545 250.462 94.9286 249.827 95.1018L250.878 98.9611ZM254.72 97.91C255.364 97.7332 256.009 97.5557 256.656 97.3774L255.593 93.5212C254.947 93.6992 254.303 93.8764 253.661 94.0528L254.72 97.91ZM258.601 96.8403C259.251 96.6605 259.903 96.48 260.556 96.2987L259.487 92.4444C258.835 92.6253 258.184 92.8056 257.535 92.9851L258.601 96.8403ZM262.505 95.7573C263.137 95.5812 263.771 95.4046 264.406 95.2272L263.331 91.3745C262.696 91.5516 262.063 91.728 261.432 91.9037L262.505 95.7573ZM266.317 94.6932C266.955 94.5146 267.595 94.3353 268.236 94.1554L267.155 90.3041C266.515 90.4838 265.876 90.6629 265.239 90.8413L266.317 94.6932ZM270.164 93.6138C270.808 93.4326 271.453 93.2508 272.1 93.0684L271.015 89.2185C270.369 89.4007 269.724 89.5822 269.081 89.7632L270.164 93.6138ZM274.046 92.5195C274.696 92.3359 275.347 92.1517 276 91.9669L274.91 88.1181C274.258 88.3027 273.607 88.4867 272.958 88.6701L274.046 92.5195ZM277.917 91.4235C278.551 91.2438 279.186 91.0637 279.822 90.883L278.729 87.0352C278.093 87.2157 277.459 87.3958 276.826 87.5752L277.917 91.4235ZM281.734 90.3393C282.373 90.1576 283.013 89.9753 283.654 89.7926L282.558 85.9457C281.917 86.1283 281.277 86.3104 280.639 86.492L281.734 90.3393ZM285.582 89.2429C286.226 89.0591 286.871 88.8749 287.518 88.6902L286.419 84.8441C285.773 85.0287 285.128 85.2128 284.484 85.3964L285.582 89.2429ZM289.461 88.1346C290.11 87.949 290.76 87.7629 291.412 87.5763L290.311 83.7308C289.66 83.9173 289.01 84.1033 288.361 84.2889L289.461 88.1346ZM293.319 87.0301C293.953 86.8485 294.588 86.6664 295.224 86.4839L294.122 82.6389C293.485 82.8213 292.851 83.0033 292.217 83.1849L293.319 87.0301ZM297.137 85.9352C297.775 85.7519 298.415 85.5682 299.056 85.3841L297.952 81.5395C297.311 81.7236 296.672 81.9072 296.033 82.0904L297.137 85.9352ZM300.983 84.8307C301.626 84.6459 302.271 84.4606 302.916 84.275L301.811 80.4307C301.166 80.6163 300.521 80.8015 299.878 80.9863L300.983 84.8307ZM304.857 83.7171C305.505 83.5308 306.154 83.3441 306.804 83.1571L305.699 79.3129C305.049 79.4999 304.4 79.6866 303.752 79.8729L304.857 83.7171ZM308.715 82.6076C309.349 82.4252 309.984 82.2425 310.62 82.0595L309.514 78.2154C308.878 78.3984 308.243 78.5811 307.609 78.7634L308.715 82.6076ZM312.532 81.5095C313.17 81.3258 313.81 81.1419 314.45 80.9577L313.345 77.1135C312.704 77.2978 312.065 77.4817 311.426 77.6654L312.532 81.5095ZM316.375 80.4041C317.018 80.2193 317.661 80.0342 318.306 79.8488L317.201 76.0046C316.556 76.19 315.912 76.3751 315.269 76.5599L316.375 80.4041ZM320.243 79.2919C320.89 79.106 321.538 78.9198 322.187 78.7334L321.082 74.8889C320.433 75.0754 319.785 75.2616 319.138 75.4476L320.243 79.2919ZM324.112 78.1805C324.746 77.9985 325.381 77.8162 326.016 77.6336L324.913 73.7889C324.277 73.9714 323.642 74.1538 323.007 74.3359L324.112 78.1805ZM327.927 77.0854C328.565 76.9024 329.204 76.7192 329.844 76.5358L328.742 72.6907C328.102 72.8741 327.463 73.0574 326.824 73.2404L327.927 77.0854ZM331.766 75.985C332.408 75.8012 333.051 75.6172 333.695 75.433L332.594 71.5873C331.95 71.7716 331.307 71.9557 330.665 72.1396L331.766 75.985ZM335.628 74.8798C336.274 74.6952 336.921 74.5104 337.568 74.3255L336.469 70.4793C335.822 70.6643 335.175 70.8492 334.529 71.0339L335.628 74.8798ZM339.513 73.7701C340.148 73.5891 340.783 73.4079 341.419 73.2266L340.323 69.3798C339.686 69.5612 339.051 69.7425 338.416 69.9236L339.513 73.7701ZM343.329 72.6826C343.966 72.5011 344.605 72.3195 345.244 72.1377L344.15 68.2902C343.51 68.4721 342.871 68.6539 342.234 68.8355L343.329 72.6826ZM347.164 71.592C347.805 71.41 348.447 71.2279 349.09 71.0456L347.999 67.1973C347.355 67.3797 346.713 67.562 346.072 67.7442L347.164 71.592ZM351.021 70.4984C351.665 70.3159 352.31 70.1332 352.957 69.9505L351.868 66.1014C351.222 66.2843 350.576 66.4671 349.931 66.6497L351.021 70.4984ZM354.898 69.402C355.542 69.22 356.188 69.038 356.834 68.8558L355.749 65.0058C355.102 65.1881 354.456 65.3704 353.811 65.5525L354.898 69.402ZM358.743 68.3182C359.38 68.1389 360.018 67.9595 360.657 67.78L359.575 63.9291C358.935 64.1087 358.297 64.2883 357.659 64.4677L358.743 68.3182ZM362.575 67.2415C363.215 67.0619 363.857 66.8823 364.498 66.7026L363.42 62.8507C362.778 63.0306 362.136 63.2104 361.495 63.3901L362.575 67.2415ZM366.427 66.1633C367.07 65.9835 367.714 65.8037 368.359 65.6238L367.285 61.7708C366.639 61.9509 365.994 62.1309 365.35 62.3109L366.427 66.1633ZM370.297 65.084C370.944 64.904 371.591 64.724 372.239 64.544L371.169 60.6899C370.52 60.8701 369.872 61.0503 369.225 61.2305L370.297 65.084ZM374.174 64.0072C374.811 63.8307 375.449 63.6542 376.087 63.4776L375.021 59.6224C374.382 59.7991 373.743 59.9758 373.106 60.1525L374.174 64.0072ZM378.004 62.948C378.644 62.7715 379.284 62.5949 379.926 62.4184L378.864 58.5619C378.222 58.7386 377.581 58.9154 376.94 59.0921L378.004 62.948ZM381.852 61.8887C382.494 61.7122 383.138 61.5357 383.782 61.3591L382.725 57.5014C382.08 57.6781 381.436 57.8548 380.792 58.0316L381.852 61.8887ZM385.717 60.8297C386.362 60.6532 387.009 60.4767 387.656 60.3003L386.603 56.4412C385.956 56.6178 385.308 56.7945 384.662 56.9712L385.717 60.8297ZM389.599 59.7711C390.245 59.5954 390.892 59.4197 391.539 59.2441L390.492 55.3836C389.844 55.5595 389.196 55.7354 388.549 55.9113L389.599 59.7711ZM393.455 58.725C394.095 58.552 394.735 58.379 395.376 58.2061L394.334 54.3442C393.692 54.5174 393.051 54.6906 392.411 54.8638L393.455 58.725ZM397.3 57.6876C397.943 57.5148 398.585 57.3421 399.229 57.1694L398.192 53.3061C397.548 53.479 396.904 53.6519 396.261 53.825L397.3 57.6876ZM401.161 56.6516C401.806 56.4791 402.452 56.3067 403.098 56.1343L402.067 52.2695C401.42 52.4421 400.773 52.6148 400.127 52.7876L401.161 56.6516ZM405.038 55.6175C405.685 55.4453 406.334 55.2732 406.982 55.1012L405.957 51.2348C405.307 51.4071 404.658 51.5794 404.01 51.7519L405.038 55.6175ZM408.93 54.5854C409.57 54.4163 410.211 54.2472 410.852 54.0782L409.833 50.2102C409.191 50.3795 408.549 50.5488 407.908 50.7183L408.93 54.5854ZM412.776 53.5721C413.418 53.4035 414.06 53.235 414.703 53.0667L413.69 49.1971C413.046 49.3657 412.403 49.5345 411.76 49.7033L412.776 53.5721ZM416.634 52.5619C417.279 52.3938 417.924 52.2258 418.569 52.0579L417.562 48.1867C416.916 48.3549 416.27 48.5231 415.624 48.6915L416.634 52.5619ZM420.507 51.5547C421.154 51.3871 421.801 51.2196 422.449 51.0523L421.449 47.1794C420.8 47.347 420.151 47.5148 419.504 47.6827L420.507 51.5547ZM424.395 50.5507C425.044 50.3837 425.693 50.2168 426.344 50.05L425.35 46.1754C424.699 46.3424 424.048 46.5096 423.398 46.6769L424.395 50.5507ZM428.281 49.554C428.923 49.39 429.565 49.2262 430.208 49.0625L429.221 45.1862C428.577 45.3501 427.934 45.5142 427.291 45.6785L428.281 49.554ZM432.139 48.572C432.783 48.4087 433.427 48.2455 434.072 48.0826L433.092 44.2044C432.446 44.3677 431.8 44.5312 431.155 44.6948L432.139 48.572ZM436.009 47.5941C436.655 47.4315 437.302 47.269 437.95 47.1067L436.977 43.2268C436.328 43.3894 435.68 43.5521 435.033 43.7151L436.009 47.5941ZM439.893 46.6204C440.542 46.4585 441.19 46.2968 441.84 46.1353L440.875 42.2535C440.224 42.4154 439.574 42.5774 438.924 42.7396L439.893 46.6204ZM443.79 45.6513C444.441 45.4902 445.092 45.3293 445.743 45.1686L444.786 41.285C444.133 41.446 443.48 41.6072 442.828 41.7686L443.79 45.6513ZM447.675 44.6931C448.319 44.535 448.964 44.377 449.609 44.2193L448.659 40.3338C448.012 40.4918 447.367 40.6501 446.721 40.8085L447.675 44.6931ZM451.545 43.7467C452.191 43.5894 452.838 43.4323 453.485 43.2755L452.543 39.3881C451.894 39.5452 451.246 39.7026 450.599 39.8603L451.545 43.7467ZM455.428 42.8056C456.076 42.6492 456.724 42.493 457.373 42.3371L456.439 38.4477C455.789 38.604 455.139 38.7605 454.489 38.9172L455.428 42.8056ZM459.322 41.87C459.972 41.7145 460.623 41.5593 461.274 41.4044L460.347 37.5131C459.695 37.6684 459.043 37.8239 458.392 37.9797L459.322 41.87ZM463.228 40.9403C463.878 40.7862 464.529 40.6325 465.18 40.479L464.262 36.5857C463.609 36.7395 462.957 36.8936 462.306 37.048L463.228 40.9403ZM467.117 40.0234C467.763 39.8718 468.409 39.7204 469.057 39.5694L468.147 35.6741C467.499 35.8255 466.851 35.9772 466.203 36.1291L467.117 40.0234ZM470.999 39.1169C471.647 38.9664 472.296 38.8161 472.944 38.6661L472.044 34.7689C471.393 34.9192 470.743 35.0698 470.094 35.2207L470.999 39.1169ZM474.892 38.217C475.542 38.0675 476.192 37.9184 476.843 37.7695L475.951 33.8702C475.299 34.0195 474.647 34.1689 473.996 34.3187L474.892 38.217ZM478.797 37.3237C479.448 37.1755 480.1 37.0275 480.753 36.8798L479.87 32.9785C479.216 33.1265 478.562 33.2748 477.909 33.4235L478.797 37.3237ZM482.712 36.4376C483.362 36.2911 484.013 36.145 484.664 35.9991L483.79 32.0958C483.137 32.242 482.485 32.3884 481.833 32.5352L482.712 36.4376ZM486.607 35.5652C487.256 35.4209 487.904 35.2769 488.553 35.1332L487.688 31.2277C487.038 31.3718 486.388 31.5162 485.738 31.6608L486.607 35.5652ZM490.501 34.703C491.151 34.5599 491.802 34.4171 492.452 34.2747L491.597 30.3672C490.945 30.51 490.293 30.6531 489.641 30.7965L490.501 34.703ZM494.406 33.8483C495.057 33.7066 495.709 33.5651 496.361 33.424L495.515 29.5144C494.862 29.6559 494.208 29.7977 493.555 29.9398L494.406 33.8483ZM498.319 33.0016C498.972 32.8612 499.626 32.7211 500.28 32.5813L499.444 28.6696C498.788 28.8098 498.133 28.9502 497.478 29.091L498.319 33.0016ZM502.243 32.1631C502.895 32.0246 503.547 31.8866 504.199 31.7489L503.373 27.8351C502.719 27.9732 502.065 28.1116 501.412 28.2503L502.243 32.1631ZM506.148 31.3387C506.798 31.2023 507.449 31.0663 508.1 30.9306L507.284 27.0148C506.631 27.1508 505.979 27.2872 505.327 27.4239L506.148 31.3387ZM510.054 30.5248C510.706 30.3898 511.358 30.2553 512.01 30.1211L511.204 26.2031C510.55 26.3376 509.896 26.4726 509.243 26.6078L510.054 30.5248ZM513.968 29.7196C514.622 29.5861 515.275 29.4531 515.929 29.3204L515.133 25.4003C514.478 25.5333 513.823 25.6667 513.168 25.8005L513.968 29.7196ZM517.892 28.9234C518.546 28.7915 519.201 28.6599 519.857 28.5288L519.072 24.6066C518.415 24.7381 517.758 24.87 517.101 25.0023L517.892 28.9234ZM521.824 28.1365C522.477 28.0066 523.131 27.8772 523.785 27.7481L523.011 23.8238C522.355 23.9532 521.699 24.083 521.044 24.2132L521.824 28.1365ZM525.741 27.3637C526.393 27.236 527.045 27.1087 527.698 26.9818L526.934 23.0553C526.28 23.1826 525.626 23.3103 524.972 23.4383L525.741 27.3637ZM529.657 26.6022C530.311 26.4761 530.964 26.3504 531.619 26.2251L530.866 22.2965C530.21 22.4222 529.555 22.5482 528.899 22.6747L529.657 26.6022ZM533.582 25.8505C534.237 25.7261 534.892 25.6021 535.547 25.4785L534.806 21.5477C534.149 21.6717 533.492 21.7961 532.835 21.9209L533.582 25.8505ZM537.515 25.1089C538.171 24.9862 538.827 24.8639 539.484 24.742L538.754 20.8091C538.096 20.9314 537.437 21.054 536.779 21.1771L537.515 25.1089ZM541.455 24.3776C542.111 24.257 542.767 24.1367 543.423 24.0169L542.705 20.082C542.047 20.2021 541.389 20.3227 540.731 20.4437L541.455 24.3776ZM545.384 23.6604C546.038 23.542 546.692 23.4241 547.347 23.3066L546.64 19.3695C545.984 19.4874 545.327 19.6057 544.672 19.7244L545.384 23.6604ZM549.312 22.9554C549.967 22.8388 550.623 22.7227 551.278 22.607L550.583 18.6678C549.926 18.7838 549.268 18.9003 548.611 19.0173L549.312 22.9554ZM553.247 22.2613C553.903 22.1465 554.56 22.0322 555.217 21.9184L554.534 17.9771C553.875 18.0913 553.216 18.206 552.558 18.3211L553.247 22.2613ZM557.189 21.5783C557.846 21.4654 558.504 21.353 559.162 21.2411L558.492 17.2977C557.831 17.41 557.171 17.5228 556.512 17.636L557.189 21.5783ZM561.138 20.9067C561.795 20.7959 562.453 20.6855 563.112 20.5757L562.454 16.6302C561.793 16.7404 561.133 16.8511 560.473 16.9623L561.138 20.9067ZM565.079 20.2491C565.734 20.1407 566.391 20.0328 567.047 19.9254L566.401 15.9779C565.743 16.0857 565.084 16.1939 564.426 16.3026L565.079 20.2491ZM569.017 19.6048C569.674 19.4984 570.331 19.3924 570.988 19.287L570.355 15.3375C569.696 15.4432 569.036 15.5495 568.377 15.6562L569.017 19.6048ZM572.962 18.9723C573.62 18.8679 574.278 18.7641 574.936 18.6607L574.316 14.7091C573.655 14.8128 572.995 14.917 572.335 15.0218L572.962 18.9723ZM576.912 18.3521C577.572 18.2497 578.231 18.1479 578.89 18.0466L578.283 14.093C577.621 14.1946 576.96 14.2968 576.299 14.3995L576.912 18.3521ZM580.87 17.7442C581.53 17.644 582.19 17.5442 582.85 17.445L582.256 13.4894C581.594 13.5889 580.931 13.689 580.269 13.7896L580.87 17.7442ZM584.822 17.1505C585.48 17.0529 586.138 16.9558 586.796 16.8592L586.215 12.9016C585.555 12.9985 584.895 13.0959 584.235 13.1939L584.822 17.1505ZM588.771 16.5711C589.43 16.4756 590.088 16.3806 590.747 16.2862L590.18 12.3266C589.519 12.4214 588.858 12.5166 588.197 12.6125L588.771 16.5711ZM592.725 16.0046C593.385 15.9113 594.044 15.8185 594.704 15.7263L594.151 11.7648C593.489 11.8573 592.826 11.9504 592.165 12.044L592.725 16.0046ZM596.685 15.4513C597.345 15.3602 598.006 15.2696 598.667 15.1797L598.127 11.2162C597.464 11.3065 596.801 11.3974 596.138 11.4888L596.685 15.4513ZM600.65 14.9114C601.311 14.8226 601.972 14.7343 602.634 14.6466L602.108 10.6813C601.444 10.7693 600.781 10.8579 600.117 10.947L600.65 14.9114ZM604.614 14.386C605.273 14.2998 605.932 14.2142 606.592 14.1291L606.081 10.162C605.419 10.2473 604.757 10.3332 604.095 10.4197L604.614 14.386ZM608.572 13.8758C609.232 13.7919 609.892 13.7086 610.553 13.6259L610.056 9.65688C609.393 9.73988 608.73 9.82348 608.068 9.90766L608.572 13.8758ZM612.535 13.3795C613.196 13.298 613.857 13.2171 614.518 13.1367L614.036 9.16593C613.372 9.24657 612.709 9.3278 612.045 9.40962L612.535 13.3795ZM616.503 12.8975C617.164 12.8184 617.826 12.7399 618.488 12.6619L618.021 8.68935C617.356 8.76757 616.692 8.8464 616.028 8.92583L616.503 12.8975ZM620.475 12.43C621.137 12.3533 621.8 12.2772 622.463 12.2017L622.01 8.22736C621.345 8.30313 620.68 8.37952 620.015 8.45652L620.475 12.43ZM624.449 11.9774C625.11 11.9034 625.771 11.83 626.432 11.7573L625.995 7.78125C625.331 7.85428 624.667 7.92793 624.004 8.00221L624.449 11.9774ZM628.416 11.5409C629.078 11.4694 629.739 11.3985 630.401 11.3282L629.979 7.35057C629.315 7.42109 628.65 7.49224 627.986 7.56403L628.416 11.5409ZM632.387 11.1194C633.049 11.0504 633.712 10.982 634.374 10.9143L633.968 6.93505C633.303 7.00302 632.638 7.07164 631.973 7.1409L632.387 11.1194ZM636.362 10.7131C637.025 10.6467 637.688 10.5809 638.351 10.5158L637.961 6.53493C637.295 6.60032 636.629 6.66636 635.964 6.73305L636.362 10.7131ZM640.341 10.3223C641.005 10.2585 641.669 10.1953 642.332 10.1328L641.957 6.15043C641.291 6.21321 640.625 6.27663 639.958 6.34071L640.341 10.3223ZM644.324 9.94726C644.986 9.88623 645.649 9.82587 646.311 9.76616L645.952 5.7823C645.287 5.84225 644.622 5.90286 643.957 5.96413L644.324 9.94726ZM648.299 9.58905C648.962 9.53069 649.625 9.47298 650.288 9.41596L649.945 5.43067C649.279 5.48793 648.614 5.54587 647.948 5.60448L648.299 9.58905ZM652.278 9.2469C652.941 9.19123 653.604 9.13623 654.268 9.08191L653.942 5.09524C653.275 5.14979 652.609 5.20501 651.943 5.26092L652.278 9.2469ZM656.259 8.92102C656.923 8.86808 657.587 8.81582 658.251 8.76426L657.942 4.77626C657.275 4.82805 656.608 4.88052 655.941 4.93369L656.259 8.92102ZM660.244 8.61164C660.908 8.56146 661.573 8.51199 662.237 8.46321L661.945 4.47393C661.277 4.52292 660.61 4.57262 659.943 4.623L660.244 8.61164ZM664.232 8.31898C664.896 8.27167 665.56 8.22507 666.224 8.17917L665.948 4.18869C665.281 4.23478 664.614 4.28158 663.947 4.32909L664.232 8.31898ZM668.215 8.04373C668.879 7.99929 669.543 7.95556 670.207 7.91255L669.949 3.92091C669.282 3.96411 668.615 4.00803 667.948 4.05266L668.215 8.04373ZM672.2 7.78567C672.864 7.7441 673.528 7.70325 674.193 7.66313L673.952 3.6704C673.284 3.7107 672.617 3.75173 671.95 3.79349L672.2 7.78567ZM676.187 7.54493C676.851 7.50626 677.516 7.46833 678.181 7.43112L677.958 3.43737C677.29 3.47474 676.622 3.51285 675.954 3.55169L676.187 7.54493ZM680.176 7.32172C680.841 7.28599 681.506 7.25101 682.171 7.21676L681.966 3.22205C681.298 3.25645 680.629 3.29159 679.961 3.32748L680.176 7.32172ZM684.168 7.11626C684.833 7.08352 685.498 7.05153 686.163 7.02029L685.976 3.02469C685.307 3.05607 684.639 3.08821 683.971 3.1211L684.168 7.11626ZM688.157 6.92895C688.822 6.89926 689.487 6.87032 690.151 6.84215L689.982 2.84573C689.314 2.87404 688.646 2.90311 687.979 2.93294L688.157 6.92895ZM692.146 6.7599C692.811 6.73325 693.476 6.70736 694.141 6.68224L693.99 2.68509C693.322 2.71032 692.654 2.73634 691.986 2.76311L692.146 6.7599ZM696.137 6.6092C696.802 6.58562 697.468 6.56282 698.133 6.5408L698.001 2.54299C697.332 2.56511 696.664 2.58802 695.995 2.6117L696.137 6.6092ZM700.129 6.47707C700.795 6.45661 701.461 6.43693 702.126 6.41803L702.013 2.41964C701.344 2.43862 700.675 2.4584 700.006 2.47895L700.129 6.47707ZM704.123 6.36373C704.789 6.34642 705.455 6.32989 706.121 6.31417L706.026 2.31529C705.357 2.33108 704.688 2.34768 704.019 2.36508L704.123 6.36373ZM708.117 6.26944C708.782 6.25533 709.447 6.24202 710.112 6.22951L710.037 2.23022C709.369 2.24278 708.7 2.25616 708.032 2.27033L708.117 6.26944ZM712.108 6.19441C712.774 6.18351 713.439 6.17343 714.105 6.16415L714.049 2.16454C713.38 2.17386 712.711 2.18399 712.043 2.19495L712.108 6.19441ZM716.101 6.13878C716.767 6.13113 717.432 6.12431 718.098 6.1183L718.062 2.11847C717.393 2.1245 716.724 2.13136 716.055 2.13904L716.101 6.13878ZM720.095 6.10276C720.76 6.09841 721.426 6.09488 722.092 6.09218L722.076 2.09222C721.407 2.09492 720.737 2.09847 720.068 2.10285L720.095 6.10276ZM724.089 6.08659C724.755 6.08556 725.421 6.08536 726.087 6.086L726.09 2.08601C725.421 2.08536 724.752 2.08555 724.083 2.0866L724.089 6.08659ZM728.084 6.09046C728.749 6.09279 729.414 6.09596 730.079 6.09998L730.104 2.10005C729.435 2.09601 728.766 2.09283 728.098 2.09049L728.084 6.09046ZM732.075 6.11458C732.741 6.1203 733.406 6.12687 734.072 6.13429L734.116 2.13454C733.447 2.12708 732.779 2.12048 732.11 2.11473L732.075 6.11458ZM736.068 6.15915C736.733 6.16829 737.399 6.1783 738.064 6.18917L738.129 2.18971C737.46 2.17878 736.792 2.16872 736.123 2.15953L736.068 6.15915ZM740.06 6.22439C740.726 6.237 741.391 6.25047 742.057 6.26483L742.143 2.26576C741.474 2.25133 740.805 2.23778 740.136 2.2251L740.06 6.22439ZM744.053 6.31052C744.718 6.32663 745.384 6.34361 746.049 6.36148L746.157 2.36293C745.488 2.34496 744.819 2.32788 744.15 2.31169L744.053 6.31052ZM748.046 6.41775C748.711 6.43738 749.376 6.4579 750.041 6.47931L750.169 2.48138C749.501 2.45986 748.832 2.43923 748.164 2.41949L748.046 6.41775ZM752.035 6.54621C752.7 6.5694 753.365 6.5935 754.03 6.61849L754.18 2.62131C753.512 2.59618 752.843 2.57196 752.175 2.54864L752.035 6.54621ZM756.024 6.69617C756.689 6.72297 757.354 6.75067 758.019 6.77928L758.191 2.78298C757.522 2.75421 756.854 2.72636 756.185 2.69941L756.024 6.69617ZM760.013 6.86786C760.678 6.89829 761.343 6.92964 762.007 6.96191L762.201 2.96662C761.533 2.93417 760.864 2.90264 760.196 2.87204L760.013 6.86786ZM764.001 7.06148C764.666 7.09559 765.331 7.13063 765.995 7.16659L766.211 3.17243C765.543 3.13627 764.875 3.10104 764.206 3.06674L764.001 7.06148ZM767.989 7.27727C768.653 7.31508 769.317 7.35383 769.981 7.3935L770.22 3.40062C769.552 3.36072 768.884 3.32176 768.216 3.28373L767.989 7.27727ZM771.973 7.51531C772.637 7.55685 773.301 7.59932 773.965 7.64275L774.226 3.65127C773.558 3.60761 772.891 3.56488 772.223 3.52311L771.973 7.51531ZM775.956 7.77585C776.62 7.82117 777.283 7.86743 777.947 7.91465L778.231 3.92474C777.563 3.87725 776.896 3.83072 776.228 3.78514L775.956 7.77585ZM779.938 8.05918C780.601 8.10831 781.265 8.1584 781.928 8.20945L782.235 4.22124C781.568 4.1699 780.9 4.11952 780.233 4.0701L779.938 8.05918ZM783.918 8.3655C784.581 8.41848 785.245 8.47243 785.908 8.52735L786.238 4.541C785.571 4.48576 784.904 4.43149 784.237 4.3782L783.918 8.3655ZM787.897 8.69503C788.56 8.7519 789.223 8.80974 789.886 8.86857L790.24 4.88423C789.573 4.82505 788.906 4.76687 788.239 4.70967L787.897 8.69503ZM791.873 9.04785C792.535 9.10859 793.198 9.17031 793.86 9.23302L794.237 5.25085C793.571 5.18776 792.905 5.12567 792.238 5.06457L791.873 9.04785ZM795.846 9.42413C796.508 9.48882 797.17 9.5545 797.831 9.62119L798.232 5.64133C797.567 5.57425 796.901 5.50818 796.235 5.44309L795.846 9.42413ZM799.817 9.82423C800.478 9.89291 801.14 9.96259 801.801 10.0333L802.226 6.05593C801.561 5.98481 800.895 5.9147 800.23 5.84561L799.817 9.82423ZM803.786 10.2484C804.447 10.3211 805.108 10.3948 805.769 10.4695L806.219 6.49483C805.553 6.41964 804.888 6.34548 804.223 6.27233L803.786 10.2484ZM807.752 10.6968C808.413 10.7735 809.074 10.8513 809.735 10.9301L810.209 6.95827C809.544 6.87897 808.879 6.80071 808.214 6.72347L807.752 10.6968ZM811.716 11.1695C812.376 11.2503 813.036 11.3321 813.696 11.4149L814.194 7.44608C813.53 7.36273 812.866 7.28042 812.202 7.19914L811.716 11.1695ZM815.674 11.6665C816.334 11.7514 816.993 11.8374 817.653 11.9243L818.176 7.95869C817.512 7.87117 816.849 7.78469 816.185 7.69926L815.674 11.6665ZM819.63 12.1884C820.289 12.2774 820.948 12.3675 821.607 12.4587L822.155 8.49644C821.492 8.40471 820.829 8.31403 820.166 8.22441L819.63 12.1884ZM823.583 12.7353C824.242 12.8286 824.901 12.9229 825.559 13.0182L826.132 9.05956C825.47 8.96358 824.807 8.86866 824.144 8.77481L823.583 12.7353ZM827.534 13.3075C828.192 13.405 828.85 13.5036 829.508 13.6032L830.107 9.64826C829.445 9.54799 828.782 9.44881 828.12 9.35069L827.534 13.3075ZM831.481 13.9052C832.138 14.0068 832.795 14.1095 833.451 14.2133L834.076 10.2623C833.415 10.1579 832.754 10.0545 832.093 9.95227L831.481 13.9052ZM835.42 14.5278C836.077 14.6336 836.733 14.7406 837.389 14.8487L838.039 10.9019C837.379 10.7931 836.718 10.6854 836.058 10.5788L835.42 14.5278ZM839.356 15.1761C840.012 15.2863 840.668 15.3977 841.323 15.5101L841.999 11.5676C841.339 11.4545 840.679 11.3424 840.019 11.2315L839.356 15.1761ZM843.289 15.8506C843.944 15.9652 844.599 16.0808 845.254 16.1976L845.956 12.2597C845.297 12.1422 844.638 12.0257 843.978 11.9104L843.289 15.8506ZM847.218 16.5513C847.873 16.6703 848.527 16.7904 849.181 16.9116L849.91 12.9785C849.251 12.8565 848.593 12.7356 847.934 12.6158L847.218 16.5513Z" fill="black"/>
</svg>
