<svg width="567" height="136" viewBox="0 0 567 136" fill="none" xmlns="http://www.w3.org/2000/svg">
<path d="M120.5 112.499L120.056 113.395L120.5 112.499ZM567 61.8041L555.512 60.6407L560.249 71.1715L567 61.8041ZM2.99986 0.999572C2.01851 0.807367 2.01848 0.807477 2.01846 0.807589C2.01846 0.807628 2.01843 0.80774 2.01842 0.807818C2.01839 0.807974 2.01836 0.808134 2.01832 0.8083C2.01826 0.808631 2.01819 0.808983 2.01812 0.809354C2.01798 0.810097 2.01782 0.810921 2.01764 0.811826C2.01729 0.813635 2.01689 0.815766 2.01643 0.818219C2.0155 0.823125 2.01435 0.829318 2.013 0.836794C2.01029 0.851745 2.00677 0.871826 2.00259 0.896998C1.99423 0.947343 1.98324 1.01805 1.9709 1.10883C1.94623 1.29039 1.91617 1.55218 1.89099 1.89181L3.88551 2.03971C3.90762 1.74153 3.93338 1.52023 3.95268 1.37814C3.96234 1.3071 3.97038 1.25585 3.97556 1.22469C3.97815 1.20912 3.98002 1.19856 3.98101 1.19306C3.98151 1.19031 3.98179 1.18883 3.98183 1.18861C3.98185 1.1885 3.98181 1.18871 3.98171 1.18924C3.98166 1.1895 3.98159 1.18985 3.98151 1.19027C3.98147 1.19048 3.98142 1.19071 3.98138 1.19096C3.98135 1.19109 3.98133 1.19122 3.9813 1.19136C3.98129 1.19142 3.98126 1.19153 3.98126 1.19156C3.98124 1.19167 3.98122 1.19178 2.99986 0.999572ZM1.84655 3.99878C1.86151 4.61329 1.90018 5.3129 1.97515 6.09462L3.96602 5.90368C3.89563 5.16983 3.85978 4.51768 3.84596 3.9501L1.84655 3.99878ZM2.23202 8.1318C2.33076 8.76875 2.45216 9.44455 2.6005 10.1582L4.55864 9.75113C4.41726 9.07098 4.30194 8.42875 4.20841 7.8254L2.23202 8.1318ZM3.06786 12.1693C3.2299 12.8014 3.41211 13.4576 3.61676 14.1375L5.53187 13.561C5.33517 12.9075 5.16038 12.2779 5.00522 11.6727L3.06786 12.1693ZM4.23826 16.0673C4.4522 16.6914 4.68443 17.3328 4.93639 17.9911L6.80423 17.2761C6.56065 16.6398 6.33647 16.0205 6.1302 15.4188L4.23826 16.0673ZM5.70656 19.9062C5.95945 20.5064 6.22832 21.1191 6.51413 21.7441L8.33298 20.9124C8.05548 20.3055 7.7947 19.7112 7.54966 19.1296L5.70656 19.9062ZM7.39648 23.6013C7.68697 24.1908 7.99223 24.7902 8.31296 25.3995L10.0827 24.4678C9.77021 23.8742 9.47305 23.2906 9.19048 22.7172L7.39648 23.6013ZM9.28679 27.1929C9.60951 27.7698 9.94587 28.3547 10.2964 28.9477L12.0181 27.9298C11.6755 27.3505 11.3471 26.7793 11.0322 26.2164L9.28679 27.1929ZM11.3537 30.6899C11.7024 31.2502 12.0636 31.8171 12.4377 32.3906L14.1127 31.2979C13.7463 30.7362 13.3928 30.1813 13.0517 29.6332L11.3537 30.6899ZM13.5759 34.0963C13.9451 34.6375 14.3257 35.1843 14.7181 35.7365L16.3484 34.578C15.9634 34.0361 15.59 33.4999 15.228 32.9692L13.5759 34.0963ZM15.9306 37.4091C16.3185 37.9337 16.7168 38.463 17.1258 38.9968L18.7133 37.7802C18.3112 37.2555 17.9198 36.7355 17.5389 36.2202L15.9306 37.4091ZM18.3762 40.6C18.7921 41.1241 19.2182 41.6524 19.6549 42.1848L21.2013 40.9165C20.7714 40.3923 20.352 39.8724 19.9429 39.3568L18.3762 40.6ZM20.9323 43.7182C21.3678 44.2331 21.8131 44.7517 22.2684 45.2739L23.7759 43.9596C23.3271 43.4448 22.8883 42.9338 22.4593 42.4266L20.9323 43.7182ZM23.5991 46.7787C24.0397 47.27 24.4891 47.7644 24.9475 48.2619L26.4184 46.9067C25.966 46.4157 25.5226 45.928 25.0881 45.4434L23.5991 46.7787ZM26.3497 49.7635C26.803 50.2425 27.2645 50.7243 27.7345 51.2088L29.17 49.8163C28.7058 49.3377 28.25 48.8619 27.8025 48.3889L26.3497 49.7635ZM29.1369 52.6374C29.6125 53.1161 30.0963 53.5974 30.5885 54.0812L31.9906 52.655C31.504 52.1767 31.0258 51.7009 30.5557 51.2278L29.1369 52.6374ZM32.0347 55.4871C32.5081 55.9422 32.9888 56.3994 33.477 56.8588L34.8476 55.4023C34.3646 54.9478 33.889 54.4954 33.4208 54.0453L32.0347 55.4871ZM34.9639 58.2433C35.4629 58.703 35.9692 59.1648 36.4831 59.6287L37.8232 58.144C37.3143 57.6847 36.813 57.2275 36.3192 56.7725L34.9639 58.2433ZM37.9533 60.9429C38.4501 61.3827 38.9537 61.8244 39.4641 62.2678L40.7758 60.758C40.2701 60.3187 39.7712 59.8812 39.2791 59.4455L37.9533 60.9429ZM41.0161 63.6035C41.5237 64.0363 42.0379 64.4708 42.5587 64.9069L43.8428 63.3736C43.3265 62.9412 42.8168 62.5105 42.3137 62.0815L41.0161 63.6035ZM44.0839 66.1732C44.5985 66.5968 45.1193 67.0218 45.6464 67.4484L46.9046 65.8937C46.3818 65.4706 45.8653 65.049 45.355 64.629L44.0839 66.1732ZM47.2467 68.7325C47.7664 69.146 48.292 69.561 48.8236 69.9772L50.0567 68.4025C49.5291 67.9895 49.0076 67.5778 48.492 67.1675L47.2467 68.7325ZM50.3895 71.1938C50.9171 71.6006 51.4504 72.0086 51.9894 72.4179L53.1988 70.825C52.6637 70.4187 52.1343 70.0137 51.6107 69.6099L50.3895 71.1938ZM53.6239 73.6494C54.1607 74.0508 54.703 74.4533 55.2508 74.857L56.4372 73.2469C55.8931 72.846 55.3546 72.4462 54.8216 72.0477L53.6239 73.6494ZM56.8452 76.0235C57.3819 76.4134 57.9237 76.8044 58.4708 77.1963L59.6356 75.5706C59.0921 75.1811 58.5538 74.7928 58.0208 74.4055L56.8452 76.0235ZM60.1278 78.3754C60.6855 78.7694 61.2484 79.1645 61.8167 79.5605L62.9603 77.9197C62.3955 77.5261 61.8361 77.1335 61.282 76.742L60.1278 78.3754ZM63.4364 80.6822C63.9788 81.0554 64.526 81.4294 65.0779 81.8044L66.2018 80.15C65.6531 79.7773 65.1092 79.4054 64.5701 79.0345L63.4364 80.6822ZM66.748 82.9318C67.3095 83.3085 67.8759 83.686 68.4471 84.0644L69.5516 82.397C68.9836 82.0208 68.4205 81.6454 67.8622 81.2709L66.748 82.9318ZM70.1562 85.1895C70.7017 85.5464 71.2514 85.904 71.8056 86.2624L72.8916 84.583C72.3405 84.2265 71.7937 83.8709 71.2512 83.5159L70.1562 85.1895ZM73.4811 87.3396C74.044 87.6994 74.6113 88.06 75.183 88.4212L76.2513 86.7305C75.6826 86.3711 75.1182 86.0124 74.5583 85.6545L73.4811 87.3396ZM76.9115 89.5072C77.4881 89.8674 78.0691 90.2282 78.6545 90.5898L79.7055 88.8882C79.1229 88.5284 78.5448 88.1693 77.9711 87.8109L76.9115 89.5072ZM80.3293 91.6186C80.8915 91.9622 81.4577 92.3064 82.028 92.6511L83.0628 90.9396C82.4952 90.5965 81.9316 90.2539 81.3721 89.912L80.3293 91.6186ZM83.751 93.6873C84.3294 94.0333 84.9118 94.3799 85.4983 94.7271L86.5171 93.006C85.9332 92.6604 85.3534 92.3154 84.7777 91.971L83.751 93.6873ZM87.2702 95.7705C87.8396 96.104 88.4127 96.438 88.9896 96.7726L89.993 95.0425C89.4185 94.7094 88.8479 94.3768 88.2811 94.0447L87.2702 95.7705ZM90.7026 97.7612C91.2773 98.0912 91.8557 98.4218 92.4378 98.7528L93.4266 97.0143C92.8469 96.6846 92.2709 96.3555 91.6986 96.0268L90.7026 97.7612ZM94.1954 99.7476C94.785 100.08 95.3783 100.412 95.9754 100.745L96.9497 98.9986C96.355 98.6669 95.7641 98.3357 95.1769 98.0049L94.1954 99.7476ZM97.7775 101.746C98.3474 102.06 98.9207 102.376 99.4974 102.692L100.458 100.937C99.8834 100.623 99.3123 100.309 98.7446 99.995L97.7775 101.746ZM101.238 103.64C101.821 103.957 102.408 104.274 102.998 104.591L103.946 102.83C103.357 102.513 102.773 102.197 102.191 101.882L101.238 103.64ZM104.78 105.545C105.377 105.863 105.978 106.182 106.582 106.501L107.516 104.732C106.914 104.414 106.315 104.097 105.72 103.78L104.78 105.545ZM108.405 107.459C108.984 107.762 109.566 108.066 110.151 108.37L111.072 106.595C110.489 106.292 109.909 105.989 109.332 105.687L108.405 107.459ZM111.909 109.279C112.498 109.582 113.091 109.886 113.686 110.19L114.596 108.408C114.002 108.105 113.412 107.803 112.825 107.5L111.909 109.279ZM115.482 111.103C116.084 111.408 116.689 111.713 117.297 112.018L118.195 110.231C117.589 109.926 116.986 109.622 116.386 109.319L115.482 111.103ZM119.132 112.936C119.439 113.089 119.747 113.242 120.056 113.395L120.945 111.603C120.637 111.451 120.33 111.298 120.023 111.145L119.132 112.936ZM120.056 113.395C120.348 113.54 120.641 113.684 120.936 113.827L121.81 112.028C121.52 111.887 121.231 111.746 120.945 111.603L120.056 113.395ZM122.728 114.679C123.331 114.96 123.941 115.238 124.558 115.513L125.373 113.687C124.766 113.416 124.165 113.142 123.572 112.866L122.728 114.679ZM126.427 116.33C127.045 116.595 127.669 116.856 128.299 117.115L129.059 115.265C128.438 115.01 127.823 114.752 127.214 114.491L126.427 116.33ZM130.132 117.853C130.748 118.097 131.37 118.338 131.998 118.576L132.708 116.706C132.088 116.471 131.475 116.233 130.866 115.993L130.132 117.853ZM133.897 119.283C134.536 119.517 135.18 119.747 135.829 119.975L136.492 118.088C135.85 117.863 135.214 117.635 134.583 117.405L133.897 119.283ZM137.698 120.619C138.322 120.83 138.951 121.039 139.584 121.245L140.204 119.344C139.577 119.139 138.956 118.933 138.339 118.725L137.698 120.619ZM141.499 121.857C142.142 122.059 142.79 122.258 143.442 122.455L144.02 120.541C143.375 120.346 142.734 120.149 142.098 119.949L141.499 121.857ZM145.393 123.034C146.021 123.217 146.652 123.397 147.288 123.575L147.828 121.65C147.199 121.473 146.573 121.294 145.952 121.114L145.393 123.034ZM149.208 124.104C149.852 124.279 150.5 124.451 151.152 124.621L151.657 122.685C151.01 122.517 150.368 122.346 149.73 122.174L149.208 124.104ZM153.122 125.125C153.774 125.288 154.43 125.45 155.091 125.61L155.561 123.666C154.906 123.508 154.255 123.347 153.609 123.185L153.122 125.125ZM157.009 126.066C157.652 126.216 158.299 126.364 158.949 126.51L159.388 124.559C158.743 124.414 158.101 124.267 157.464 124.118L157.009 126.066ZM160.911 126.943C161.568 127.086 162.229 127.226 162.893 127.365L163.302 125.407C162.643 125.27 161.987 125.13 161.334 124.989L160.911 126.943ZM164.893 127.774C165.534 127.903 166.178 128.03 166.825 128.155L167.205 126.192C166.562 126.067 165.923 125.941 165.287 125.814L164.893 127.774ZM168.775 128.526C169.429 128.647 170.085 128.767 170.745 128.886L171.098 126.917C170.443 126.799 169.791 126.68 169.142 126.559L168.775 128.526ZM172.733 129.235C173.399 129.35 174.067 129.463 174.739 129.574L175.066 127.601C174.398 127.49 173.734 127.378 173.073 127.264L172.733 129.235ZM176.712 129.894C177.361 129.997 178.012 130.099 178.667 130.199L178.969 128.222C178.318 128.123 177.671 128.022 177.026 127.919L176.712 129.894ZM180.638 130.494C181.298 130.591 181.96 130.686 182.625 130.78L182.904 128.799C182.242 128.706 181.584 128.612 180.928 128.515L180.638 130.494ZM184.629 131.056C185.299 131.146 185.972 131.235 186.648 131.322L186.904 129.338C186.232 129.251 185.562 129.163 184.896 129.073L184.629 131.056ZM188.61 131.569C189.264 131.65 189.92 131.729 190.578 131.806L190.813 129.82C190.158 129.743 189.505 129.664 188.855 129.584L188.61 131.569ZM192.561 132.035C193.225 132.109 193.891 132.183 194.559 132.254L194.772 130.266C194.107 130.194 193.445 130.122 192.785 130.047L192.561 132.035ZM196.57 132.465C197.243 132.533 197.918 132.6 198.595 132.666L198.788 130.675C198.114 130.61 197.442 130.543 196.773 130.475L196.57 132.465ZM200.56 132.852C201.217 132.912 201.875 132.971 202.536 133.029L202.71 131.036C202.052 130.979 201.397 130.92 200.743 130.86L200.56 132.852ZM204.525 133.197C205.19 133.252 205.857 133.305 206.526 133.357L206.681 131.363C206.015 131.312 205.351 131.258 204.689 131.204L204.525 133.197ZM208.54 133.509C209.213 133.558 209.888 133.606 210.565 133.653L210.702 131.657C210.028 131.611 209.355 131.563 208.685 131.515L208.54 133.509ZM212.545 133.784C213.203 133.826 213.863 133.867 214.524 133.906L214.643 131.91C213.985 131.87 213.328 131.83 212.673 131.788L212.545 133.784ZM216.514 134.021C217.179 134.058 217.846 134.093 218.515 134.127L218.617 132.13C217.951 132.096 217.287 132.061 216.625 132.024L216.514 134.021ZM220.527 134.226C221.199 134.258 221.874 134.288 222.55 134.317L222.635 132.319C221.962 132.29 221.29 132.26 220.621 132.228L220.527 134.226ZM224.554 134.399C225.212 134.424 225.871 134.449 226.532 134.472L226.602 132.473C225.943 132.45 225.286 132.426 224.631 132.4L224.554 134.399ZM228.52 134.537C229.184 134.557 229.85 134.577 230.518 134.595L230.572 132.596C229.907 132.578 229.244 132.558 228.582 132.538L228.52 134.537ZM232.526 134.645C233.196 134.661 233.869 134.675 234.543 134.688L234.581 132.689C233.91 132.676 233.24 132.661 232.572 132.646L232.526 134.645ZM236.569 134.724C237.229 134.734 237.89 134.743 238.553 134.751L238.577 132.751C237.917 132.743 237.258 132.734 236.601 132.724L236.569 134.724ZM240.537 134.771C241.2 134.777 241.864 134.781 242.53 134.784L242.539 132.784C241.876 132.781 241.214 132.777 240.554 132.771L240.537 134.771ZM244.531 134.79C245.2 134.791 245.87 134.79 246.541 134.789L246.537 132.789C245.868 132.79 245.2 132.791 244.534 132.79L244.531 134.79ZM248.56 134.781C249.232 134.777 249.907 134.772 250.582 134.765L250.564 132.765C249.89 132.772 249.218 132.777 248.548 132.781L248.56 134.781ZM252.561 134.743C253.222 134.735 253.884 134.726 254.547 134.715L254.515 132.715C253.854 132.726 253.194 132.735 252.536 132.744L252.561 134.743ZM256.541 134.68C257.207 134.667 257.874 134.653 258.543 134.638L258.498 132.638C257.831 132.653 257.166 132.667 256.503 132.68L256.541 134.68ZM260.552 134.589C261.223 134.572 261.895 134.553 262.568 134.533L262.51 132.534C261.839 132.554 261.169 132.572 260.5 132.59L260.552 134.589ZM264.588 134.471C265.246 134.45 265.906 134.427 266.567 134.404L266.496 132.405C265.837 132.429 265.18 132.451 264.523 132.472L264.588 134.471ZM268.553 134.33C269.216 134.305 269.88 134.278 270.545 134.25L270.462 132.252C269.799 132.28 269.137 132.306 268.476 132.332L268.553 134.33ZM272.545 134.163C273.212 134.133 273.881 134.102 274.551 134.07L274.455 132.073C273.787 132.105 273.121 132.136 272.455 132.165L272.545 134.163ZM276.563 133.971C277.235 133.936 277.908 133.901 278.582 133.865L278.474 131.867C277.802 131.904 277.131 131.939 276.461 131.973L276.563 133.971ZM280.564 133.754C281.224 133.717 281.885 133.678 282.547 133.638L282.427 131.642C281.767 131.682 281.108 131.72 280.45 131.758L280.564 133.754ZM284.536 133.516C285.201 133.474 285.866 133.431 286.532 133.388L286.4 131.392C285.736 131.436 285.073 131.478 284.411 131.52L284.536 133.516ZM288.533 133.253C289.201 133.207 289.87 133.16 290.54 133.112L290.397 131.117C289.729 131.165 289.062 131.212 288.396 131.258L288.533 133.253ZM292.552 132.965C293.216 132.915 293.88 132.865 294.545 132.813L294.391 130.819C293.728 130.87 293.065 130.921 292.404 130.97L292.552 132.965ZM296.525 132.657C297.186 132.604 297.847 132.55 298.51 132.495L298.344 130.502C297.683 130.557 297.024 130.611 296.365 130.663L296.525 132.657ZM300.5 132.327C301.164 132.27 301.829 132.212 302.495 132.153L302.318 130.161C301.654 130.219 300.991 130.277 300.328 130.334L300.5 132.327ZM304.495 131.973C305.162 131.912 305.831 131.85 306.5 131.787L306.313 129.795C305.645 129.858 304.978 129.92 304.313 129.981L304.495 131.973ZM308.508 131.595C309.165 131.531 309.823 131.466 310.482 131.401L310.284 129.41C309.626 129.476 308.97 129.54 308.314 129.604L308.508 131.595ZM312.461 131.201C313.121 131.133 313.783 131.064 314.445 130.995L314.236 129.006C313.576 129.075 312.916 129.144 312.257 129.211L312.461 131.201ZM316.433 130.783C317.096 130.712 317.761 130.639 318.426 130.566L318.206 128.578C317.543 128.651 316.88 128.724 316.219 128.795L316.433 130.783ZM320.423 130.343C321.089 130.268 321.756 130.191 322.424 130.114L322.194 128.127C321.528 128.204 320.863 128.28 320.198 128.356L320.423 130.343ZM324.415 129.881C325.072 129.803 325.729 129.724 326.387 129.645L326.147 127.659C325.491 127.739 324.835 127.817 324.18 127.895L324.415 129.881ZM328.364 129.403C329.024 129.321 329.684 129.239 330.345 129.155L330.094 127.171C329.435 127.254 328.777 127.337 328.119 127.418L328.364 129.403ZM332.329 128.902C332.992 128.817 333.654 128.731 334.318 128.644L334.057 126.661C333.396 126.748 332.734 126.834 332.074 126.919L332.329 128.902ZM336.31 128.379C336.975 128.29 337.64 128.2 338.306 128.109L338.036 126.128C337.371 126.218 336.708 126.308 336.045 126.397L336.31 128.379ZM340.286 127.836C340.941 127.745 341.598 127.653 342.255 127.56L341.974 125.58C341.319 125.673 340.664 125.764 340.01 125.856L340.286 127.836ZM344.228 127.278C344.886 127.183 345.545 127.087 346.204 126.99L345.913 125.012C345.256 125.108 344.599 125.204 343.942 125.298L344.228 127.278ZM348.183 126.697C348.844 126.599 349.505 126.499 350.166 126.399L349.866 124.422C349.206 124.522 348.547 124.621 347.888 124.719L348.183 126.697ZM352.152 126.095C352.815 125.993 353.478 125.889 354.142 125.785L353.832 123.809C353.17 123.913 352.508 124.016 351.847 124.118L352.152 126.095ZM356.114 125.473C356.768 125.369 357.423 125.264 358.078 125.158L357.759 123.184C357.105 123.289 356.452 123.394 355.799 123.498L356.114 125.473ZM360.046 124.837C360.702 124.729 361.359 124.62 362.016 124.511L361.687 122.538C361.032 122.647 360.376 122.756 359.722 122.863L360.046 124.837ZM363.99 124.179C364.648 124.067 365.307 123.955 365.966 123.842L365.627 121.871C364.97 121.984 364.312 122.096 363.656 122.207L363.99 124.179ZM367.945 123.499C368.605 123.384 369.265 123.268 369.926 123.152L369.578 121.182C368.919 121.299 368.26 121.414 367.601 121.529L367.945 123.499ZM371.894 122.801C372.546 122.684 373.199 122.566 373.853 122.448L373.495 120.48C372.843 120.598 372.192 120.716 371.541 120.833L371.894 122.801ZM375.814 122.089C376.468 121.968 377.123 121.847 377.778 121.725L377.411 119.759C376.757 119.881 376.104 120.002 375.452 120.122L375.814 122.089ZM379.744 121.355C380.399 121.231 381.056 121.107 381.712 120.981L381.336 119.017C380.681 119.142 380.026 119.267 379.372 119.39L379.744 121.355ZM383.683 120.601C384.34 120.473 384.998 120.345 385.656 120.216L385.27 118.253C384.614 118.382 383.958 118.51 383.302 118.638L383.683 120.601ZM387.62 119.827C388.271 119.698 388.921 119.568 389.572 119.437L389.178 117.476C388.528 117.607 387.879 117.737 387.23 117.866L387.62 119.827ZM391.527 119.041C392.178 118.908 392.83 118.774 393.483 118.64L393.079 116.681C392.428 116.815 391.777 116.948 391.127 117.081L391.527 119.041ZM395.441 118.233C396.094 118.097 396.747 117.96 397.401 117.822L396.988 115.865C396.336 116.003 395.684 116.14 395.032 116.276L395.441 118.233ZM399.363 117.405C400.017 117.266 400.671 117.125 401.326 116.984L400.904 115.029C400.251 115.17 399.598 115.31 398.945 115.45L399.363 117.405ZM403.289 116.557C403.937 116.416 404.585 116.273 405.233 116.13L404.802 114.177C404.155 114.32 403.508 114.462 402.862 114.603L403.289 116.557ZM407.179 115.698C407.828 115.553 408.478 115.407 409.127 115.26L408.687 113.309C408.039 113.456 407.391 113.601 406.743 113.746L407.179 115.698ZM411.077 114.818C411.727 114.669 412.377 114.52 413.027 114.37L412.578 112.421C411.929 112.571 411.28 112.72 410.632 112.868L411.077 114.818ZM414.98 113.917C415.631 113.766 416.282 113.613 416.933 113.459L416.475 111.513C415.825 111.666 415.175 111.818 414.526 111.97L414.98 113.917ZM418.889 112.996C419.535 112.842 420.183 112.688 420.83 112.532L420.362 110.587C419.716 110.743 419.071 110.897 418.425 111.051L418.889 112.996ZM422.768 112.064C423.414 111.907 424.06 111.749 424.706 111.59L424.23 109.648C423.585 109.806 422.94 109.963 422.295 110.12L422.768 112.064ZM426.646 111.112C427.293 110.951 427.94 110.79 428.588 110.628L428.102 108.688C427.456 108.85 426.811 109.011 426.165 109.17L426.646 111.112ZM430.53 110.14C431.177 109.976 431.825 109.811 432.473 109.646L431.978 107.708C431.332 107.873 430.686 108.037 430.04 108.201L430.53 110.14ZM434.417 109.147C435.064 108.981 435.71 108.813 436.357 108.645L435.854 106.709C435.208 106.877 434.563 107.044 433.918 107.211L434.417 109.147ZM438.286 108.141C438.929 107.972 439.572 107.802 440.215 107.632L439.703 105.699C439.061 105.869 438.419 106.038 437.778 106.207L438.286 108.141ZM442.145 107.118C442.789 106.945 443.432 106.772 444.076 106.599L443.555 104.668C442.912 104.841 442.27 105.014 441.628 105.186L442.145 107.118ZM446.008 106.074C446.652 105.899 447.296 105.723 447.94 105.545L447.409 103.617C446.767 103.794 446.124 103.97 445.482 104.145L446.008 106.074ZM449.873 105.011C450.517 104.832 451.162 104.653 451.806 104.472L451.267 102.546C450.624 102.726 449.981 102.906 449.338 103.084L449.873 105.011ZM453.729 103.931C454.368 103.75 455.008 103.569 455.648 103.386L455.1 101.463C454.461 101.645 453.823 101.826 453.185 102.007L453.729 103.931ZM457.568 102.837C458.208 102.653 458.848 102.468 459.488 102.282L458.93 100.361C458.292 100.547 457.653 100.731 457.015 100.915L457.568 102.837ZM461.408 101.722C462.048 101.535 462.689 101.347 463.329 101.158L462.763 99.2396C462.124 99.4282 461.485 99.616 460.846 99.8029L461.408 101.722ZM465.25 100.588C465.89 100.398 466.531 100.206 467.171 100.014L466.596 98.0983C465.957 98.2901 465.318 98.4812 464.679 98.6714L465.25 100.588ZM469.091 99.4348C469.727 99.2421 470.363 99.0486 470.999 98.8543L470.415 96.9416C469.781 97.1354 469.146 97.3284 468.511 97.5206L469.091 99.4348ZM472.908 98.269C473.544 98.073 474.181 97.8763 474.817 97.6787L474.224 95.7687C473.589 95.9658 472.954 96.1621 472.319 96.3576L472.908 98.269ZM476.725 97.0835C477.362 96.8843 477.998 96.6842 478.634 96.4833L478.032 94.5761C477.397 94.7765 476.763 94.9761 476.128 95.1749L476.725 97.0835ZM480.543 95.8783C481.179 95.6758 481.815 95.4724 482.452 95.2683L481.84 93.3639C481.206 93.5676 480.571 93.7705 479.936 93.9725L480.543 95.8783ZM484.36 94.6533C484.994 94.4481 485.629 94.242 486.263 94.0351L485.643 92.1337C485.01 92.3401 484.377 92.5457 483.744 92.7505L484.36 94.6533ZM488.16 93.4139C488.793 93.206 489.425 92.9973 490.057 92.7878L489.428 90.8893C488.797 91.0984 488.166 91.3066 487.536 91.5139L488.16 93.4139ZM491.954 92.1568C492.586 91.9457 493.218 91.7337 493.85 91.5209L493.212 89.6255C492.581 89.8377 491.95 90.0492 491.32 90.2599L491.954 92.1568ZM495.745 90.8801C496.377 90.6657 497.009 90.4505 497.641 90.2344L496.994 88.342C496.363 88.5576 495.733 88.7723 495.103 88.9862L495.745 90.8801ZM499.536 89.5838C500.167 89.3661 500.799 89.1475 501.43 88.9282L500.774 87.0389C500.144 87.2578 499.514 87.4758 498.884 87.6929L499.536 89.5838ZM503.318 88.27C503.946 88.0501 504.574 87.8294 505.202 87.6079L504.536 85.7218C503.91 85.9428 503.283 86.163 502.657 86.3824L503.318 88.27ZM507.085 86.9408C507.713 86.7176 508.341 86.4936 508.968 86.2688L508.294 84.386C507.668 84.6102 507.042 84.8337 506.416 85.0563L507.085 86.9408ZM510.851 85.5919C511.478 85.3655 512.105 85.1382 512.732 84.9101L512.049 83.0306C511.423 83.2581 510.798 83.4848 510.172 83.7107L510.851 85.5919ZM514.613 84.2234C515.24 83.9937 515.867 83.7632 516.493 83.5319L515.801 81.6557C515.176 81.8865 514.55 82.1164 513.925 82.3456L514.613 84.2234ZM518.373 82.8353C518.997 82.6032 519.62 82.3703 520.244 82.1366L519.542 80.2638C518.92 80.497 518.298 80.7293 517.675 80.9609L518.373 82.8353ZM522.114 81.433C522.737 81.1976 523.36 80.9615 523.983 80.7245L523.272 78.8552C522.651 79.0916 522.029 79.3272 521.408 79.5619L522.114 81.433ZM525.852 80.0111C526.474 79.7725 527.097 79.5331 527.719 79.2928L526.998 77.4271C526.378 77.6667 525.757 77.9056 525.136 78.1436L525.852 80.0111ZM529.585 78.5697C530.207 78.3278 530.828 78.0851 531.45 77.8416L530.72 75.9794C530.1 76.2223 529.48 76.4644 528.86 76.7057L529.585 78.5697ZM533.314 77.1086C533.935 76.8635 534.555 76.6177 535.176 76.371L534.437 74.5125C533.818 74.7586 533.199 75.0038 532.58 75.2482L533.314 77.1086ZM537.032 75.6304C537.65 75.3828 538.268 75.1343 538.886 74.8849L538.138 73.0302C537.521 73.2789 536.905 73.5267 536.288 73.7738L537.032 75.6304ZM540.74 74.1345C541.357 73.8836 541.975 73.6318 542.592 73.3792L541.834 71.5283C541.218 71.7802 540.603 72.0314 539.987 72.2817L540.74 74.1345ZM544.442 72.619C545.059 72.3648 545.675 72.1098 546.292 71.8539L545.525 70.0068C544.91 70.262 544.295 70.5164 543.68 70.77L544.442 72.619ZM548.139 71.0839C548.755 70.8264 549.371 70.568 549.986 70.3089L549.209 68.4657C548.596 68.7242 547.982 68.9819 547.368 69.2387L548.139 71.0839ZM551.829 69.5296C552.443 69.2694 553.056 69.0083 553.669 68.7465L552.883 66.9073C552.272 67.1685 551.66 67.4289 551.048 67.6884L551.829 69.5296ZM555.506 67.9585C556.119 67.695 556.731 67.4306 557.342 67.1655L556.547 65.3304C555.937 65.5949 555.326 65.8585 554.716 66.1213L555.506 67.9585ZM559.177 66.3676C559.788 66.1009 560.399 65.8333 561.01 65.5648L560.205 63.7339C559.596 64.0017 558.986 64.2686 558.377 64.5346L559.177 66.3676ZM562.841 64.7571C563.451 64.4871 564.06 64.2162 564.67 63.9445L563.855 62.1178C563.247 62.3888 562.639 62.659 562.031 62.9283L562.841 64.7571ZM120.5 112.499L119.611 114.291L120.5 112.499ZM567 61.8041L544.024 59.4774L553.497 80.539L567 61.8041ZM2.99986 0.999572C1.03715 0.615162 1.03711 0.615381 1.03707 0.615602C1.03705 0.615677 1.03701 0.615899 1.03698 0.61605C1.03692 0.616351 1.03686 0.616657 1.0368 0.616968C1.03668 0.617591 1.03655 0.618233 1.03642 0.618897C1.03617 0.620223 1.03589 0.62163 1.03561 0.623119C1.03504 0.626096 1.03441 0.629397 1.03372 0.633023C1.03236 0.640274 1.03077 0.648822 1.02899 0.65866C1.02543 0.678338 1.02108 0.70318 1.0161 0.733149C1.00615 0.793089 0.993684 0.873531 0.980007 0.974174C0.952652 1.17547 0.920449 1.45751 0.893728 1.81787L4.88278 2.11366C4.90335 1.8362 4.92695 1.63515 4.94358 1.5128C4.95189 1.45162 4.95846 1.41011 4.96204 1.38854C4.96384 1.37776 4.96488 1.37197 4.96502 1.37119C4.96509 1.37081 4.96493 1.37168 4.96453 1.37381C4.96433 1.37487 4.96407 1.37625 4.96374 1.37795C4.96358 1.3788 4.9634 1.37972 4.96321 1.38073C4.96311 1.38123 4.96301 1.38175 4.9629 1.3823C4.96285 1.38257 4.96279 1.38284 4.96274 1.38312C4.96271 1.38326 4.96267 1.38348 4.96266 1.38355C4.96261 1.38376 4.96257 1.38398 2.99986 0.999572ZM0.846846 4.02313C0.862381 4.6611 0.90245 5.38443 0.97972 6.19009L4.96145 5.80821C4.89336 5.0983 4.85891 4.46987 4.84566 3.92575L0.846846 4.02313ZM1.24382 8.28499C1.34517 8.93875 1.46961 9.63133 1.62143 10.3617L5.53771 9.54762C5.39981 8.8842 5.28753 8.25874 5.19661 7.67221L1.24382 8.28499ZM2.09919 12.4176C2.26466 13.0631 2.45058 13.7327 2.6592 14.4257L6.48942 13.2727C6.2967 12.6325 6.12562 12.0162 5.97389 11.4243L2.09919 12.4176ZM3.29229 16.3915C3.51007 17.0269 3.74632 17.6793 4.00248 18.3485L7.73814 16.9186C7.49876 16.2932 7.2786 15.6851 7.07617 15.0945L3.29229 16.3915ZM4.78502 20.2944C5.04183 20.904 5.31474 21.5259 5.60471 22.16L9.2424 20.4965C8.96906 19.8988 8.71232 19.3136 8.4712 18.7414L4.78502 20.2944ZM6.49948 24.0433C6.79394 24.6409 7.10324 25.2482 7.42809 25.8653L10.9676 24.0019C10.6592 23.4162 10.3661 22.8406 10.0875 22.2752L6.49948 24.0433ZM8.41408 27.6811C8.74071 28.265 9.08104 28.8569 9.43563 29.4566L12.8789 27.4209C12.5404 26.8484 12.2159 26.2841 11.9049 25.7282L8.41408 27.6811ZM10.5047 31.2183C10.8571 31.7847 11.2222 32.3576 11.6001 32.937L14.9503 30.7515C14.5877 30.1957 14.238 29.6468 13.9007 29.1048L10.5047 31.2183ZM12.7498 34.6598C13.1226 35.2064 13.5069 35.7584 13.9029 36.3157L17.1636 33.9988C16.7822 33.4621 16.4125 32.931 16.0541 32.4057L12.7498 34.6598ZM15.1265 38.0036C15.5178 38.5329 15.9196 39.0667 16.3321 39.605L19.507 37.172C19.1084 36.6518 18.7205 36.1363 18.343 35.6257L15.1265 38.0036ZM17.5929 41.2216C18.0121 41.7499 18.4416 42.2824 18.8817 42.8189L21.9745 40.2823C21.548 39.7623 21.132 39.2466 20.7263 38.7353L17.5929 41.2216ZM20.1688 44.364C20.6075 44.8827 21.0561 45.4051 21.5146 45.931L24.5297 43.3025C24.0841 42.7914 23.6486 42.2841 23.2228 41.7808L20.1688 44.364ZM22.8547 47.4464C23.2983 47.941 23.7507 48.4388 24.2121 48.9395L27.1538 46.2291C26.7045 45.7414 26.2641 45.257 25.8326 44.7758L22.8547 47.4464ZM25.6233 50.4508C26.0795 50.9329 26.5438 51.4176 27.0167 51.9051L29.8878 49.1201C29.4265 48.6444 28.9735 48.1716 28.5289 47.7016L25.6233 50.4508ZM28.4275 53.3421C28.9059 53.8237 29.3925 54.3078 29.8874 54.7943L32.6917 51.9419C32.2079 51.4663 31.7324 50.9933 31.2651 50.523L28.4275 53.3421ZM31.3417 56.208C31.8177 56.6656 32.3009 57.1253 32.7917 57.5871L35.5329 54.674C35.0525 54.2219 34.5795 53.772 34.1138 53.3244L31.3417 56.208ZM34.2863 58.9788C34.7878 59.4408 35.2967 59.9049 35.8131 60.371L38.4932 57.4016C37.9869 56.9446 37.4881 56.4898 36.9968 56.0371L34.2863 58.9788ZM37.2904 61.6916C37.7896 62.1335 38.2955 62.5773 38.8083 63.0228L41.4316 60.0031C40.9283 59.5658 40.4318 59.1304 39.9421 58.6968L37.2904 61.6916ZM40.3673 64.3644C40.8772 64.7992 41.3937 65.2356 41.9167 65.6736L44.4848 62.6069C43.9708 62.1764 43.4633 61.7476 42.9625 61.3206L40.3673 64.3644ZM43.4484 66.9453C43.9652 67.3706 44.4881 67.7974 45.0174 68.2257L47.5337 65.1163C47.013 64.695 46.4987 64.2752 45.9905 63.8569L43.4484 66.9453ZM46.624 69.515C47.1458 69.9302 47.6735 70.3467 48.2071 70.7646L50.6732 67.6152C50.1477 67.2037 49.6282 66.7936 49.1146 66.385L46.624 69.515ZM49.7789 71.9858C50.3085 72.3941 50.8437 72.8036 51.3847 73.2144L53.8035 70.0286C53.2704 69.6237 52.7429 69.2202 52.2212 68.818L49.7789 71.9858ZM53.0251 74.4503C53.5637 74.8531 54.1079 75.257 54.6576 75.6621L57.0304 72.4418C56.4882 72.0423 55.9515 71.644 55.4205 71.2468L53.0251 74.4503ZM56.2574 76.8326C56.7959 77.2238 57.3395 77.616 57.8884 78.0092L60.218 74.7577C59.6763 74.3695 59.1398 73.9825 58.6086 73.5965L56.2574 76.8326ZM59.5508 79.1921C60.1102 79.5873 60.6749 79.9836 61.2449 80.3809L63.5321 77.0993C62.9691 76.7069 62.4114 76.3156 61.8591 75.9253L59.5508 79.1921ZM62.8696 81.506C63.4136 81.8803 63.9624 82.2555 64.5159 82.6316L66.7637 79.3228C66.2167 78.9512 65.6744 78.5805 65.137 78.2107L62.8696 81.506ZM66.1909 83.7623C66.7541 84.14 67.322 84.5186 67.8949 84.8981L70.1039 81.5634C69.5374 81.1882 68.9759 80.8138 68.4192 80.4404L66.1909 83.7623ZM69.6087 86.0264C70.1557 86.3842 70.7069 86.7428 71.2625 87.1021L73.4347 83.7432C72.885 83.3878 72.3397 83.0331 71.7987 82.6791L69.6087 86.0264ZM72.9425 88.1822C73.5069 88.543 74.0756 88.9044 74.6488 89.2666L76.7855 85.8851C76.2182 85.5266 75.6553 85.1689 75.0969 84.8119L72.9425 88.1822ZM76.3817 90.3553C76.9597 90.7164 77.5422 91.0782 78.1291 91.4406L80.231 88.0374C79.6498 87.6785 79.0731 87.3203 78.5009 86.9628L76.3817 90.3553ZM79.8078 92.4719C80.3714 92.8163 80.939 93.1613 81.5106 93.5069L83.5801 90.0839C83.0139 89.7415 82.4517 89.3998 81.8935 89.0587L79.8078 92.4719ZM83.2376 94.5455C83.8173 94.8923 84.4011 95.2397 84.9889 95.5876L87.0265 92.1455C86.4439 91.8006 85.8655 91.4564 85.2911 91.1128L83.2376 94.5455ZM86.7648 96.6333C87.3354 96.9676 87.9098 97.3023 88.4879 97.6377L90.4947 94.1774C89.9215 93.845 89.3521 93.5132 88.7865 93.1819L86.7648 96.6333ZM90.2046 98.6284C90.7805 98.9591 91.3601 99.2903 91.9435 99.6221L93.9209 96.1451C93.3424 95.8161 92.7677 95.4876 92.1967 95.1597L90.2046 98.6284ZM93.7047 100.619C94.2954 100.952 94.89 101.285 95.4883 101.619L97.4368 98.1253C96.8433 97.7942 96.2536 97.4637 95.6676 97.1336L93.7047 100.619ZM97.2939 102.621C97.865 102.936 98.4394 103.252 99.0172 103.569L100.938 100.06C100.365 99.7462 99.7948 99.4327 99.2282 99.1197L97.2939 102.621ZM100.761 104.519C101.345 104.836 101.933 105.154 102.525 105.472L104.419 101.949C103.832 101.633 103.249 101.318 102.668 101.003L100.761 104.519ZM104.309 106.427C104.908 106.746 105.509 107.065 106.115 107.385L107.983 103.848C107.382 103.531 106.785 103.214 106.191 102.897L104.309 106.427ZM107.941 108.345C108.521 108.649 109.104 108.953 109.69 109.257L111.533 105.707C110.951 105.405 110.372 105.103 109.796 104.801L107.941 108.345ZM111.451 110.168C112.042 110.471 112.635 110.776 113.231 111.08L115.05 107.518C114.458 107.215 113.868 106.913 113.282 106.611L111.451 110.168ZM115.03 111.995C115.633 112.3 116.239 112.606 116.848 112.912L118.644 109.337C118.038 109.033 117.436 108.73 116.837 108.426L115.03 111.995ZM118.686 113.831C118.993 113.984 119.302 114.137 119.611 114.291L121.389 110.708C121.081 110.555 120.775 110.403 120.469 110.25L118.686 113.831ZM119.611 114.291C119.906 114.437 120.202 114.582 120.5 114.727L122.247 111.129C121.959 110.989 121.673 110.849 121.389 110.708L119.611 114.291ZM122.306 115.585C122.914 115.869 123.529 116.149 124.15 116.426L125.781 112.774C125.178 112.505 124.583 112.233 123.994 111.959L122.306 115.585ZM126.034 117.249C126.656 117.516 127.285 117.779 127.919 118.04L129.439 114.34C128.822 114.087 128.212 113.831 127.608 113.572L126.034 117.249ZM129.764 118.783C130.385 119.029 131.011 119.271 131.643 119.511L133.063 115.772C132.448 115.538 131.838 115.302 131.234 115.063L129.764 118.783ZM133.554 120.223C134.197 120.457 134.845 120.689 135.498 120.919L136.823 117.145C136.185 116.921 135.553 116.694 134.926 116.465L133.554 120.223ZM137.378 121.567C138.005 121.779 138.638 121.989 139.275 122.196L140.513 118.393C139.891 118.19 139.272 117.985 138.659 117.777L137.378 121.567ZM141.2 122.811C141.846 123.014 142.497 123.215 143.153 123.413L144.31 119.584C143.667 119.39 143.03 119.193 142.397 118.995L141.2 122.811ZM145.114 123.994C145.744 124.178 146.379 124.359 147.018 124.538L148.098 120.687C147.472 120.511 146.849 120.333 146.231 120.153L145.114 123.994ZM148.947 125.07C149.594 125.245 150.245 125.418 150.9 125.588L151.909 121.718C151.266 121.55 150.626 121.38 149.991 121.208L148.947 125.07ZM152.878 126.094C153.533 126.259 154.192 126.421 154.855 126.582L155.796 122.694C155.144 122.536 154.496 122.377 153.852 122.215L152.878 126.094ZM156.782 127.04C157.428 127.19 158.077 127.339 158.73 127.486L159.607 123.583C158.965 123.439 158.326 123.293 157.691 123.144L156.782 127.04ZM160.699 127.921C161.359 128.064 162.022 128.205 162.689 128.344L163.506 124.428C162.849 124.291 162.196 124.152 161.546 124.011L160.699 127.921ZM164.696 128.755C165.339 128.884 165.985 129.011 166.635 129.137L167.395 125.21C166.754 125.086 166.117 124.96 165.484 124.833L164.696 128.755ZM168.592 129.509C169.248 129.631 169.907 129.751 170.569 129.87L171.274 125.933C170.621 125.816 169.972 125.697 169.325 125.576L168.592 129.509ZM172.563 130.22C173.231 130.336 173.902 130.449 174.576 130.561L175.229 126.614C174.564 126.504 173.902 126.392 173.242 126.279L172.563 130.22ZM176.555 130.882C177.206 130.985 177.859 131.087 178.516 131.188L179.12 127.233C178.472 127.134 177.826 127.034 177.183 126.931L176.555 130.882ZM180.493 131.484C181.154 131.581 181.819 131.676 182.486 131.77L183.043 127.809C182.384 127.716 181.727 127.622 181.073 127.526L180.493 131.484ZM184.495 132.047C185.168 132.137 185.843 132.226 186.52 132.313L187.032 128.346C186.362 128.26 185.694 128.172 185.029 128.082L184.495 132.047ZM188.487 132.561C189.143 132.642 189.801 132.722 190.461 132.799L190.93 128.827C190.276 128.75 189.625 128.671 188.977 128.592L188.487 132.561ZM192.45 133.029C193.115 133.103 193.782 133.177 194.452 133.249L194.879 129.271C194.216 129.2 193.555 129.128 192.897 129.054L192.45 133.029ZM196.468 133.459C197.143 133.528 197.82 133.596 198.499 133.661L198.885 129.68C198.212 129.615 197.542 129.548 196.874 129.48L196.468 133.459ZM200.468 133.847C201.127 133.908 201.787 133.967 202.449 134.025L202.797 130.04C202.141 129.983 201.487 129.924 200.835 129.864L200.468 133.847ZM204.443 134.194C205.109 134.249 205.778 134.302 206.448 134.354L206.758 130.366C206.094 130.315 205.431 130.262 204.771 130.207L204.443 134.194ZM208.467 134.507C209.141 134.556 209.818 134.604 210.497 134.65L210.77 130.66C210.098 130.613 209.427 130.566 208.758 130.517L208.467 134.507ZM212.481 134.782C213.14 134.824 213.802 134.865 214.464 134.904L214.703 130.912C214.046 130.872 213.39 130.832 212.737 130.79L212.481 134.782ZM216.459 135.019C217.125 135.056 217.794 135.092 218.464 135.126L218.668 131.131C218.004 131.097 217.341 131.062 216.68 131.025L216.459 135.019ZM220.48 135.225C221.154 135.257 221.829 135.287 222.507 135.316L222.678 131.32C222.006 131.291 221.336 131.261 220.668 131.23L220.48 135.225ZM224.515 135.398C225.174 135.424 225.835 135.448 226.497 135.471L226.636 131.473C225.979 131.451 225.324 131.426 224.67 131.401L224.515 135.398ZM228.489 135.536C229.155 135.557 229.822 135.576 230.491 135.594L230.599 131.596C229.935 131.578 229.273 131.559 228.613 131.538L228.489 135.536ZM232.502 135.645C233.174 135.661 233.848 135.675 234.523 135.688L234.601 131.689C233.931 131.676 233.262 131.661 232.595 131.646L232.502 135.645ZM236.554 135.723C237.215 135.734 237.877 135.743 238.541 135.751L238.589 131.751C237.93 131.743 237.272 131.734 236.616 131.724L236.554 135.723ZM240.529 135.771C241.193 135.776 241.858 135.781 242.525 135.784L242.544 131.784C241.882 131.781 241.221 131.777 240.562 131.771L240.529 135.771ZM244.53 135.79C245.2 135.791 245.871 135.79 246.544 135.789L246.534 131.789C245.866 131.79 245.2 131.791 244.535 131.79L244.53 135.79ZM248.565 135.781C249.239 135.777 249.915 135.772 250.592 135.765L250.554 131.765C249.882 131.772 249.211 131.777 248.542 131.781L248.565 135.781ZM252.574 135.743C253.236 135.735 253.899 135.726 254.563 135.715L254.499 131.715C253.839 131.726 253.18 131.735 252.523 131.744L252.574 135.743ZM256.561 135.68C257.228 135.667 257.896 135.653 258.565 135.637L258.475 131.639C257.81 131.654 257.146 131.667 256.483 131.68L256.561 135.68ZM260.578 135.589C261.25 135.571 261.923 135.553 262.598 135.533L262.481 131.535C261.811 131.554 261.142 131.573 260.474 131.59L260.578 135.589ZM264.62 135.471C265.28 135.449 265.941 135.427 266.602 135.403L266.46 131.406C265.803 131.429 265.146 131.452 264.491 131.473L264.62 135.471ZM268.591 135.33C269.256 135.304 269.921 135.277 270.587 135.249L270.42 131.253C269.758 131.28 269.097 131.307 268.437 131.332L268.591 135.33ZM272.59 135.162C273.258 135.132 273.928 135.101 274.599 135.069L274.407 131.074C273.74 131.106 273.075 131.137 272.41 131.166L272.59 135.162ZM276.614 134.969C277.287 134.935 277.961 134.9 278.636 134.863L278.42 130.869C277.749 130.905 277.079 130.94 276.41 130.975L276.614 134.969ZM280.621 134.753C281.282 134.715 281.944 134.676 282.607 134.637L282.367 130.644C281.708 130.683 281.05 130.722 280.393 130.759L280.621 134.753ZM284.599 134.514C285.264 134.472 285.93 134.429 286.597 134.385L286.335 130.394C285.671 130.438 285.009 130.48 284.348 130.522L284.599 134.514ZM288.602 134.25C289.271 134.204 289.94 134.157 290.611 134.109L290.325 130.12C289.658 130.167 288.992 130.214 288.327 130.26L288.602 134.25ZM292.627 133.962C293.291 133.912 293.956 133.862 294.623 133.81L294.314 129.822C293.651 129.873 292.99 129.924 292.329 129.973L292.627 133.962ZM296.605 133.654C297.266 133.601 297.929 133.547 298.592 133.492L298.261 129.505C297.602 129.56 296.943 129.614 296.285 129.667L296.605 133.654ZM300.585 133.323C301.25 133.266 301.916 133.208 302.583 133.149L302.23 129.165C301.567 129.223 300.904 129.281 300.243 129.338L300.585 133.323ZM304.586 132.969C305.254 132.907 305.924 132.845 306.594 132.782L306.219 128.8C305.552 128.863 304.887 128.924 304.222 128.985L304.586 132.969ZM308.604 132.59C309.262 132.526 309.921 132.461 310.581 132.396L310.184 128.415C309.528 128.481 308.873 128.545 308.218 128.609L308.604 132.59ZM312.563 132.195C313.224 132.128 313.886 132.059 314.549 131.989L314.131 128.011C313.472 128.081 312.813 128.149 312.156 128.216L312.563 132.195ZM316.54 131.778C317.204 131.706 317.87 131.634 318.535 131.56L318.096 127.584C317.434 127.657 316.772 127.729 316.112 127.801L316.54 131.778ZM320.535 131.337C321.202 131.261 321.87 131.185 322.539 131.107L322.079 127.134C321.414 127.211 320.749 127.287 320.086 127.362L320.535 131.337ZM324.532 130.874C325.19 130.796 325.848 130.717 326.508 130.637L326.027 126.666C325.371 126.746 324.716 126.824 324.062 126.902L324.532 130.874ZM328.487 130.395C329.147 130.314 329.808 130.231 330.47 130.148L329.969 126.179C329.311 126.262 328.653 126.344 327.996 126.426L328.487 130.395ZM332.457 129.894C333.12 129.809 333.784 129.722 334.448 129.635L333.927 125.669C333.266 125.756 332.606 125.842 331.946 125.927L332.457 129.894ZM336.443 129.37C337.109 129.281 337.775 129.191 338.442 129.1L337.9 125.137C337.237 125.228 336.574 125.317 335.912 125.406L336.443 129.37ZM340.423 128.827C341.08 128.736 341.737 128.643 342.395 128.55L341.834 124.59C341.179 124.682 340.525 124.774 339.872 124.865L340.423 128.827ZM344.37 128.268C345.029 128.173 345.689 128.077 346.349 127.98L345.768 124.022C345.111 124.119 344.455 124.214 343.799 124.309L344.37 128.268ZM348.331 127.686C348.992 127.588 349.654 127.488 350.316 127.388L349.716 123.433C349.057 123.533 348.398 123.632 347.74 123.73L348.331 127.686ZM352.305 127.083C352.968 126.981 353.632 126.877 354.297 126.773L353.677 122.822C353.016 122.925 352.355 123.028 351.695 123.13L352.305 127.083ZM356.271 126.461C356.926 126.357 357.582 126.251 358.238 126.145L357.599 122.196C356.946 122.302 356.294 122.407 355.642 122.511L356.271 126.461ZM360.208 125.824C360.865 125.716 361.523 125.607 362.181 125.497L361.523 121.552C360.868 121.661 360.213 121.769 359.559 121.877L360.208 125.824ZM364.157 125.165C364.816 125.053 365.475 124.941 366.135 124.827L365.458 120.885C364.801 120.998 364.145 121.11 363.489 121.221L364.157 125.165ZM368.116 124.485C368.777 124.369 369.439 124.253 370.1 124.136L369.404 120.197C368.745 120.314 368.087 120.429 367.43 120.544L368.116 124.485ZM372.07 123.786C372.724 123.668 373.377 123.55 374.031 123.432L373.316 119.496C372.665 119.614 372.015 119.732 371.364 119.848L372.07 123.786ZM375.995 123.072C376.65 122.952 377.305 122.83 377.961 122.708L377.227 118.776C376.575 118.898 375.922 119.018 375.27 119.139L375.995 123.072ZM379.929 122.338C380.586 122.214 381.243 122.089 381.9 121.963L381.148 118.034C380.494 118.16 379.84 118.284 379.186 118.408L379.929 122.338ZM383.873 121.583C384.531 121.455 385.19 121.326 385.849 121.197L385.077 117.272C384.422 117.401 383.766 117.529 383.111 117.656L383.873 121.583ZM387.815 120.808C388.467 120.679 389.118 120.548 389.77 120.417L388.98 116.496C388.331 116.626 387.683 116.756 387.035 116.885L387.815 120.808ZM391.726 120.021C392.379 119.888 393.032 119.754 393.685 119.619L392.877 115.702C392.227 115.836 391.577 115.969 390.928 116.101L391.726 120.021ZM395.645 119.212C396.299 119.076 396.953 118.939 397.607 118.8L396.781 114.887C396.13 115.024 395.479 115.161 394.828 115.297L395.645 119.212ZM399.571 118.383C400.226 118.243 400.882 118.103 401.537 117.961L400.693 114.051C400.04 114.192 399.388 114.332 398.736 114.472L399.571 118.383ZM403.502 117.534C404.151 117.392 404.8 117.25 405.449 117.106L404.586 113.201C403.94 113.343 403.294 113.485 402.648 113.626L403.502 117.534ZM407.397 116.674C408.047 116.529 408.697 116.383 409.348 116.236L408.466 112.334C407.819 112.48 407.172 112.625 406.525 112.77L407.397 116.674ZM411.299 115.793C411.95 115.644 412.601 115.495 413.252 115.344L412.353 111.447C411.705 111.596 411.057 111.745 410.409 111.893L411.299 115.793ZM415.207 114.891C415.859 114.739 416.511 114.586 417.163 114.433L416.246 110.539C415.596 110.692 414.947 110.844 414.299 110.996L415.207 114.891ZM419.12 113.969C419.768 113.815 420.416 113.66 421.064 113.504L420.128 109.615C419.483 109.77 418.838 109.925 418.194 110.078L419.12 113.969ZM423.004 113.035C423.65 112.878 424.297 112.72 424.945 112.561L423.991 108.677C423.347 108.835 422.703 108.992 422.059 109.148L423.004 113.035ZM426.887 112.082C427.535 111.922 428.182 111.76 428.83 111.598L427.859 107.718C427.214 107.879 426.569 108.04 425.925 108.2L426.887 112.082ZM430.775 111.109C431.423 110.945 432.072 110.781 432.72 110.615L431.731 106.739C431.085 106.904 430.44 107.068 429.795 107.231L430.775 111.109ZM434.667 110.116C435.314 109.949 435.962 109.781 436.609 109.613L435.602 105.742C434.957 105.909 434.313 106.076 433.668 106.242L434.667 110.116ZM438.54 109.108C439.184 108.939 439.827 108.769 440.471 108.598L439.446 104.732C438.805 104.902 438.164 105.071 437.524 105.239L438.54 109.108ZM442.404 108.084C443.048 107.911 443.692 107.738 444.337 107.564L443.294 103.702C442.652 103.876 442.011 104.048 441.37 104.22L442.404 108.084ZM446.271 107.039C446.915 106.863 447.56 106.687 448.205 106.51L447.144 102.653C446.502 102.829 445.86 103.005 445.219 103.18L446.271 107.039ZM450.14 105.975C450.785 105.796 451.431 105.616 452.076 105.435L450.997 101.583C450.355 101.763 449.712 101.942 449.07 102.121L450.14 105.975ZM454.001 104.893C454.641 104.712 455.282 104.531 455.922 104.348L454.825 100.501C454.188 100.683 453.55 100.864 452.913 101.044L454.001 104.893ZM457.844 103.798C458.485 103.613 459.126 103.428 459.766 103.242L458.652 99.4008C458.014 99.5859 457.376 99.7701 456.738 99.9536L457.844 103.798ZM461.689 102.682C462.33 102.495 462.971 102.306 463.612 102.117L462.479 98.2806C461.841 98.4689 461.203 98.6564 460.565 98.8432L461.689 102.682ZM465.535 101.547C466.176 101.356 466.818 101.164 467.459 100.971L466.308 97.1405C465.67 97.3322 465.032 97.523 464.394 97.713L465.535 101.547ZM469.381 100.392C470.018 100.199 470.655 100.005 471.292 99.8107L470.123 95.9852C469.489 96.1788 468.855 96.3716 468.221 96.5636L469.381 100.392ZM473.202 99.2247C473.839 99.0285 474.476 98.8315 475.113 98.6337L473.927 94.8136C473.293 95.0105 472.659 95.2066 472.025 95.4019L473.202 99.2247ZM477.024 98.0378C477.661 97.8383 478.298 97.638 478.935 97.4369L477.731 93.6225C477.097 93.8227 476.463 94.022 475.829 94.2206L477.024 98.0378ZM480.846 96.8312C481.483 96.6284 482.12 96.4248 482.757 96.2204L481.535 92.4118C480.901 92.6152 480.267 92.8178 479.633 93.0196L480.846 96.8312ZM484.668 95.6048C485.303 95.3993 485.938 95.193 486.573 94.9858L485.333 91.1829C484.701 91.3891 484.069 91.5945 483.437 91.799L484.668 95.6048ZM488.473 94.3639C489.106 94.1558 489.739 93.9468 490.372 93.7371L489.113 89.9401C488.483 90.1489 487.853 90.3568 487.223 90.564L488.473 94.3639ZM492.27 93.1053C492.903 92.8939 493.536 92.6817 494.169 92.4687L492.892 88.6778C492.263 88.8898 491.633 89.101 491.003 89.3114L492.27 93.1053ZM496.067 91.8271C496.699 91.6124 497.332 91.3969 497.965 91.1806L496.67 87.3958C496.041 87.6111 495.411 87.8256 494.781 88.0392L496.067 91.8271ZM499.862 90.5292C500.494 90.3112 501.126 90.0924 501.758 89.8728L500.446 86.0943C499.817 86.3129 499.187 86.5306 498.558 86.7475L499.862 90.5292ZM503.648 89.2139C504.277 88.9937 504.906 88.7727 505.535 88.5509L504.204 84.7787C503.578 84.9995 502.952 85.2194 502.326 85.4385L503.648 89.2139ZM507.42 87.883C508.049 87.6596 508.677 87.4353 509.306 87.2102L507.957 83.4445C507.331 83.6685 506.706 83.8917 506.081 84.1141L507.42 87.883ZM511.19 86.5325C511.818 86.3058 512.446 86.0783 513.074 85.8499L511.707 82.0908C511.082 82.3181 510.457 82.5445 509.832 82.7701L511.19 86.5325ZM514.957 85.1624C515.585 84.9324 516.212 84.7016 516.84 84.4699L515.454 80.7176C514.83 80.9481 514.206 81.1778 513.581 81.4066L514.957 85.1624ZM518.721 83.7726C519.346 83.5402 519.971 83.307 520.595 83.0729L519.191 79.3274C518.57 79.5603 517.948 79.7924 517.327 80.0236L518.721 83.7726ZM522.467 82.3685C523.091 82.1329 523.715 81.8964 524.339 81.6591L522.917 77.9205C522.296 78.1566 521.675 78.3919 521.054 78.6264L522.467 82.3685ZM526.209 80.9449C526.833 80.706 527.456 80.4663 528.079 80.2257L526.638 76.4942C526.018 76.7336 525.398 76.9721 524.778 77.2098L526.209 80.9449ZM529.947 79.5016C530.57 79.2595 531.192 79.0165 531.815 78.7727L530.355 75.0483C529.736 75.2909 529.117 75.5327 528.497 75.7737L529.947 79.5016ZM533.681 78.0387C534.303 77.7934 534.924 77.5473 535.545 77.3003L534.067 73.5833C533.449 73.829 532.831 74.074 532.212 74.3181L533.681 78.0387ZM537.403 76.5588C538.023 76.3108 538.641 76.062 539.26 75.8123L537.764 72.1028C537.148 72.3512 536.532 72.5987 535.916 72.8455L537.403 76.5588ZM541.116 75.061C541.734 74.8097 542.353 74.5576 542.97 74.3047L541.455 70.6028C540.84 70.8544 540.225 71.1052 539.61 71.3552L541.116 75.061ZM544.823 73.5435C545.441 73.289 546.058 73.0336 546.675 72.7774L545.141 69.0833C544.527 69.3381 543.913 69.5922 543.299 69.8455L544.823 73.5435ZM548.525 72.0064C549.142 71.7486 549.758 71.4899 550.374 71.2305L548.821 67.5442C548.208 67.8023 547.595 68.0596 546.982 68.3162L548.525 72.0064ZM552.22 70.4502C552.834 70.1896 553.448 69.9283 554.062 69.6661L552.49 65.9878C551.879 66.2486 551.269 66.5086 550.658 66.7679L552.22 70.4502ZM555.902 68.877C556.515 68.6132 557.128 68.3485 557.74 68.083L556.149 64.4129C555.54 64.677 554.93 64.9403 554.32 65.2028L555.902 68.877ZM559.577 67.2841C560.189 67.017 560.801 66.7491 561.412 66.4803L559.802 62.8185C559.194 63.0859 558.585 63.3524 557.977 63.6182L559.577 67.2841ZM563.245 65.6715C563.856 65.4011 564.467 65.1299 565.077 64.8578L563.448 61.2045C562.841 61.4751 562.234 61.7449 561.626 62.0139L563.245 65.6715Z" fill="black"/>
</svg>
