<svg width="173" height="350" viewBox="0 0 173 350" fill="none" xmlns="http://www.w3.org/2000/svg">
<path fill-rule="evenodd" clip-rule="evenodd" d="M1.23731 0.587689C-0.618515 1.07297 1.04902 6.07966 4.9442 11.7112C10.1146 19.1871 13.0225 20.7826 22.2795 21.2298C36.2718 21.9038 43.0211 26.4648 44.4244 36.1896C44.7741 38.6081 45.043 60.3112 45.0494 86.6609C45.0636 135.929 45.4449 142.207 48.5854 144.819C49.0838 145.235 49.492 146.012 49.492 146.546C49.492 147.834 58.0939 156.168 62.1268 158.788C63.8797 159.925 65.3132 161.067 65.3132 161.324C65.3132 161.581 66.5235 162.527 68.0028 163.426C75.3216 167.875 75.0685 169.012 65.1644 176.185C44.0985 191.445 45.0778 187.369 45.0509 259.921C45.0383 294.495 44.7946 316.141 44.3959 317.87C42.8819 324.456 36.7686 328.002 24.5973 329.352C21.1736 329.732 17.5553 330.465 16.5601 330.982C15.5634 331.499 14.2708 331.921 13.6854 331.921C12.6349 331.921 5.19261 338.916 5.19261 339.904C5.19261 340.375 3.65635 342.875 0.637668 347.313C-1.15013 349.943 -0.678635 350 22.5959 350C43.0796 349.998 43.5289 349.971 46.0018 348.573C47.3893 347.788 48.9888 347.145 49.5552 347.145C50.1232 347.145 51.3114 346.574 52.1958 345.877C53.0818 345.179 54.0453 344.608 54.3396 344.608C56.2508 344.608 64.799 335.002 67.5424 329.77C72.3204 320.661 72.2697 321.432 72.2713 258.93C72.2745 198.418 72.0672 201.347 76.6206 197.785C77.5334 197.07 81.1391 193.63 84.634 190.141C88.1273 186.652 91.8295 183.065 92.8626 182.17C97.8653 177.838 104.55 170.216 104.55 168.846C104.55 167.781 100.223 163.103 88.4912 151.486C73.113 136.258 72.4169 135.465 72.0403 132.731C71.8252 131.161 71.6796 107.896 71.7192 81.031C71.7666 48.1949 71.5673 31.3542 71.1132 29.6477C69.7732 24.6125 67.7148 19.4726 66.5266 18.188C65.859 17.468 65.3132 16.5926 65.3132 16.2421C65.3132 15.5047 59.3058 9.23559 57.0402 7.61163C52.9568 4.68088 50.6074 3.32178 49.6217 3.31861C49.0284 3.31703 46.5492 2.60969 44.1127 1.74696C39.8964 0.253044 6.01215 -0.663588 1.23731 0.587689ZM170.562 2.55896C169.282 2.74927 166.986 5.04566 163.634 9.48777C160.976 13.0101 156.443 19.8358 156.443 20.3179C156.443 20.5891 155.434 22.37 154.201 24.2763C152.967 26.1841 149.68 32.3755 146.894 38.034C144.107 43.6925 141.557 48.4914 141.225 48.6976C140.894 48.9022 140.622 49.6618 140.622 50.385C140.622 51.1082 140.087 52.591 139.434 53.6789C138.779 54.7668 137.888 56.7984 137.451 58.194C137.016 59.5896 136.425 61.0312 136.137 61.3991C135.173 62.6266 136.335 65.1355 139.939 69.6125C141.904 72.0548 144.215 75.1949 145.073 76.5905L146.634 79.1279L146.951 213.795C147.229 332.576 147.379 348.531 148.216 349.061C149.83 350.084 169.907 349.841 171.353 348.782C172.636 347.842 173.699 5.10751 172.426 3.10293C172.163 2.68901 171.325 2.44477 170.562 2.55896Z" fill="#E0AB4D"/>
</svg>
