<svg width="104" height="104" viewBox="0 0 104 104" fill="none" xmlns="http://www.w3.org/2000/svg">
<path d="M102.375 99.125H99.125V102.375H102.375V99.125Z" fill="#E0AB4D"/>
<path d="M4.875 99.125H1.625V102.375H4.875V99.125Z" fill="#E0AB4D"/>
<path d="M52 45.5C54.6877 45.5 56.875 43.3127 56.875 40.625C56.875 37.9372 54.6877 35.75 52 35.75C49.3122 35.75 47.125 37.9372 47.125 40.625C47.125 43.3127 49.3122 45.5 52 45.5ZM52 39C52.897 39 53.625 39.728 53.625 40.625C53.625 41.522 52.897 42.25 52 42.25C51.103 42.25 50.375 41.522 50.375 40.625C50.375 39.728 51.103 39 52 39Z" fill="#E0AB4D"/>
<path d="M71.0076 37.375L85.6326 47.125H89.375V38.8359C93.0784 38.0802 95.875 34.7994 95.875 30.875C95.875 26.9506 93.0784 23.6698 89.375 22.9141V14.625H85.6326L71.0076 24.375H66.0042L62.7542 17.875H53.625V11.076C55.5116 10.4032 56.875 8.61575 56.875 6.5C56.875 3.81225 54.6878 1.625 52 1.625C49.3122 1.625 47.125 3.81225 47.125 6.5C47.125 8.61575 48.4884 10.4032 50.375 11.076V17.875H41.2458L37.9958 24.375H32.9924L18.3674 14.625H14.625V22.9141C10.9216 23.6698 8.125 26.9522 8.125 30.875C8.125 34.7977 10.9216 38.0802 14.625 38.8359V47.125H18.3674L32.9924 37.375H33.9349L27.7956 92.625H26C22.0772 92.625 18.7947 95.4216 18.0391 99.125H8.125V102.375H95.875V99.125H85.9609C85.2052 95.4216 81.9244 92.625 78 92.625H76.2044L70.0651 37.375H71.0076ZM52 4.875C52.897 4.875 53.625 5.603 53.625 6.5C53.625 7.397 52.897 8.125 52 8.125C51.103 8.125 50.375 7.397 50.375 6.5C50.375 5.603 51.103 4.875 52 4.875ZM92.625 30.875C92.625 32.9907 91.2616 34.7783 89.375 35.451V26.3006C91.2616 26.9717 92.625 28.7593 92.625 30.875ZM86.125 18.2032V43.5467L73.125 34.8806V26.8694L86.125 18.2032ZM43.2542 21.125H60.7458L62.3708 24.375H41.6292L43.2542 21.125ZM34.125 27.625H69.875V34.125H61.321C59.2621 31.1821 55.8545 29.25 52 29.25C48.1455 29.25 44.7379 31.1821 42.679 34.125H34.125V27.625ZM35.0984 69.875L52 61.9206L68.9 69.875H35.0984ZM68.9016 73.125L52 81.0778L35.0984 73.125H68.9016ZM33.9316 66.8298L35.3486 54.0849L48.1812 60.125L33.9316 66.8298ZM48.1829 82.875L31.265 90.8359L32.9469 75.7055L48.1829 82.875ZM52 84.6722L68.9016 92.625H35.0984L52 84.6722ZM55.8187 82.875L71.0548 75.7055L72.7366 90.8359L55.8187 82.875ZM55.8171 60.125L68.6514 54.0849L70.0684 66.8314L55.8171 60.125ZM68.2728 50.6707L52 58.3278L35.7272 50.6691L35.7971 50.0451L42.5133 46.8845C44.551 49.9639 48.0415 52 52 52C55.9585 52 59.449 49.9639 61.4868 46.8861L68.2029 50.0467L68.2728 50.6707ZM43.875 40.625C43.875 36.1449 47.5199 32.5 52 32.5C56.4801 32.5 60.125 36.1449 60.125 40.625C60.125 45.1051 56.4801 48.75 52 48.75C47.5199 48.75 43.875 45.1051 43.875 40.625ZM11.375 30.875C11.375 28.7593 12.7384 26.9718 14.625 26.299V35.4494C12.7384 34.7783 11.375 32.9907 11.375 30.875ZM17.875 43.5467V18.2032L30.875 26.8694V34.8806L17.875 43.5467ZM41.1044 37.375C40.7956 38.4053 40.625 39.4956 40.625 40.625C40.625 41.7804 40.8005 42.8951 41.1222 43.9465L36.218 46.254L37.2044 37.375H41.1044ZM82.576 99.125H21.424C22.0968 97.2384 23.8842 95.875 26 95.875H78C80.1158 95.875 81.9033 97.2384 82.576 99.125ZM67.782 46.254L62.8778 43.9465C63.1995 42.8951 63.375 41.7804 63.375 40.625C63.375 39.4956 63.2044 38.4053 62.8956 37.375H66.7956L67.782 46.254Z" fill="#E0AB4D"/>
</svg>
