<svg width="182" height="182" viewBox="0 0 182 182" fill="none" xmlns="http://www.w3.org/2000/svg">
<path d="M176.696 174.404L172.467 157.486C168.326 140.921 156.388 127.245 140.535 120.903L118.407 112.052C123.185 107.959 127.679 102.788 131.758 96.6098C141.64 81.6442 147.54 62.8946 147.54 46.454C147.54 30.0287 141.677 17.6809 130.114 9.75321C120.673 3.28212 107.513 0 90.9997 0C74.4868 0 61.3264 3.28212 51.8864 9.75382C40.323 17.6815 34.4604 30.0293 34.4604 46.4546C34.4604 62.8946 40.3603 81.6442 50.2416 96.6104C54.321 102.789 58.8146 107.959 63.5931 112.053L41.4652 120.904C25.6117 127.246 13.6745 140.921 9.5332 157.486L5.30371 174.405C4.84717 176.232 5.25713 178.166 6.41592 179.649C7.5741 181.133 9.35181 182 11.2337 182H170.767C172.649 182 174.426 181.133 175.585 179.649C176.743 178.165 177.153 176.231 176.696 174.404ZM46.9129 51.7074C46.7634 49.9346 46.685 48.1802 46.685 46.454C46.685 37.9882 46.685 12.2246 90.9997 12.2246C135.314 12.2246 135.314 37.9882 135.314 46.454C135.314 48.1802 135.236 49.9346 135.086 51.7074L126.795 33.9395C125.992 32.2188 124.485 30.9289 122.631 30.5171C120.787 30.1077 118.906 30.5336 117.452 31.7396C116.35 32.5718 98.3097 45.5127 63.0888 30.8798C60.0653 29.6242 56.5895 30.973 55.2046 33.9395L46.9129 51.7074ZM51.2441 71.318C51.2644 71.2776 51.2877 71.2402 51.3067 71.1991L63.8652 44.289C90.9598 54.036 109.396 49.2342 118.51 45.0923L130.693 71.1991C130.712 71.2396 130.737 71.2739 130.757 71.3137C123.355 92.3325 107.845 110.94 90.9997 110.94C74.1552 110.94 58.6461 92.3344 51.2441 71.318ZM19.0615 169.775L21.3926 160.451C24.5172 147.953 33.399 137.594 45.232 132.576L43.6627 135.715C42.7153 137.61 42.817 139.86 43.9299 141.662C45.0439 143.464 47.011 144.561 49.1294 144.561H55.7427L51.9139 152.219C50.6559 154.735 51.2779 157.785 53.4208 159.608L65.3727 169.775H19.0615ZM84.8871 169.775L64.9909 153.401L71.1005 141.182C72.0478 139.287 71.9461 137.037 70.8333 135.235C69.7192 133.433 67.7522 132.336 65.6337 132.336H59.0199L62.3247 125.726L67.2656 123.75L84.8871 158.993V169.775ZM79.7433 121.37C83.4341 122.555 87.2004 123.165 90.9997 123.165C94.799 123.165 98.5652 122.555 102.256 121.37L90.9997 143.882L79.7433 121.37ZM97.1123 158.993L114.734 123.75L119.675 125.726L122.979 132.336H116.366C114.248 132.336 112.28 133.433 111.167 135.235C110.053 137.037 109.952 139.287 110.9 141.182L117.009 153.401L97.1123 169.775V158.993ZM116.627 169.774L128.579 159.608C130.722 157.785 131.343 154.735 130.085 152.219L126.257 144.561H132.87C134.988 144.561 136.956 143.464 138.07 141.662C139.183 139.86 139.284 137.61 138.337 135.715L136.767 132.576C148.6 137.594 157.482 147.953 160.607 160.451L162.938 169.774H116.627Z" fill="#D1A954"/>
<path d="M87.6354 76.5039V75.9376H94.3638V76.5039C94.3638 80.832 97.8849 84.3537 102.213 84.3537H120.129C124.457 84.3537 127.979 80.832 127.979 76.5039V67.1428C127.979 62.8147 124.457 59.293 120.129 59.293H102.213C97.8849 59.293 94.3638 62.8147 94.3638 67.1428V67.38H87.6354V67.1428C87.6354 62.8147 84.1143 59.293 79.7861 59.293H61.8699C57.5417 59.293 54.02 62.8147 54.02 67.1428V76.5039C54.02 80.832 57.5417 84.3537 61.8699 84.3537H79.7861C84.1143 84.3537 87.6354 80.832 87.6354 76.5039ZM102.921 67.85H119.422V75.7961H102.921V67.85ZM79.0783 75.7961H62.5771V67.85H79.0783V75.7961Z" fill="#D1A954"/>
<path d="M106.937 89.874C102.189 90.165 98.6498 89.1239 96.5209 88.1992C93.0127 86.6758 88.9873 86.6758 85.4766 88.1992C83.3483 89.1239 79.8101 90.1644 75.0622 89.874C72.6992 89.7318 70.6746 91.5254 70.5306 93.8841C70.3865 96.2433 72.182 98.2717 74.5407 98.4157C75.2681 98.4598 75.9764 98.4806 76.6646 98.4806C82.0707 98.4806 86.2364 97.1987 88.8849 96.0485C90.2294 95.4657 91.7706 95.4645 93.112 96.0485C96.0987 97.3457 101.013 98.8073 107.457 98.4157C109.816 98.2711 111.612 96.2427 111.468 93.8841C111.324 91.5254 109.307 89.733 106.937 89.874Z" fill="#D1A954"/>
</svg>
