<svg width="191" height="213" viewBox="0 0 191 213" fill="none" xmlns="http://www.w3.org/2000/svg">
<path fill-rule="evenodd" clip-rule="evenodd" d="M87.8792 0.352641C64.0446 3.9484 45.8646 23.2604 43.6676 47.3171C43.5201 48.936 43.3988 53.686 43.3982 57.8717L43.3975 65.482L24.899 65.5528L6.4004 65.623L4.91779 66.3741C3.18807 67.2498 1.73168 68.7356 0.719676 70.6568L0 72.024V138.982V205.939L0.831755 207.63C1.8182 209.634 3.42534 211.207 5.45984 212.16L6.9123 212.842L94.8531 212.908C192.511 212.98 184.212 213.128 186.953 211.268C188.511 210.212 189.363 209.165 190.312 207.142L191 205.673V138.976V72.2803L190.316 70.8213C189.444 68.9611 187.662 67.179 185.802 66.3066L184.343 65.623L165.867 65.5528L147.391 65.482L147.268 55.1831C147.172 47.1971 147.054 44.4286 146.739 42.8542C142.381 21.0764 127.006 5.37989 105.577 0.830459C101.549 -0.0248938 92.0753 -0.280517 87.8792 0.352641ZM101.516 17.0232C113.416 18.9456 123.946 27.5588 128.377 38.9956C130.438 44.3139 130.955 48.2727 130.958 58.7742L130.96 65.4951H95.4751H59.9907L60.1087 56.3419C60.2149 48.1285 60.285 46.9271 60.7897 44.637C64.9426 25.8061 82.4409 13.9419 101.516 17.0232ZM174.486 139.232V196.584H95.3715H16.2576V139.232V81.8812H95.3715H174.486V139.232ZM92.8114 109.166C92.4594 109.228 91.3071 109.406 90.2512 109.563C72.4343 112.197 60.8815 131.833 66.9771 149.12C74.4164 170.219 101.437 176.284 116.948 160.336C133.645 143.169 124.835 114.514 101.368 109.665C99.3809 109.254 94.0764 108.945 92.8114 109.166ZM99.6955 126.417C110.888 130.216 112.176 145.654 101.757 151.128C88.7804 157.947 75.821 142.077 85.0555 130.676C88.5457 126.367 94.4709 124.644 99.6955 126.417Z" fill="#E0AB4D"/>
</svg>
