<svg width="216" height="198" viewBox="0 0 216 198" fill="none" xmlns="http://www.w3.org/2000/svg">
<path fill-rule="evenodd" clip-rule="evenodd" d="M74.416 0.372372C72.504 1.07363 70.728 2.97632 70.1595 4.9319C69.6676 6.62692 69.7392 17.0097 70.2537 18.4844C72.2352 24.1655 80.2409 24.5764 83.1401 19.1459C83.8238 17.8657 84.0243 6.38234 83.3957 4.48846C82.2935 1.16397 77.832 -0.880852 74.416 0.372372ZM29.5154 18.518C25.0374 19.9904 23.0482 25.2071 25.5073 29.0302C26.3374 30.3208 33.8121 37.5868 34.8951 38.1553C36.442 38.9684 39.734 38.9039 41.3111 38.0302C44.4527 36.29 45.8552 32.1321 44.364 28.9811C43.6176 27.4035 36.0878 19.8147 34.4974 19.0369C33.2651 18.4337 30.6116 18.1577 29.5154 18.518ZM128.436 18.7394C127.162 19.2534 117.356 26.2599 116.422 27.3236C113.462 30.6943 114.546 35.9821 118.645 38.1707C119.902 38.8422 123.452 38.8929 124.626 38.2561C126.2 37.4028 135.844 30.3137 136.371 29.6229C140.543 24.1528 134.742 16.1955 128.436 18.7394ZM72.6593 32.2224C50.3398 35.2539 33.9289 52.6723 31.2247 76.2015C29.8216 88.4104 35.7369 103.089 48.4206 118.875L50.2803 121.189L50.3883 132.794L50.4957 144.4L51.945 147.264C66.1762 175.391 85.7 176.898 103.02 151.205C107.458 144.621 107.196 145.816 107.198 132.17L107.199 121.294L108.412 119.788C122.167 102.709 127.926 88.3696 126.23 75.4176C122.637 47.9734 98.7143 28.6842 72.6593 32.2224ZM84.2039 46.2911C99.5973 48.9275 111.768 63.1382 112.502 79.3338C112.889 87.8551 106.676 100.453 96.0018 112.795C93.4419 115.754 93.3367 116.04 93.2469 120.272L93.1725 123.769H78.7921H64.4117L64.3396 120.272C64.2525 116.07 64.1644 115.832 61.5593 112.795C49.3714 98.5822 43.8352 86.0632 45.3352 76.1062C48.3385 56.1665 65.4094 43.0723 84.2039 46.2911ZM5.4149 71.983C-1.10076 73.4852 -1.9816 82.3867 4.1143 85.1223L5.4138 85.7051L11.816 85.6395C18.0149 85.5762 18.2474 85.5586 19.1425 85.0804C24.4408 82.2517 24.3163 74.9026 18.9282 72.433L17.5726 71.8117L12.0854 71.7604C8.25297 71.7252 6.2412 71.7924 5.4149 71.983ZM140.335 71.8992C133.674 73.1023 132.378 81.9157 138.398 85.0672C139.354 85.5679 139.448 85.574 146.037 85.574H152.708L153.797 84.9989C159.055 82.2242 158.609 74.2564 153.083 72.2188C151.944 71.799 142.237 71.5555 140.335 71.8992ZM154.98 96.2669C152.049 97.3923 150.843 99.5611 150.675 104.009C150.529 107.857 150.582 107.801 148.935 105.869C145.87 102.273 142.536 101.383 139.22 103.275C137.65 104.171 124.362 117.93 123.621 119.428C121.881 122.943 123.112 126.381 127.048 128.999C128.025 129.649 129.015 130.392 129.248 130.649L129.671 131.118L125.696 131.048C121.005 130.965 120.25 131.178 118.434 133.098C116.52 135.122 116.557 134.854 116.557 146.794V157.23L117.155 158.448C118.666 161.526 121.381 162.722 125.58 162.16C126.772 162 128.126 161.867 128.591 161.863L129.435 161.857L128.913 162.419C128.626 162.728 127.666 163.565 126.778 164.278C122.715 167.543 121.742 171.268 124.06 174.679C125.367 176.603 138.514 189.689 139.689 190.234C142.845 191.702 145.477 191.015 148.41 187.958C150.722 185.549 150.663 185.522 150.663 188.997C150.663 193.252 151.788 195.432 154.725 196.875L155.935 197.469H166.156H176.377L177.593 196.899C180.562 195.507 181.472 193.794 181.658 189.24C181.823 185.224 181.68 185.338 183.647 187.651C185.835 190.223 186.949 190.8 189.719 190.794C192.913 190.787 192.776 190.9 205.564 177.67C210.322 172.747 210.825 169.071 207.195 165.73C206.488 165.079 205.171 163.836 204.269 162.969L202.63 161.392L203.894 161.535C204.59 161.614 205.704 161.825 206.369 162.002C210.393 163.077 214.095 161.403 215.398 157.919C216.006 156.294 216.129 137.639 215.544 135.697C215.033 134.001 213.824 132.604 212.108 131.731L210.629 130.978L206.644 131.047C202.066 131.127 202.137 131.194 204.845 129.352C209.179 126.402 210.494 123.188 208.82 119.64C207.843 117.567 194.693 104.061 192.695 103.078C189.541 101.525 187.008 102.183 183.963 105.345C182.809 106.543 181.855 107.474 181.842 107.415C181.83 107.356 181.754 105.807 181.673 103.972C181.47 99.3705 180.335 97.4028 177.208 96.2327C175.381 95.5491 156.775 95.5777 154.98 96.2669ZM168.569 112.203C171.008 122.32 179.286 125.947 187.75 120.607L189.654 119.406L190.852 120.603L192.05 121.801L190.936 123.02C182.662 132.074 187.682 143.6 200.415 144.783L201.877 144.919V146.071C201.877 147.059 201.819 147.224 201.469 147.224C187.762 147.224 182.341 158.58 190.936 169.291L192.447 171.175L191.049 172.573L189.65 173.972L188.585 173.189C179.903 166.817 170.409 171.054 168.292 182.245L168.037 183.59H166.156H164.275L164.128 182.479C162.676 171.53 152.954 166.96 144.02 173.027C142.434 174.104 142.747 174.163 141.305 172.52L140.088 171.133L141.243 169.772C149.992 159.459 145.723 148.89 132.426 147.947L130.436 147.806V146.362V144.919L131.98 144.775C144.597 143.602 149.552 132.542 141.63 123.231L140.349 121.725L141.464 120.595C142.785 119.257 142.653 119.278 143.938 120.194C152.386 126.209 161.578 122.407 163.854 111.956L164.327 109.784H166.156L167.985 109.783L168.569 112.203ZM32.8746 119.477C31.0567 119.931 30.031 120.763 25.4714 125.484C20.756 130.367 20.2272 131.08 19.8719 133.028C18.8506 138.637 24.9999 143.175 29.9263 140.446C31.6461 139.494 39.9477 130.886 40.7707 129.201C43.2441 124.139 38.3485 118.11 32.8746 119.477ZM162.871 127.968C147.827 130.822 142.354 149.885 153.531 160.501C163.023 169.518 178.661 165.972 183.465 153.714C188.848 139.979 177.084 125.272 162.871 127.968ZM93.2094 139.259V140.762L91.6048 143.136C86.6117 150.524 80.994 155.606 77.8121 155.614C73.9247 155.623 64.3748 144.084 64.3748 139.377V137.756H78.7921H93.2094V139.259ZM167.469 141.874C170.919 143.029 171.966 147.604 169.373 150.197C166.726 152.844 162.469 151.437 161.656 147.646C160.891 144.078 164.209 140.783 167.469 141.874Z" fill="#E0AB4D"/>
</svg>
